<?xml version="1.0" encoding="UTF-8"?>
<svg version="1.1" xmlns="http://www.w3.org/2000/svg" width="512" height="512">
<path d="M0 0 C1.27230469 0.01804687 2.54460937 0.03609375 3.85546875 0.0546875 C4.83128906 0.07789062 5.80710937 0.10109375 6.8125 0.125 C5.49917859 3.04143675 4.58023832 4.33565594 2.125 6.5625 C-0.42441079 8.8615312 -0.42441079 8.8615312 -0.375 11.625 C1.27004904 15.08826113 3.7839966 16.9265789 6.8125 19.125 C8.23082704 20.16440479 9.64746317 21.20612037 11.0625 22.25 C11.72765625 22.72695313 12.3928125 23.20390625 13.078125 23.6953125 C15.92366249 26.04095827 16.76942982 27.79889721 17.25 31.4375 C16.70654798 36.01802417 15.18732638 38.18725305 11.8125 41.125 C8.95835616 43.17933397 6.08416638 45.17333575 3.140625 47.09765625 C0.69304995 48.95328188 0.69304995 48.95328188 -0.328125 51.55859375 C-0.43029144 54.33804583 -0.43029144 54.33804583 1.890625 56.64453125 C5.70245368 59.88050881 9.5714821 63.02419031 13.484375 66.13671875 C16.49134989 68.70475603 16.73980998 69.48290479 17.1875 73.4375 C16.7063813 78.16850058 15.30459235 78.99824883 11.8125 82.125 C6.14980122 86.4949735 6.14980122 86.4949735 3.74609375 88.19921875 C1.91308619 89.54398945 1.91308619 89.54398945 -0.1875 92.125 C-0.49984668 95.81616692 -0.49984668 95.81616692 0.8125 99.125 C2.57378411 100.45138153 2.57378411 100.45138153 4.8125 101.125 C6.35835912 102.23683975 7.87850638 103.38505578 9.375 104.5625 C10.13941406 105.15933594 10.90382813 105.75617188 11.69140625 106.37109375 C15.46170896 109.48871054 15.46170896 109.48871054 16.8125 111.125 C17.24326923 117.26346154 17.24326923 117.26346154 15.8125 120.125 C17.04613281 120.19847656 17.04613281 120.19847656 18.3046875 120.2734375 C25.28878184 120.7411944 31.99284735 121.53939227 38.8125 123.125 C37.82245665 117.24355437 35.44380216 114.45043301 30.8125 110.6875 C27.65215302 107.98803696 25.67192561 105.84385122 23.8125 102.125 C23.54120583 98.39470511 23.84241196 96.25050267 26.32421875 93.37109375 C30.78644322 89.32522288 35.77454824 85.99254711 40.80859375 82.703125 C43.0921276 81.20221883 43.0921276 81.20221883 43.8125 78.125 C42.62433087 76.22075454 42.62433087 76.22075454 40.8125 74.375 C40.17054688 73.67632812 39.52859375 72.97765625 38.8671875 72.2578125 C36.35387479 69.64893657 33.80321355 67.08465656 31.1953125 64.5703125 C28.6122031 61.87045239 28.17334748 59.05677674 28.20703125 55.3515625 C29.8091506 49.45989779 36.65998941 45.65669777 41.6875 42.75 C42.71875 42.21375 43.75 41.6775 44.8125 41.125 C45.8025 40.465 46.7925 39.805 47.8125 39.125 C47.4893059 33.79229738 44.42194406 30.74314152 40.8125 27.125 C39.925625 26.444375 39.03875 25.76375 38.125 25.0625 C34.66205952 22.16111744 33.19159373 19.02046865 32.3125 14.625 C33.07248349 10.82508255 35.14483915 8.8532895 37.8125 6.125 C42.97124399 2.90213688 49.13770365 3.69703258 54.9375 4.625 C55.55625 4.79 56.175 4.955 56.8125 5.125 C56.42729436 7.66410197 56.11152057 8.85251123 54.18359375 10.609375 C53.54550781 11.02703125 52.90742188 11.4446875 52.25 11.875 C51.60933594 12.30296875 50.96867188 12.7309375 50.30859375 13.171875 C49.81488281 13.48640625 49.32117188 13.8009375 48.8125 14.125 C49.23411832 19.04388037 51.23925901 20.86247562 54.8125 24.125 C56.04993091 25.30388579 57.278807 26.49180163 58.5 27.6875 C59.37205078 28.52474609 59.37205078 28.52474609 60.26171875 29.37890625 C62.7195236 32.14625831 63.71934245 34.39526588 64.1875 38.0625 C63.7079143 41.97911653 62.48972421 43.24654652 59.8125 46.125 C57.61513274 47.63060349 55.48780928 48.99547025 53.1875 50.3125 C48.73702176 52.85599203 48.73702176 52.85599203 44.8125 56.125 C44.06222547 58.4037347 44.06222547 58.4037347 44.8125 61.125 C46.87672199 63.74102075 49.29727172 65.93976164 51.75 68.1875 C53.05746443 69.40038734 54.35854297 70.62020422 55.65234375 71.84765625 C56.23363037 72.38140869 56.81491699 72.91516113 57.41381836 73.46508789 C59.03247976 75.38606517 59.47309231 76.65036558 59.8125 79.125 C59.35577651 82.64829548 58.8004186 85.15394831 56.2109375 87.69921875 C53.34992006 89.8706284 50.35986599 91.78096589 47.3203125 93.69140625 C46.51335937 94.20574219 45.70640625 94.72007813 44.875 95.25 C44.12347656 95.70632812 43.37195313 96.16265625 42.59765625 96.6328125 C40.69786574 98.00485422 40.69786574 98.00485422 39.90234375 100.09375 C39.63105348 102.15748873 39.63105348 102.15748873 40.78125 103.8359375 C41.2865625 104.38507813 41.791875 104.93421875 42.3125 105.5 C42.86164063 106.09683594 43.41078125 106.69367188 43.9765625 107.30859375 C46.78493632 110.08709126 49.75434393 112.62828206 52.8125 115.125 C47.86128396 122.97003162 42.82558665 130.75598588 37.70385742 138.49047852 C36.88950528 139.72298917 36.07805844 140.95742357 35.26928711 142.19360352 C34.08581008 144.0019753 32.89359918 145.80428579 31.69921875 147.60546875 C30.65060669 149.19717896 30.65060669 149.19717896 29.58081055 150.82104492 C28.99726807 151.5813501 28.41372559 152.34165527 27.8125 153.125 C27.1525 153.125 26.4925 153.125 25.8125 153.125 C25.8125 152.465 25.8125 151.805 25.8125 151.125 C25.1525 151.125 24.4925 151.125 23.8125 151.125 C20.86504348 148.35092328 19.50004807 146.1257691 19.25 142.125 C19.4292703 138.83631728 19.80843033 138.13026663 21.9375 135.375 C24.82581723 133.11457782 27.70812093 131.07426127 30.8125 129.125 C23.61953204 126.45150748 16.49592541 124.97586599 8.8125 126.125 C6.3978312 127.07662564 6.3978312 127.07662564 4.8125 129.125 C3.92988372 133.84183893 4.05776169 138.3922801 4.8125 143.125 C7.36782594 145.85642887 7.36782594 145.85642887 10.8125 147.125 C12.5166054 148.75336738 14.19275441 150.41269752 15.8125 152.125 C16.1425 152.455 16.4725 152.785 16.8125 153.125 C17.18915344 157.04219579 17.11715464 159.50244487 15.375 163.0625 C11.66392217 166.04946508 8.40388561 165.56647939 3.8125 165.125 C5.06374755 170.81248885 6.85352568 173.85347508 10.8125 178.125 C9.8225 179.115 8.8325 180.105 7.8125 181.125 C7.1525 180.795 6.4925 180.465 5.8125 180.125 C5.8125 179.465 5.8125 178.805 5.8125 178.125 C5.1525 178.125 4.4925 178.125 3.8125 178.125 C3.85890625 178.86105469 3.9053125 179.59710938 3.953125 180.35546875 C3.98921875 181.33128906 4.0253125 182.30710938 4.0625 183.3125 C4.10890625 184.27542969 4.1553125 185.23835937 4.203125 186.23046875 C3.8125 189.125 3.8125 189.125 -0.1875 194.125 C-0.5175 189.505 -0.8475 184.885 -1.1875 180.125 C-1.94933594 180.98222656 -2.71117187 181.83945313 -3.49609375 182.72265625 C-17.5119026 198.32391223 -32.79354887 208.44412027 -54.1875 211.125 C-57.18971674 211.20056432 -60.18514022 211.1850472 -63.1875 211.125 C-61.46843646 215.26696203 -59.74496155 219.4070554 -58.01782227 223.5456543 C-57.43399992 224.94622128 -56.85127184 226.34724504 -56.26977539 227.7487793 C-55.42119714 229.7934488 -54.56890914 231.83652303 -53.71484375 233.87890625 C-53.43176361 234.55829254 -53.14868347 235.23767883 -52.85702515 235.93765259 C-51.37814916 239.44727665 -49.83312397 242.90362436 -48.15673828 246.32373047 C-47.8279921 246.99887192 -47.49924591 247.67401337 -47.16053772 248.36961365 C-46.5313997 249.64864203 -45.89044971 250.92195256 -45.23582458 252.18812561 C-43.40811272 255.90308614 -42.87234987 258.15527279 -44.1875 262.125 C-45.1775 262.125 -46.1675 262.125 -47.1875 262.125 C-49.09467262 257.950381 -50.99665892 253.77344864 -52.89428711 249.59448242 C-53.53779301 248.1791539 -54.18260644 246.764419 -54.82885742 245.3503418 C-58.9285518 236.37688488 -62.77420303 227.38681748 -66.1875 218.125 C-66.44442627 218.62427002 -66.70135254 219.12354004 -66.96606445 219.63793945 C-68.13819279 221.90753658 -69.3189853 224.17251521 -70.5 226.4375 C-71.10618164 227.61602539 -71.10618164 227.61602539 -71.72460938 228.81835938 C-72.12099609 229.57568359 -72.51738281 230.33300781 -72.92578125 231.11328125 C-73.28712158 231.80977783 -73.64846191 232.50627441 -74.02075195 233.22387695 C-75.21656452 235.17235832 -76.55364082 236.54040572 -78.1875 238.125 C-78.538125 238.82625 -78.88875 239.5275 -79.25 240.25 C-80.1875 242.125 -80.1875 242.125 -82.1875 243.125 C-78.49075063 252.08491796 -68.01182142 259.1881291 -60.6484375 265.04296875 C-57.39232366 267.79774443 -54.82138017 270.77926033 -52.1875 274.125 C-54.1675 277.095 -56.1475 280.065 -58.1875 283.125 C-61.61268707 281.75492517 -64.1609813 280.65401186 -67.17578125 278.7421875 C-67.88154297 278.29746094 -68.58730469 277.85273438 -69.31445312 277.39453125 C-70.39629883 276.70423828 -70.39629883 276.70423828 -71.5 276 C-72.24056641 275.53207031 -72.98113281 275.06414062 -73.74414062 274.58203125 C-75.56091968 273.43335804 -77.37453037 272.27967631 -79.1875 271.125 C-82.84641829 282.10175486 -81.41054608 295.62591531 -78.546875 306.57421875 C-77.62690721 310.70665471 -77.8574341 312.50902667 -79.91015625 316.33984375 C-81.85310334 319.38117058 -83.97982529 322.26999835 -86.1875 325.125 C-87.85416667 323.45833333 -89.52083333 321.79166667 -91.1875 320.125 C-94.1575 321.61 -94.1575 321.61 -97.1875 323.125 C-96.92453125 324.06601562 -96.6615625 325.00703125 -96.390625 325.9765625 C-93.85219335 336.02625503 -93.85219335 336.02625503 -94.87890625 339.390625 C-96 341 -96 341 -98.1875 343.125 C-101.55494963 339.75755037 -101.66809235 335.0692793 -102.5625 330.5 C-102.77946533 329.39406494 -102.99643066 328.28812988 -103.2199707 327.14868164 C-111.01539741 285.90513698 -116.28702704 239.45248383 -107.1875 198.125 C-108.1779834 197.84172852 -108.1779834 197.84172852 -109.18847656 197.55273438 C-115.51103195 195.69897289 -115.51103195 195.69897289 -118.25 193.375 C-120.08478814 188.97150847 -119.59270903 184.67476831 -117.83984375 180.3359375 C-116.9950295 178.39701955 -116.11441527 176.47693132 -115.23242188 174.5546875 C-113.53730147 170.66189335 -112.81723024 168.21231893 -114.1875 164.125 C-114.79335937 164.00382813 -115.39921875 163.88265625 -116.0234375 163.7578125 C-117.79002043 163.40449591 -119.55557983 163.04603885 -121.3203125 162.68359375 C-123.16218169 162.32475547 -125.01148952 162.00128146 -126.8671875 161.72265625 C-132.69967186 160.79194066 -136.34970384 159.77075325 -140.1875 155.125 C-141.48976594 148.49528248 -138.94768466 143.42241907 -136.28125 137.37109375 C-135.07095605 133.77911421 -134.99760154 130.88973696 -135.1875 127.125 C-136.41726562 126.94324219 -137.64703125 126.76148438 -138.9140625 126.57421875 C-140.54695672 126.32083861 -142.17976481 126.06690292 -143.8125 125.8125 C-144.62074219 125.69455078 -145.42898437 125.57660156 -146.26171875 125.45507812 C-157.14039179 123.73041045 -157.14039179 123.73041045 -160.60546875 119.3203125 C-163.05080875 112.741479 -161.29125849 108.56313094 -158.5390625 102.30078125 C-156.82544699 98.27428006 -155.9872584 94.41461322 -155.1875 90.125 C-156.2496875 90.01542969 -157.311875 89.90585938 -158.40625 89.79296875 C-175.85969537 87.88464287 -175.85969537 87.88464287 -181.75 83 C-183.87016954 78.75966092 -183.42363949 75.63204792 -182.1875 71.125 C-180.98064782 68.28140385 -179.67756536 65.5380145 -178.24609375 62.80078125 C-177.03532352 59.74034728 -177.00121828 57.3873184 -177.1875 54.125 C-182.1375 52.64 -182.1375 52.64 -187.1875 51.125 C-187.5175 49.475 -187.8475 47.825 -188.1875 46.125 C-183.07762523 42.30090716 -178.92626941 39.56403385 -172.375 40.0625 C-168.43397778 40.68682035 -165.31415753 41.51945206 -162.1875 44.125 C-160.30107291 47.89785418 -160.67191238 52.016754 -161.1875 56.125 C-162.31971612 59.24849132 -163.62632879 62.18828847 -165.09375 65.16796875 C-166.37750034 68.63867948 -166.37039682 71.4533464 -166.1875 75.125 C-165.1253125 75.23457031 -164.063125 75.34414062 -162.96875 75.45703125 C-144.87071629 77.44178371 -144.87071629 77.44178371 -140.1875 82.125 C-138.14885146 89.6523177 -140.7753519 96.0888229 -143.875 103 C-145.44565499 106.17474862 -145.44565499 106.17474862 -145.1875 110.125 C-141.38656929 111.8276474 -137.93639425 112.54823765 -133.8125 113.0625 C-128.74711384 113.79678021 -124.66486626 114.6375743 -120.1875 117.125 C-117.69020084 120.87094875 -117.8909371 122.67655657 -118.1875 127.125 C-118.98345589 130.67618781 -119.74633923 133.45443562 -121.75 136.5 C-123.79497187 140.23429646 -123.92221327 143.92615149 -124.1875 148.125 C-122.393125 148.2796875 -122.393125 148.2796875 -120.5625 148.4375 C-103.93941205 150.29039197 -103.93941205 150.29039197 -98.1875 154.125 C-97 157.25 -97 157.25 -96.1875 160.125 C-93.61750663 156.63209293 -93.61750663 156.63209293 -93.59765625 152.44921875 C-93.79230469 151.68222656 -93.98695313 150.91523438 -94.1875 150.125 C-94.74211914 149.96418945 -95.29673828 149.80337891 -95.86816406 149.63769531 C-98.39539333 148.89675524 -100.91627939 148.1361232 -103.4375 147.375 C-104.74654297 146.99601562 -104.74654297 146.99601562 -106.08203125 146.609375 C-110.71155912 145.19577871 -114.15720761 144.13280607 -117.1875 140.125 C-118.63406348 137.23187304 -118.48697586 135.35933934 -118.1875 132.125 C-117.36236677 130.09423168 -116.38127177 128.20787534 -115.34375 126.27734375 C-114.12501581 124.00868653 -113.01324783 121.71475153 -111.9375 119.375 C-111.60234375 118.65828125 -111.2671875 117.9415625 -110.921875 117.203125 C-109.96537273 114.86377153 -109.96537273 114.86377153 -110.1875 111.125 C-113.79524037 109.57598854 -117.29365661 108.58826046 -121.125 107.75 C-126.00717526 106.5369626 -129.51335861 105.60576553 -133.1875 102.125 C-134.91464894 98.23891489 -135.41455052 96.08996472 -134.4375 91.9375 C-133.41127739 89.62849912 -132.38538457 87.34964278 -131.1875 85.125 C-130.5275 85.125 -129.8675 85.125 -129.1875 85.125 C-128.70641725 83.70898286 -128.22771859 82.29215563 -127.75 80.875 C-127.48316406 80.08609375 -127.21632812 79.2971875 -126.94140625 78.484375 C-126.26795292 76.37678012 -125.69599405 74.27746027 -125.1875 72.125 C-126.23808594 71.89425781 -127.28867188 71.66351563 -128.37109375 71.42578125 C-144.66784953 67.69842468 -144.66784953 67.69842468 -150.1875 63.125 C-151.88360006 58.03669982 -151.7848055 53.89285689 -149.4375 49.08203125 C-148.70157469 47.69297223 -147.95124183 46.31146123 -147.1875 44.9375 C-146.43021733 43.55213322 -145.67993036 42.16291394 -144.9375 40.76953125 C-144.60234375 40.16471924 -144.2671875 39.55990723 -143.921875 38.93676758 C-142.93706665 36.83298304 -142.93706665 36.83298304 -143.1875 33.125 C-143.82558594 32.88265625 -144.46367187 32.6403125 -145.12109375 32.390625 C-145.94738281 32.05546875 -146.77367187 31.7203125 -147.625 31.375 C-148.44871094 31.05015625 -149.27242187 30.7253125 -150.12109375 30.390625 C-152.1875 29.125 -152.1875 29.125 -153.09765625 27.109375 C-153.12730469 26.45453125 -153.15695313 25.7996875 -153.1875 25.125 C-149.52107558 21.45857558 -144.73968069 20.31902259 -139.6875 19.6875 C-134.42950332 20.34474959 -129.95174945 22.36075055 -126.1875 26.125 C-124.69073497 33.43551552 -127.63450432 38.93625084 -131.1875 45.125 C-133.5215224 49.03883692 -133.5215224 49.03883692 -134.125 53.375 C-132.85477367 55.74608916 -131.65716805 56.08030116 -129.1875 57.125 C-127.23790563 57.61918687 -125.27829931 58.07482712 -123.3125 58.5 C-117.30401361 59.94350222 -113.57808602 61.73441398 -109.1875 66.125 C-108.3027312 73.77747399 -111.80574318 79.77167552 -115.59375 86.14453125 C-117.07344075 88.91169802 -117.77689893 91.03978921 -118.1875 94.125 C-117.42566406 94.29515625 -116.66382813 94.4653125 -115.87890625 94.640625 C-97.88295455 98.86439394 -97.88295455 98.86439394 -93.1875 105.125 C-91.43593067 109.65152749 -93.28322491 112.98519023 -94.9296875 117.30859375 C-96.08285955 119.89069638 -97.36032733 122.09877824 -98.9375 124.4375 C-101.17734587 127.75959556 -101.69665206 130.05178353 -101.1875 134.125 C-100.07375 134.2075 -98.96 134.29 -97.8125 134.375 C-92.55595636 135.01923004 -88.01307767 137.03890199 -83.1875 139.125 C-81.8571875 139.61806641 -81.8571875 139.61806641 -80.5 140.12109375 C-77.76819233 141.30703053 -76.76063361 142.64110482 -75.1875 145.125 C-72.8775 143.145 -70.5675 141.165 -68.1875 139.125 C-70.57008233 136.74241767 -72.96998007 136.10182543 -76.0859375 134.96875 C-80.09602974 133.35875014 -83.22428648 131.47349892 -85.75 127.9375 C-86.44119863 123.49408024 -85.17389344 120.10427837 -83.1875 116.125 C-81.46449833 113.78664059 -79.63410713 111.57341318 -77.7734375 109.34375 C-75.41653752 106.0464121 -74.83660047 103.09172512 -74.1875 99.125 C-76.04375 98.568125 -76.04375 98.568125 -77.9375 98 C-81.95190464 96.64697332 -85.78788632 95.0458988 -89.625 93.25 C-90.63433594 92.77820313 -91.64367187 92.30640625 -92.68359375 91.8203125 C-95.63089541 89.82479157 -96.25507965 88.50835383 -97.1875 85.125 C-97.75094124 81.95564305 -97.74108233 80.01554548 -96.01953125 77.24609375 C-94.98372728 75.8854361 -93.92664474 74.54077857 -92.8515625 73.2109375 C-91.21895744 71.16443256 -89.77890061 69.08347524 -88.375 66.875 C-87.97667969 66.25109375 -87.57835937 65.6271875 -87.16796875 64.984375 C-86.14496596 63.04433783 -85.62812661 61.2665401 -85.1875 59.125 C-88.53842096 57.33511783 -91.98907157 56.09110434 -95.5625 54.8125 C-104.71228174 51.27595515 -104.71228174 51.27595515 -108.1875 47.125 C-109.55703208 43.56572156 -109.79712369 40.61394264 -108.33984375 37.0546875 C-107.25 35.125 -107.25 35.125 -105.1875 32.125 C-104.5275 32.125 -103.8675 32.125 -103.1875 32.125 C-102.7853125 31.320625 -102.7853125 31.320625 -102.375 30.5 C-101.47452752 28.69905503 -100.50298241 26.93343235 -99.5 25.1875 C-98.03666703 22.26757163 -98.03666703 22.26757163 -98.0625 19.4375 C-99.07118647 16.72313825 -99.07118647 16.72313825 -102.6875 15.625 C-103.8425 15.13 -104.9975 14.635 -106.1875 14.125 C-106.90625 11.53125 -106.90625 11.53125 -107.1875 9.125 C-95.31150416 5.32382231 -95.31150416 5.32382231 -89.1875 7.125 C-84.81782271 9.47790315 -82.26439345 11.60431709 -80.1875 16.125 C-81.10301026 22.65885216 -84.38215267 27.87395507 -88.859375 32.5546875 C-90.78412812 34.83042502 -91.48999706 37.26523795 -92.1875 40.125 C-90.12057121 42.39548695 -88.38909572 43.65876015 -85.53515625 44.7734375 C-84.84099609 45.05703125 -84.14683594 45.340625 -83.43164062 45.6328125 C-81.98325843 46.2085347 -80.53273503 46.77890051 -79.08007812 47.34375 C-74.57814135 49.19626152 -71.86688711 50.86388818 -69.1875 55.125 C-68.14491978 59.60809494 -69.64487586 62.25918752 -71.875 66.0625 C-73.82280082 69.1391925 -75.87746762 72.08871044 -78.0625 75 C-80.56237335 78.04644198 -80.56237335 78.04644198 -80.1875 82.125 C-79.5275 82.455 -78.8675 82.785 -78.1875 83.125 C-78.1875 83.785 -78.1875 84.445 -78.1875 85.125 C-76.888125 85.351875 -75.58875 85.57875 -74.25 85.8125 C-68.31339367 87.13487203 -62.55241218 89.48680908 -58.4296875 94.0859375 C-57.1875 96.125 -57.1875 96.125 -57.1875 99.375 C-58.69959478 105.04535543 -61.58750403 109.30278236 -65.4375 113.6875 C-67.66416178 116.78892177 -67.89272405 119.36660659 -68.1875 123.125 C-64.61577888 125.43611367 -61.23983028 126.85864679 -57.1875 128.125 C-56.32125 128.516875 -55.455 128.90875 -54.5625 129.3125 C-51.92999574 130.21309356 -50.75687977 130.07662214 -48.1875 129.125 C-48.5175 128.609375 -48.8475 128.09375 -49.1875 127.5625 C-50.57249723 124.18656926 -50.56258781 121.75084884 -50.1875 118.125 C-47.86257802 113.56815293 -44.74246007 110.75872781 -40.875 107.56640625 C-38.58883134 105.61363719 -36.79426684 103.6690475 -35.1875 101.125 C-35.24592505 99.091989 -35.24592505 99.091989 -36.1875 97.125 C-37.9488517 95.58369474 -37.9488517 95.58369474 -40.1875 94.3125 C-40.991875 93.79816406 -41.79625 93.28382812 -42.625 92.75390625 C-43.470625 92.21636719 -44.31625 91.67882812 -45.1875 91.125 C-54.54224428 85.06438061 -54.54224428 85.06438061 -55.6875 80.1875 C-55.73561123 76.62039571 -54.52307205 74.80754 -52.25 72.125 C-50.20227953 70.02360944 -48.07979002 68.02420889 -45.9375 66.01953125 C-45.215625 65.33246094 -44.49375 64.64539063 -43.75 63.9375 C-43.07066406 63.32519531 -42.39132813 62.71289062 -41.69140625 62.08203125 C-40.015518 60.19080737 -40.015518 60.19080737 -39.65234375 57.63671875 C-40.42343471 54.01765679 -42.15773604 53.15037645 -45.1875 51.125 C-47.9861898 49.33760147 -50.82007357 47.62043511 -53.6640625 45.90625 C-56.15061444 44.15103686 -57.61556735 42.71224652 -59.1875 40.125 C-59.82785553 35.91694937 -59.18806878 33.22280193 -56.66796875 29.765625 C-54.09875069 26.91847042 -51.16180137 24.49576758 -48.2109375 22.0546875 C-46.17001071 20.10832103 -45.07014137 18.79369214 -44.1875 16.125 C-44.22351189 14.00699234 -44.22351189 14.00699234 -45.1875 12.125 C-46.80142464 10.68766495 -46.80142464 10.68766495 -48.75 9.5625 C-50.69140625 8.37109375 -50.69140625 8.37109375 -52.1875 7.125 C-52.1875 6.135 -52.1875 5.145 -52.1875 4.125 C-45.9683557 2.46656152 -39.54305764 1.92580702 -33.75 4.875 C-29.28935185 8.79166667 -29.28935185 8.79166667 -28.1875 11.125 C-28.1875 16.52099528 -28.84952656 19.61469023 -32.65234375 23.68359375 C-34.90256521 25.79639711 -37.23235353 27.79524796 -39.63671875 29.73046875 C-41.4415202 31.23759341 -41.4415202 31.23759341 -43.1875 34.125 C-43.1875 35.445 -43.1875 36.765 -43.1875 38.125 C-39.80973533 40.88235892 -36.37894351 43.04482859 -32.5625 45.125 C-29.04681131 47.20837108 -26.6435998 48.85020027 -24.1875 52.125 C-23.35276274 56.36824772 -23.15223855 58.53415835 -25.51953125 62.171875 C-27.32008527 64.26913432 -29.20070614 66.20353592 -31.1875 68.125 C-32.48016969 69.39481306 -33.77188954 70.66559404 -35.0625 71.9375 C-35.63742188 72.48019531 -36.21234375 73.02289063 -36.8046875 73.58203125 C-38.43005046 75.18988866 -38.43005046 75.18988866 -39.1875 78.125 C-36.12368605 81.49519535 -32.97488218 84.01873585 -29.1875 86.5625 C-25.0330197 89.43772329 -21.81565681 91.77494736 -19.1875 96.125 C-18.8207003 101.0767959 -20.34497863 103.65708548 -23.4375 107.3125 C-26.16008378 110.20838994 -29.03867056 112.695903 -32.1875 115.125 C-34.55730013 118.07877498 -34.55730013 118.07877498 -34.1875 122.125 C-33.16914063 121.99222656 -32.15078125 121.85945313 -31.1015625 121.72265625 C-20.47330139 120.38160673 -9.88773836 119.60056615 0.8125 119.125 C1.47767746 116.23907444 1.47767746 116.23907444 1.8125 113.125 C0.18920605 110.99792517 -1.11581496 109.7572367 -3.1875 108.125 C-4.00992188 107.47015625 -4.83234375 106.8153125 -5.6796875 106.140625 C-7.43668246 104.74521451 -9.20324548 103.36174187 -10.98046875 101.9921875 C-13.81015747 99.59822076 -15.07857864 97.96006373 -15.5625 94.25 C-15.04359939 89.92582829 -13.00901525 87.60508892 -9.64013672 84.86767578 C-7.32514744 83.16242319 -4.98513084 81.50025026 -2.61328125 79.875 C0.85455559 77.37169778 0.85455559 77.37169778 2.421875 73.5234375 C1.66271833 70.53547472 0.71849657 69.64703576 -1.6875 67.75 C-2.41066406 67.15445313 -3.13382813 66.55890625 -3.87890625 65.9453125 C-5.4014361 64.74480673 -6.92998908 63.55189522 -8.46484375 62.3671875 C-12.01969157 59.50016738 -13.92344247 57.93107035 -15.375 53.5 C-15.15877727 49.60799088 -14.45240366 48.25701112 -12.1875 45.125 C-9.33984375 42.73828125 -9.33984375 42.73828125 -6.125 40.4375 C-0.63430134 37.05670664 -0.63430134 37.05670664 2.26171875 31.78125 C1.61029971 27.92938088 -0.29872814 26.93321984 -3.375 24.625 C-7.26898797 21.66410955 -10.78977098 18.64946491 -14.1875 15.125 C-14.5175 14.795 -14.8475 14.465 -15.1875 14.125 C-15.77874151 9.88776918 -15.39841523 8.4214214 -12.875 4.875 C-8.45292357 0.35008458 -6.20411675 -0.113837 0 0 Z M-18.9375 126 C-20.08734375 126.16242188 -21.2371875 126.32484375 -22.421875 126.4921875 C-23.79085937 126.80542969 -23.79085937 126.80542969 -25.1875 127.125 C-25.5175 127.785 -25.8475 128.445 -26.1875 129.125 C-25.24777344 129.73988281 -25.24777344 129.73988281 -24.2890625 130.3671875 C-23.47179687 130.90601563 -22.65453125 131.44484375 -21.8125 132 C-21.00039062 132.53367188 -20.18828125 133.06734375 -19.3515625 133.6171875 C-17.1875 135.125 -17.1875 135.125 -15.1875 137.125 C-14.795625 136.073125 -14.40375 135.02125 -14 133.9375 C-12.42347443 130.20841068 -10.21854575 127.82836513 -7.1875 125.125 C-11.1893562 125.01968799 -14.97889724 125.41785253 -18.9375 126 Z M-0.1875 133.125 C-0.5175 134.775 -0.8475 136.425 -1.1875 138.125 C-0.1975 138.62 -0.1975 138.62 0.8125 139.125 C0.8125 137.145 0.8125 135.165 0.8125 133.125 C0.4825 133.125 0.1525 133.125 -0.1875 133.125 Z M-46.1875 134.125 C-46.50436329 136.28292469 -46.50436329 136.28292469 -46.5625 138.8125 C-46.9697496 143.67878764 -48.07648259 146.25724863 -51.1875 150.125 C-56.40654035 155.96233773 -56.40654035 155.96233773 -58.1875 163.125 C-56.7040529 165.39348297 -55.07474179 167.14569764 -53.1875 169.125 C-55.3912884 171.65935666 -56.85328661 172.66191481 -60.1875 173.125 C-63.88256822 173.25465152 -66.66965817 173.29761394 -70.1875 172.125 C-70.5175 171.465 -70.8475 170.805 -71.1875 170.125 C-71.8475 170.125 -72.5075 170.125 -73.1875 170.125 C-73.83727289 159.51204275 -68.7444142 153.86558517 -62.1875 146.125 C-62.5175 145.465 -62.8475 144.805 -63.1875 144.125 C-64.95999524 145.5604503 -66.73043576 146.99843803 -68.5 148.4375 C-69.48613281 149.23800781 -70.47226563 150.03851563 -71.48828125 150.86328125 C-72.37902344 151.60964844 -73.26976562 152.35601562 -74.1875 153.125 C-74.79851562 153.59808594 -75.40953125 154.07117188 -76.0390625 154.55859375 C-78.69051552 158.17503137 -77.18223148 163.58575792 -76.59619141 167.77148438 C-74.2650639 181.19565949 -70.15098946 194.45272825 -65.1875 207.125 C-47.84535072 208.48221168 -32.10929876 202.47604727 -18.44921875 192.03125 C-12.23217486 186.69406769 -0.43825025 176.48855307 1.18237305 168.24316406 C2.18831484 158.42462471 2.18831484 158.42462471 -1.0234375 149.55859375 C-3.33092242 147.8452287 -5.6602433 146.48615671 -8.1875 145.125 C-9.828125 143.65234375 -9.828125 143.65234375 -11.125 142.25 C-13.00561063 140.07829868 -13.00561063 140.07829868 -15.1875 139.125 C-15.47625 140.1975 -15.765 141.27 -16.0625 142.375 C-16.91570109 145.21900364 -17.7511503 147.56008983 -19.1875 150.125 C-19.8475 150.125 -20.5075 150.125 -21.1875 150.125 C-21.1875 150.785 -21.1875 151.445 -21.1875 152.125 C-21.77917969 152.38539063 -22.37085938 152.64578125 -22.98046875 152.9140625 C-25.32777546 154.2019653 -26.73774768 155.49724178 -28.5 157.5 C-29.03238281 158.08523437 -29.56476563 158.67046875 -30.11328125 159.2734375 C-31.39909818 161.07438018 -31.39909818 161.07438018 -30.98046875 163.2265625 C-30.24827537 165.31751754 -30.24827537 165.31751754 -28.1875 167.125 C-27.5625 169.25 -27.5625 169.25 -27.1875 171.125 C-29.45774968 171.20597324 -31.72882075 171.26417704 -34 171.3125 C-35.89685547 171.36470703 -35.89685547 171.36470703 -37.83203125 171.41796875 C-41.1875 171.125 -41.1875 171.125 -43.05859375 169.8359375 C-45.17193521 166.63301861 -45.91929093 163.83399161 -45.1875 160.125 C-42.11320887 155.64137092 -38.22462692 151.97656685 -34.21484375 148.33203125 C-31.08096896 145.51485535 -31.08096896 145.51485535 -29.8125 141.625 C-31.95748823 137.7250214 -35.24876204 135.15722118 -39.1875 133.125 C-42.03221905 132.87671831 -43.62816778 132.84533389 -46.1875 134.125 Z M-81.1875 160.125 C-83.55108436 163.13319828 -85.05407421 165.39857071 -85.75 169.1875 C-85.00103518 173.09876072 -83.1658594 174.59339451 -80.1875 177.125 C-80.8125 179 -80.8125 179 -82.1875 181.125 C-85.66077467 182.74047659 -88.09221568 183.12658807 -91.9375 183.0625 C-93.01 183.083125 -94.0825 183.10375 -95.1875 183.125 C-97.43371573 185.87105843 -97.43371573 185.87105843 -97.125 188.625 C-97.1875 191.125 -97.1875 191.125 -98.62060547 192.52294922 C-100.49308026 194.43743653 -100.79656045 195.65529262 -101.3203125 198.2578125 C-101.48660156 199.06476563 -101.65289062 199.87171875 -101.82421875 200.703125 C-101.98535156 201.54359375 -102.14648438 202.3840625 -102.3125 203.25 C-102.48136719 204.06726563 -102.65023437 204.88453125 -102.82421875 205.7265625 C-104.80015044 215.55954542 -105.42677679 225.30071368 -105.8125 235.3125 C-105.8640625 236.46169922 -105.915625 237.61089844 -105.96875 238.79492188 C-106.01257813 239.90802734 -106.05640625 241.02113281 -106.1015625 242.16796875 C-106.1423291 243.16852295 -106.1830957 244.16907715 -106.22509766 245.19995117 C-106.18563762 248.26989109 -105.76661756 251.11386846 -105.1875 254.125 C-101.19076555 252.8287618 -99.45681307 251.63760693 -97.1875 248.125 C-96.39533588 246.27573392 -95.66755783 244.3978081 -95 242.5 C-94.48373047 241.05753906 -94.48373047 241.05753906 -93.95703125 239.5859375 C-93.0880175 237.23659924 -93.0880175 237.23659924 -93.1875 235.125 C-91.3125 235.375 -91.3125 235.375 -89.1875 236.125 C-87.9375 238.1875 -87.9375 238.1875 -87.1875 240.125 C-85.27283633 240.00322312 -85.27283633 240.00322312 -83.1875 239.125 C-82.13488773 237.49105227 -81.14165786 235.81832825 -80.1875 234.125 C-79.71570313 233.36960937 -79.24390625 232.61421875 -78.7578125 231.8359375 C-76.07833967 227.50533007 -73.54059575 223.11178905 -71.25 218.5625 C-70.82847656 217.73621094 -70.40695313 216.90992188 -69.97265625 216.05859375 C-68.05623625 208.89823842 -70.72918107 201.86237996 -73 195.0625 C-76.64702011 183.63062164 -78.47794927 171.97829431 -80.1875 160.125 C-80.5175 160.125 -80.8475 160.125 -81.1875 160.125 Z M-102.1875 176.125 C-103.54189668 178.83379335 -103.25251451 181.13433268 -103.1875 184.125 C-101.52128575 182.9604799 -101.52128575 182.9604799 -100.1875 181.125 C-100.41793864 178.47033951 -100.41793864 178.47033951 -101.1875 176.125 C-101.5175 176.125 -101.8475 176.125 -102.1875 176.125 Z M-105.1875 258.125 C-105.33015531 265.08030908 -104.9317189 271.82798674 -104.12890625 278.734375 C-104.0202977 279.7048175 -103.91168915 280.67526001 -103.79978943 281.67510986 C-103.57116975 283.7089908 -103.33994157 285.7425801 -103.10620117 287.77587891 C-102.74943391 290.87992529 -102.40038373 293.98476418 -102.05273438 297.08984375 C-101.82857002 299.07557112 -101.60397561 301.06125 -101.37890625 303.046875 C-101.27469864 303.96885681 -101.17049103 304.89083862 -101.06312561 305.84075928 C-100.55012872 310.29336053 -99.97995523 314.71125624 -99.1875 319.125 C-94.77227891 317.85525028 -94.77227891 317.85525028 -91.1875 315.125 C-91.51363281 314.16722656 -91.83976562 313.20945312 -92.17578125 312.22265625 C-98.46389006 293.30298099 -99.63595436 276.06627064 -99.1875 256.125 C-101.65028801 256.125 -103.03974119 256.97952863 -105.1875 258.125 Z " fill="#FFFFFF" fill-opacity="1" transform="translate(259.1875,20.875)"/>
<path d="M0 0 C2.80620976 2.80620976 4.33937322 6.18880724 6.125 9.6875 C6.49753906 10.38294922 6.87007812 11.07839844 7.25390625 11.79492188 C9.58859772 16.374509 10.50517079 19.74751908 10 25 C8.61730475 29.14808575 6.49423642 29.80474921 2.75 31.796875 C-1.99668582 33.87355005 -6.9509061 34.91857323 -12 36 C-13.3347533 36.32760114 -14.66873788 36.65848858 -16 37 C-15.566875 38.15628906 -15.566875 38.15628906 -15.125 39.3359375 C-14.75375 40.33882812 -14.3825 41.34171875 -14 42.375 C-13.62875 43.37273437 -13.2575 44.37046875 -12.875 45.3984375 C-12 48 -12 48 -12 50 C-11.34 50 -10.68 50 -10 50 C-7.70499763 54.34375985 -6.01905296 57.83776969 -5.9375 62.8125 C-7.26337713 66.7901314 -8.41255227 67.86279709 -12 70 C-17.15105487 72.35539689 -22.50632883 73.69641701 -28 75 C-28.99 75.33 -29.98 75.66 -31 76 C-30.41456617 81.85433832 -28.75743529 85.8581103 -25.9140625 90.94140625 C-23.6766564 95.12265808 -22.33609612 98.13137154 -23 103 C-24.56610588 106.90780705 -26.53122636 108.19790564 -30.359375 109.984375 C-35.77584287 112.06763187 -41.39446894 113.51988787 -47 115 C-48.06312885 118.99232194 -48.06312885 118.99232194 -46.5625 122.8125 C-46.046875 123.534375 -45.53125 124.25625 -45 125 C-44.814375 124.071875 -44.62875 123.14375 -44.4375 122.1875 C-43 119 -43 119 -40.1875 117.25 C-34.68154693 115.28358819 -28.76396969 114.7779591 -23 114 C-20.9988327 113.6737477 -18.99843537 113.34258892 -17 113 C-17.29536818 106.48713161 -18.5985686 102.52732602 -22 97 C-23.1953812 93.015396 -23.37638832 89.14027148 -23 85 C-20.41431182 80.76887388 -16.2915089 79.84060468 -11.73828125 78.5859375 C-8.20976933 77.83090642 -4.72871519 77.49927384 -1.12890625 77.30859375 C1.2963981 77.1126688 1.2963981 77.1126688 4 75 C3.63477149 70.70856506 2.86611196 67.45699452 1 63.5625 C-1.4007569 58.41927262 -2.64077516 53.88348824 -1.375 48.1875 C0.81963317 44.69603813 3.24392851 43.47098898 7.19921875 42.41015625 C13.08404928 41.14450196 19.00551266 40.48466068 25 40 C25.57521807 34.93808094 24.62635439 31.82954128 22.5 27.1875 C20.07934536 21.72902664 18.92762863 16.94883909 20 11 C22.84529689 6.73205467 26.17830176 6.2321205 31 5 C37.37002757 3.78020749 41.89541085 7.6103914 47 11 C46.67 12.65 46.34 14.3 46 16 C42.7 16.99 39.4 17.98 36 19 C35.74065267 23.54190318 36.33787314 26.29763278 38.4375 30.3125 C40.74197472 35.15189692 42.52610825 39.56354804 42 45 C40.07083414 48.85833172 38.30662333 49.84937801 34.4375 51.75 C30.22352291 53.15465903 26.02952855 53.52063647 21.61328125 53.7890625 C19.01026872 53.99917113 16.54838945 54.43981349 14 55 C15.81368041 64.16941434 15.81368041 64.16941434 19.375 72.75 C20.95007221 76.09087582 21.22218346 78.19432063 20.375 81.8125 C18.83974375 85.40938608 17.24248021 86.8509799 13.6875 88.4375 C7.30523168 90.5081915 0.64831076 91.27194291 -6 92 C-6.26195567 97.19327125 -5.58972297 100.69498982 -3.5 105.4375 C0.09709657 114.41478112 0.09709657 114.41478112 -1 120 C-5.6487277 124.92088423 -9.5981896 125.92328963 -16.1875 126.6875 C-17.78600839 126.8932233 -19.38372578 127.1052141 -20.98046875 127.32421875 C-22.03077271 127.4492981 -22.03077271 127.4492981 -23.10229492 127.5769043 C-25.31689911 127.95101601 -25.31689911 127.95101601 -28 130 C-27.41026814 134.50772058 -26.19959262 138.25566765 -24.4375 142.4375 C-21.00634553 151.23045854 -21.00634553 151.23045854 -22 156 C-24.1727422 158.63016161 -25.94673788 160.47336894 -29 162 C-31.05859375 161.94921875 -31.05859375 161.94921875 -33.4375 161.6875 C-34.21996094 161.60886719 -35.00242187 161.53023437 -35.80859375 161.44921875 C-38 161 -38 161 -41 159 C-40.85900879 159.5983667 -40.71801758 160.1967334 -40.57275391 160.81323242 C-33.98558594 188.90175824 -31.67854477 215.23472497 -35 244 C-35.07647766 244.66447144 -35.15295532 245.32894287 -35.23175049 246.0135498 C-40.81453062 294.04573976 -51.54575184 339.07278135 -83 377 C-83.46583496 377.56348145 -83.93166992 378.12696289 -84.41162109 378.70751953 C-87.14868776 382.00656947 -89.92055177 385.27294241 -92.72412109 388.515625 C-93.91888556 389.90563035 -95.09493503 391.31166055 -96.26953125 392.71875 C-104.72578667 402.59199958 -115.70460057 412.28241251 -129 414 C-152.1320662 415.25560276 -171.33592664 410.17435222 -189.0625 394.6875 C-200.65578879 383.96099916 -210.23582837 371.34652814 -219.4375 358.5625 C-219.83831787 358.00788086 -220.23913574 357.45326172 -220.65209961 356.88183594 C-221.7948498 355.27325281 -222.89778396 353.63662381 -224 352 C-224.41008301 351.40944824 -224.82016602 350.81889648 -225.24267578 350.21044922 C-228.14603455 345.7139467 -228.14603455 345.7139467 -227.47265625 342.421875 C-226.98667969 341.62265625 -226.50070313 340.8234375 -226 340 C-225.19369141 338.61554688 -225.19369141 338.61554688 -224.37109375 337.203125 C-219.87637416 330.33846235 -215.04920671 324.54510615 -209 319 C-209.33 318.01 -209.66 317.02 -210 316 C-208.56640625 313.30078125 -208.56640625 313.30078125 -206.5625 310.3125 C-205.90378906 309.31863281 -205.24507812 308.32476562 -204.56640625 307.30078125 C-204.04949219 306.54152344 -203.53257812 305.78226562 -203 305 C-202.28714844 305.28875 -201.57429688 305.5775 -200.83984375 305.875 C-192.84616731 308.973491 -186.95924086 310.24972687 -178.859375 306.921875 C-174.90299624 304.96030906 -172.43020202 302.64530303 -170 299 C-170.23605837 293.06165654 -172.38784129 288.51398387 -175 283.3125 C-175.73241326 281.83102772 -176.46169522 280.34800234 -177.1875 278.86328125 C-177.51105469 278.21657471 -177.83460938 277.56986816 -178.16796875 276.90356445 C-179.03056138 274.93008008 -179.63332026 273.12310055 -180 271 C-179.00390625 269.078125 -179.00390625 269.078125 -177.5625 267.25 C-176.85287109 266.32960938 -176.85287109 266.32960938 -176.12890625 265.390625 C-175.75636719 264.93171875 -175.38382813 264.4728125 -175 264 C-174.34 264.33 -173.68 264.66 -173 265 C-173.495 263.515 -173.495 263.515 -174 262 C-173.34 261.01 -172.68 260.02 -172 259 C-171.34 259 -170.68 259 -170 259 C-168.36694529 261.53457376 -166.85562552 264.06538509 -165.375 266.6875 C-164.47471625 268.24522995 -163.5736653 269.80251673 -162.671875 271.359375 C-161.99801758 272.53016602 -161.99801758 272.53016602 -161.31054688 273.72460938 C-159.43780684 276.97608798 -157.55010191 280.21674589 -155.625 283.4375 C-155.01914063 284.46746094 -154.41328125 285.49742187 -153.7890625 286.55859375 C-151.96673913 289.04538875 -150.8809181 290.01005489 -148 291 C-147.34 291 -146.68 291 -146 291 C-146.01332367 289.66029144 -146.01332367 289.66029144 -146.0269165 288.29351807 C-146.10705934 279.87718257 -146.16796282 271.46097519 -146.20724869 263.04434586 C-146.22812503 258.71722386 -146.25644312 254.39041712 -146.30175781 250.06347656 C-146.34521452 245.88782401 -146.36913675 241.7124747 -146.37950897 237.53661346 C-146.38690072 235.9433693 -146.40133521 234.35014176 -146.42292023 232.75702667 C-146.45195327 230.52547831 -146.45595626 228.29518336 -146.45410156 226.06347656 C-146.46298401 224.79328674 -146.47186646 223.52309692 -146.48101807 222.2144165 C-146 219 -146 219 -142 215 C-141.67 240.08 -141.34 265.16 -141 291 C-140.01 291.33 -139.02 291.66 -138 292 C-138 291.34 -138 290.68 -138 290 C-137.24404541 289.25041016 -136.48809082 288.50082031 -135.70922852 287.72851562 C-133.03472015 285.03496733 -131.45019107 282.6645478 -129.65234375 279.34375 C-129.05260742 278.24828857 -128.45287109 277.15282715 -127.83496094 276.02416992 C-127.20241924 274.84947608 -126.56993343 273.67475214 -125.9375 272.5 C-124.94551411 270.68030162 -123.95040497 268.86233537 -122.95504761 267.04447937 C-122.28377989 265.81820753 -121.61347309 264.5914092 -120.94412231 263.36408997 C-117.31980646 256.72668243 -113.55279856 250.1726894 -109.76928711 243.625 C-107.37808375 239.47183504 -105.0848683 235.31567738 -103 231 C-104.41539062 230.87044922 -104.41539062 230.87044922 -105.859375 230.73828125 C-118.1425825 229.39403465 -129.31762613 226.11111145 -139 218 C-141.0625 215.125 -141.0625 215.125 -142 213 C-141.01 212.34 -140.02 211.68 -139 211 C-138.41734375 211.51949219 -137.8346875 212.03898438 -137.234375 212.57421875 C-127.98134702 220.44511205 -116.65363425 226.16791015 -104.26171875 226.04296875 C-103.46080811 226.03676514 -102.65989746 226.03056152 -101.8347168 226.02416992 C-101.22926025 226.01619385 -100.62380371 226.00821777 -100 226 C-91.63194095 207.80581101 -85.31761984 188.97538221 -79 170 C-80.86869751 170.01703979 -80.86869751 170.01703979 -82.77514648 170.03442383 C-91.40847447 170.11314718 -100.29151127 167.85424436 -108 164 C-107.67 163.01 -107.34 162.02 -107 161 C-102.16767048 161.94830684 -97.35043167 162.90888603 -92.5625 164.0625 C-87.42665386 165.23141122 -82.24509792 165.62745099 -77 166 C-76.89042969 165.319375 -76.78085937 164.63875 -76.66796875 163.9375 C-75.24938743 155.26454754 -73.64324392 146.63250808 -72 138 C-72.66 138.33 -73.32 138.66 -74 139 C-79.61842146 139.44066051 -83.10403706 138.54590073 -88 136 C-88.33 135.34 -88.66 134.68 -89 134 C-87.625 132 -87.625 132 -86 130 C-85.34 130 -84.68 130 -84 130 C-83.77570313 128.99839844 -83.55140625 127.99679688 -83.3203125 126.96484375 C-82.04793451 122.51152079 -79.63982632 119.22182895 -76.875 115.5625 C-76.17310547 114.60827148 -76.17310547 114.60827148 -75.45703125 113.63476562 C-74.31372882 112.0831409 -73.15811895 110.54059735 -72 109 C-70.02 110.65 -68.04 112.3 -66 114 C-65.690625 112.7625 -65.38125 111.525 -65.0625 110.25 C-63.71360754 106.70915728 -62.50651933 105.27848719 -59.0625 103.6875 C-53.19073841 101.51456191 -46.30420205 99 -40 99 C-39.58452531 93.90099248 -40.6301607 91.4069818 -43.4375 87.1875 C-46.46129686 82.21147585 -48.94768654 77.94873119 -48 72 C-46.56671542 68.37795572 -44.59717163 65.91118469 -41.19921875 63.97265625 C-36.95287059 62.26220338 -32.45824307 61.33316763 -27.98046875 60.4296875 C-25.80536206 59.99505898 -25.80536206 59.99505898 -23 59 C-23.45445964 57.58208592 -23.91374944 56.16571954 -24.375 54.75 C-24.63023437 53.96109375 -24.88546875 53.1721875 -25.1484375 52.359375 C-25.91864326 49.99993191 -25.91864326 49.99993191 -27.1640625 48.015625 C-28.29505843 45.28855069 -27.75501437 43.8299309 -27 41 C-25.39634199 37.82182832 -23.39924961 34.90527505 -21.4375 31.9375 C-20.68629883 30.73383789 -20.68629883 30.73383789 -19.91992188 29.50585938 C-16.27567606 23.96826012 -13.16204544 21.46883254 -7 19 C-7.36931641 17.46666016 -7.36931641 17.46666016 -7.74609375 15.90234375 C-8.06225246 11.04322761 -6.89547113 9.44149124 -4.0625 5.5625 C-3.31097656 4.51191406 -2.55945313 3.46132813 -1.78515625 2.37890625 C-1.19605469 1.59386719 -0.60695313 0.80882812 0 0 Z M-73 118 C-72.01 118.99 -71.02 119.98 -70 121 C-70.33 120.01 -70.66 119.02 -71 118 C-71.66 118 -72.32 118 -73 118 Z M-66 125 C-66.176521 126.03930664 -66.35304199 127.07861328 -66.53491211 128.14941406 C-67.19123213 132.01117112 -67.84958386 135.87257952 -68.50854492 139.73388672 C-68.793278 141.40403987 -69.07746255 143.07428662 -69.36108398 144.74462891 C-69.76922185 147.14771035 -70.17934146 149.55044647 -70.58984375 151.953125 C-70.71592514 152.69806213 -70.84200653 153.44299927 -70.97190857 154.21051025 C-71.53733296 157.5094714 -72.14637367 160.76325212 -73 164 C-74.50365363 176.22642954 -68.43674581 188.60499504 -61.3515625 198.2421875 C-59.62691168 200.39335165 -59.62691168 200.39335165 -57 203 C-56.34 203 -55.68 203 -55 203 C-54.67 201.68 -54.34 200.36 -54 199 C-52.68 199.33 -51.36 199.66 -50 200 C-49.835 201.258125 -49.67 202.51625 -49.5 203.8125 C-48.84263405 206.58422955 -48.53392037 207.66548254 -46.0859375 209.19921875 C-44.06847456 209.92992529 -42.09332555 210.5326529 -40 211 C-38.66393759 189.91990415 -44.38820618 168.83538147 -51 149 C-53.06407364 147.86913717 -53.06407364 147.86913717 -55.5 147 C-57.96875 146.0625 -57.96875 146.0625 -60 145 C-60.33 144.01 -60.66 143.02 -61 142 C-59.68 140.68 -58.36 139.36 -57 138 C-58.57096721 132.97290493 -61.61993049 128.97133531 -65 125 C-65.33 125 -65.66 125 -66 125 Z M-40 141 C-42.67596869 144.89540619 -42.67596869 144.89540619 -45 149 C-44.01 150.485 -44.01 150.485 -43 152 C-40.39056942 150.9354148 -40.39056942 150.9354148 -38 149 C-37.41654524 145.95746492 -37.41654524 145.95746492 -38 143 C-38.66 142.34 -39.32 141.68 -40 141 Z M-76 176 C-76.52787109 177.54772095 -76.52787109 177.54772095 -77.06640625 179.12670898 C-78.40605866 183.04596916 -79.75866895 186.96066337 -81.11474609 190.87426758 C-81.69399877 192.55148044 -82.26997848 194.22982813 -82.84228516 195.90942383 C-86.20089258 205.75799409 -89.76711657 215.27486192 -94.59912109 224.51109314 C-96.06804884 227.41994595 -97.02836562 229.49407249 -96.84375 232.78686523 C-96.0048988 235.23304786 -96.0048988 235.23304786 -94 238 C-89.85606903 236.29966469 -86.75559584 233.35898005 -83.4375 230.4375 C-79.04775353 226.61074755 -74.62412801 222.87023941 -70.0625 219.25 C-65.50569668 215.56276417 -61.65375602 211.57654765 -58 207 C-58.86625 206.05125 -59.7325 205.1025 -60.625 204.125 C-66.23511204 197.54899603 -70.14015301 190.30678093 -73.140625 182.2265625 C-73.97290832 180.07019207 -74.95312997 178.05862831 -76 176 Z M-46 213 C-45.9278125 213.99515625 -45.855625 214.9903125 -45.78125 216.015625 C-44.30804692 237.53901751 -44.66316062 257.19179693 -51 278 C-49.68 278.66 -48.36 279.32 -47 280 C-44.82215198 269.96978464 -43.20789714 259.99086527 -42.06469727 249.79370117 C-41.81290314 247.56606662 -41.54469069 245.34081231 -41.27539062 243.11523438 C-40.13895756 233.37133586 -39.78324066 223.80566101 -40 214 C-42.97 213.505 -42.97 213.505 -46 213 Z M-100 236 C-101.53064939 238.61970793 -103.04969748 241.24501643 -104.5625 243.875 C-105.00013672 244.62136719 -105.43777344 245.36773437 -105.88867188 246.13671875 C-106.29794922 246.85214844 -106.70722656 247.56757813 -107.12890625 248.3046875 C-107.70233765 249.2944458 -107.70233765 249.2944458 -108.28735352 250.30419922 C-108.52252686 250.86381348 -108.7577002 251.42342773 -109 252 C-108.67 252.66 -108.34 253.32 -108 254 C-104.04 250.04 -100.08 246.08 -96 242 C-97.485 239.03 -97.485 239.03 -99 236 C-99.33 236 -99.66 236 -100 236 Z M-65 236 C-91.85966801 248.98423386 -108.07393484 266.90982302 -120.19921875 294.07421875 C-121.24714386 296.88584657 -121.24714386 296.88584657 -120.3359375 299.203125 C-115.92527257 305.1355983 -110.28980134 308.71139875 -103 310 C-94.80874888 310.46766659 -88.96101468 306.64067645 -82.375 302.25 C-72.60133705 292.99074036 -66.76310853 281.08003896 -64 268 C-63.7215625 266.700625 -63.7215625 266.700625 -63.4375 265.375 C-62.81054649 260.53850148 -62.81570098 255.74689056 -62.8125 250.875 C-62.79413086 249.39193359 -62.79413086 249.39193359 -62.77539062 247.87890625 C-62.77345703 246.92628906 -62.77152344 245.97367188 -62.76953125 244.9921875 C-62.76542236 244.12964355 -62.76131348 243.26709961 -62.75708008 242.37841797 C-63.01753785 239.82828767 -63.71618546 238.19873514 -65 236 Z M-110 254 C-109 256 -109 256 -109 256 Z M-172 267 C-171.67 267.99 -171.34 268.98 -171 270 C-171 269.01 -171 268.02 -171 267 C-171.33 267 -171.66 267 -172 267 Z M-170 270 C-169 272 -169 272 -169 272 Z M-169 272 C-168 274 -168 274 -168 274 Z M-167 275 C-166 277 -166 277 -166 277 Z M-166 277 C-165 279 -165 279 -165 279 Z M-164 280 C-163 282 -163 282 -163 282 Z M-163 282 C-162 284 -162 284 -162 284 Z M-54 283 C-54.42410156 283.90621094 -54.84820312 284.81242187 -55.28515625 285.74609375 C-61.54985468 298.86748746 -69.61837896 311.30918948 -83 318 C-83 318.66 -83 319.32 -83 320 C-81.19638149 321.34160786 -79.32934567 322.59846897 -77.4375 323.8125 C-72.87446213 326.77712461 -68.40006349 329.79995383 -64 333 C-60.80822293 330.39169085 -59.91635737 327.52319667 -58.625 323.671875 C-58.41439941 323.0458136 -58.20379883 322.4197522 -57.98681641 321.77471924 C-57.54212021 320.44471006 -57.10195819 319.11317748 -56.66601562 317.78027344 C-56.01448034 315.79414167 -55.34446613 313.81502201 -54.671875 311.8359375 C-51.71450303 302.98865953 -49.61880922 294.18970358 -48 285 C-49.98 284.34 -51.96 283.68 -54 283 Z M-161 285 C-160 287 -160 287 -160 287 Z M-150 296 C-149.34 299.63 -148.68 303.26 -148 307 C-145.03 307 -142.06 307 -139 307 C-139 303.7 -139 300.4 -139 297 C-144.10181067 293.87476513 -144.10181067 293.87476513 -150 296 Z M-154 298 C-154.52787109 298.94359375 -154.52787109 298.94359375 -155.06640625 299.90625 C-160.8942007 310.0097892 -166.07466728 316.42762735 -177 321 C-175.54040103 324.32339457 -173.66678037 326.6142832 -171.1875 329.25 C-167.53391794 333.26295079 -164.72575574 337.31510732 -162 342 C-160.43168875 339.04748173 -159.31481645 336.12362747 -158.30859375 332.9375 C-158.00373047 331.97585938 -157.69886719 331.01421875 -157.38476562 330.0234375 C-157.07216797 329.02570313 -156.75957031 328.02796875 -156.4375 327 C-156.12103516 326.00226563 -155.80457031 325.00453125 -155.47851562 323.9765625 C-153.52355934 317.78379228 -151.85263964 312.40973417 -151.8125 305.875 C-151.79832031 304.82054687 -151.78414062 303.76609375 -151.76953125 302.6796875 C-151.72342436 299.84729941 -151.72342436 299.84729941 -154 298 Z M-136 298 C-135.90301713 309.37762153 -133.59678926 318.43287642 -129.4375 328.9375 C-128.9102279 330.31373376 -128.38482763 331.69068616 -127.86132812 333.06835938 C-126.59557705 336.38742808 -125.30516927 339.69620013 -124 343 C-121.19727135 340.27670697 -118.94603298 337.33634167 -116.625 334.1875 C-113.53338875 330.01674735 -110.3882801 325.93477689 -107 322 C-107.7734375 321.74347656 -108.546875 321.48695313 -109.34375 321.22265625 C-120.83773229 316.99776424 -126.01157773 309.86835682 -132.5546875 299.87109375 C-133.27011719 298.94490234 -133.27011719 298.94490234 -134 298 C-134.66 298 -135.32 298 -136 298 Z M-149 312 C-149.64908609 314.14788488 -150.21895674 316.31992769 -150.75 318.5 C-152.50879377 325.53430394 -154.72429447 332.35450805 -157.15722656 339.18359375 C-157.82500363 341.10461951 -158.41927927 343.05089005 -159 345 C-158.67 345.66 -158.34 346.32 -158 347 C-156.948125 346.34 -155.89625 345.68 -154.8125 345 C-146.70092316 340.92982935 -136.69773999 342.82064543 -128 344 C-128.74800118 339.01669484 -130.59413442 334.49660235 -132.375 329.8125 C-134.83085652 323.26375764 -137.12104392 316.74213652 -139 310 C-144.58664846 309.39578469 -144.58664846 309.39578469 -149 312 Z M-207.51171875 323.01171875 C-208.33285156 323.99785156 -209.15398437 324.98398437 -210 326 C-211.0999109 327.12133991 -212.21126633 328.23153447 -213.33203125 329.33203125 C-213.90244141 329.90244141 -214.47285156 330.47285156 -215.06054688 331.06054688 C-217.70703125 333.70703125 -220.35351562 336.35351562 -223 339 C-218.9651652 349.86301676 -211.19746906 359.04865885 -204 368 C-203.56671387 368.53915039 -203.13342773 369.07830078 -202.68701172 369.63378906 C-197.42099584 376.13277563 -191.88439992 382.30386697 -186 388.25 C-185.44787842 388.81138672 -184.89575684 389.37277344 -184.3269043 389.95117188 C-181.90887358 392.35010992 -180.27526709 393.9082443 -177 395 C-176.79246094 393.99324219 -176.58492187 392.98648438 -176.37109375 391.94921875 C-174.05990238 381.23709154 -170.69559282 371.20406376 -166.75463867 360.98999023 C-163.97597138 353.69104603 -163.97597138 353.69104603 -164 346 C-167.86657108 337.65981937 -174.92509036 327.82957792 -183 323 C-188.10208182 321.75672223 -192.78453447 321.84474358 -198 322 C-199.80017578 321.60361328 -199.80017578 321.60361328 -201.63671875 321.19921875 C-205.09711937 320.61725244 -205.09711937 320.61725244 -207.51171875 323.01171875 Z M-106.4375 328.5 C-107.0037207 329.03318848 -107.56994141 329.56637695 -108.15332031 330.11572266 C-114.27949804 336.02574437 -120.38122765 342.15824988 -121 351 C-120.28905469 354.28414252 -119.17112563 357.39603095 -118.03515625 360.5546875 C-117.72299667 361.45623566 -117.4108371 362.35778381 -117.08921814 363.28665161 C-116.09308353 366.15408058 -115.0781248 369.01442363 -114.0625 371.875 C-113.38220956 373.82247908 -112.70315876 375.77039166 -112.02539062 377.71875 C-110.36458231 382.48430915 -108.68686475 387.24360485 -107 392 C-89.41903621 383.73898254 -74.06108893 354.65418021 -65 338 C-68.54799746 334.10089863 -72.66429646 331.31259624 -77 328.375 C-77.7115625 327.88515625 -78.423125 327.3953125 -79.15625 326.890625 C-89.64924574 319.72563164 -96.8479045 319.35822321 -106.4375 328.5 Z M-154.2109375 349.02734375 C-156 350 -156 350 -157.95288086 350.1418457 C-160.33167153 350.8704133 -160.33167153 350.8704133 -161.35620117 353.87988281 C-161.76909769 355.14879513 -162.163492 356.42382073 -162.54296875 357.703125 C-162.75689774 358.37792908 -162.97082672 359.05273315 -163.1912384 359.74798584 C-163.8723768 361.9107668 -164.52977119 364.07999958 -165.1875 366.25 C-165.64110718 367.69707649 -166.09616876 369.14369794 -166.55273438 370.58984375 C-169.12427234 378.7037085 -169.12427234 378.7037085 -171 387 C-170.4237085 386.90388428 -169.84741699 386.80776855 -169.25366211 386.70874023 C-150.50681034 383.67945008 -131.35379575 382.08883286 -113 388 C-115.22992005 379.61507282 -117.60825812 371.28429003 -120.1875 363 C-120.53619141 361.78699219 -120.88488281 360.57398438 -121.24414062 359.32421875 C-122.95980849 353.17988546 -122.95980849 353.17988546 -127.00097656 348.54760742 C-129.38571762 347.57024086 -129.38571762 347.57024086 -133 347 C-133.78375 346.773125 -134.5675 346.54625 -135.375 346.3125 C-142.45142517 345.47006843 -147.9468771 345.30889087 -154.2109375 349.02734375 Z M-168 390 C-168.79277344 390.19722656 -169.58554688 390.39445312 -170.40234375 390.59765625 C-170.92957031 390.73042969 -171.45679688 390.86320312 -172 391 C-172.33 393.31 -172.66 395.62 -173 398 C-168.49807409 401.29906758 -164.33775693 403.12730977 -159 404.6875 C-158.31421875 404.89955078 -157.6284375 405.11160156 -156.921875 405.33007812 C-145.88028528 408.6699483 -133.10236164 410.39743489 -122.36328125 405.34375 C-118.03877778 402.88485877 -113.67778603 400.37260804 -110 397 C-110 396.01 -110 395.02 -110 394 C-111.78613559 393.19593209 -113.57931249 392.40750363 -115.375 391.625 C-116.37273437 391.18414062 -117.37046875 390.74328125 -118.3984375 390.2890625 C-126.22775176 387.48681336 -133.9093705 386.63699991 -142.1875 386.6875 C-143.54572876 386.69052124 -143.54572876 386.69052124 -144.93139648 386.69360352 C-152.91034451 386.81130375 -160.27865412 388.01568608 -168 390 Z " fill="#FFFFFF" fill-opacity="1" transform="translate(405,57)"/>
<path d="M0 0 C3.5693777 1.30849577 6.52418566 2.87392474 9.64453125 5.0390625 C10.90620117 5.90917969 10.90620117 5.90917969 12.19335938 6.796875 C13.48983398 7.70179687 13.48983398 7.70179687 14.8125 8.625 C16.13797852 9.54152344 16.13797852 9.54152344 17.49023438 10.4765625 C19.66322161 11.98003475 21.83297876 13.48794734 24 15 C22.66932223 18.6298179 21.05339725 21.65056428 18.88671875 24.84765625 C18.23147217 25.82154297 17.57622559 26.79542969 16.90112305 27.79882812 C16.17062744 28.87583984 15.44013184 29.95285156 14.6875 31.0625 C13.03886556 33.50983967 11.39431181 35.95991081 9.75 38.41015625 C9.30158249 39.07761871 8.85316498 39.74508118 8.39115906 40.43276978 C4.68734111 45.9539428 1.02531027 51.50193014 -2.625 57.05859375 C-3.20328049 57.93882706 -3.78156097 58.81906036 -4.37736511 59.72596741 C-5.5761142 61.55091508 -6.77481853 63.37589215 -7.97348022 65.20089722 C-18.96969241 81.93781791 -30.08292281 98.58966845 -41.30947876 115.17285156 C-51.09123131 129.62671941 -60.73113039 144.16860061 -70.31048584 158.75723267 C-79.31681329 172.46836937 -88.42968221 186.1024584 -97.625 199.6875 C-107.00400053 213.54756809 -116.30825582 227.45246655 -125.5 241.4375 C-126.05095337 242.27568268 -126.60190674 243.11386536 -127.16955566 243.97744751 C-130.54068175 249.10757454 -133.90872492 254.23972087 -137.27600098 259.37237549 C-142.63705091 267.543393 -148.00261715 275.7114289 -153.375 283.875 C-154.27750488 285.24650711 -154.27750488 285.24650711 -155.19824219 286.64572144 C-164.799062 301.22690232 -174.52546098 315.71964467 -184.31195068 330.17669678 C-193.47655443 343.71853524 -202.52493188 357.33188036 -211.5 371 C-221.64874018 386.45550329 -231.91735196 401.82335467 -242.28329468 417.13394165 C-256.38037965 437.96295875 -270.20634248 458.96922076 -284 480 C-287.5693777 478.69150423 -290.52418566 477.12607526 -293.64453125 474.9609375 C-294.90620117 474.09082031 -294.90620117 474.09082031 -296.19335938 473.203125 C-297.05767578 472.59984375 -297.92199219 471.9965625 -298.8125 471.375 C-299.69615234 470.76398438 -300.57980469 470.15296875 -301.49023438 469.5234375 C-303.66322161 468.01996525 -305.83297876 466.51205266 -308 465 C-306.50092099 460.71634546 -304.25775534 457.16807466 -301.70703125 453.453125 C-300.79694074 452.10792767 -299.88763926 450.76219629 -298.97900391 449.41601562 C-298.25224457 448.34202515 -298.25224457 448.34202515 -297.51080322 447.24633789 C-294.87434086 443.32631362 -292.28912826 439.37274312 -289.69921875 435.421875 C-288.56138914 433.68932752 -287.4233633 431.95690891 -286.28515625 430.22460938 C-285.70008301 429.33410889 -285.11500977 428.4436084 -284.51220703 427.52612305 C-273.353365 410.54897658 -262.08203215 393.65372662 -250.69271851 376.83044434 C-241.52658495 363.28620955 -232.47662784 349.67049493 -223.5 336 C-213.93337816 321.43100396 -204.27094029 306.93276494 -194.5 292.5 C-181.381866 273.12270904 -168.48262751 253.60620057 -155.63838196 234.04656982 C-152.04892407 228.58416684 -148.43336335 223.13998213 -144.80081177 217.70617676 C-141.40936297 212.62727828 -138.05143366 207.52673582 -134.69921875 202.421875 C-121.8163919 182.809168 -108.84767783 163.26178156 -95.69271851 143.83044434 C-85.91091881 129.37647736 -76.27083163 114.8345858 -66.69152832 100.24578857 C-57.05478739 85.57463301 -47.28682423 70.99746066 -37.44717407 56.46176147 C-24.78866104 37.75643142 -12.3604173 18.90329687 0 0 Z " fill="#FFFFFF" fill-opacity="1" transform="translate(394,17)"/>
<path d="M0 0 C0 2.25 0 2.25 -1 5 C-3.52667787 6.67198768 -6.19936568 7.85805571 -9 9 C-8.58525633 14.28798182 -7.64775386 17.11690718 -4 21 C-5.66873838 25.96879122 -8.48856234 30.03879954 -11.375 34.36328125 C-11.90013184 35.15526413 -12.42526367 35.94724701 -12.96630859 36.76322937 C-14.0734951 38.42973631 -15.18308463 40.09464892 -16.29492188 41.75805664 C-18.00204044 44.31555685 -19.69665716 46.88104175 -21.390625 49.44726562 C-22.46800202 51.06560237 -23.54610184 52.68345821 -24.625 54.30078125 C-25.13337402 55.07255203 -25.64174805 55.84432281 -26.16552734 56.63948059 C-26.63941895 57.3440892 -27.11331055 58.04869781 -27.6015625 58.7746582 C-28.01744629 59.39911331 -28.43333008 60.02356842 -28.86181641 60.66694641 C-29.23741699 61.1068541 -29.61301758 61.54676178 -30 62 C-30.66 62 -31.32 62 -32 62 C-35.1002863 57.93589413 -37.67367672 53.7295134 -38.625 48.6875 C-37.76019752 44.96884935 -36.86620856 43.59958451 -34 41 C-29.72817322 38.722143 -25.29207011 36.86002631 -20.76171875 35.16015625 C-17.28124307 33.97037878 -17.28124307 33.97037878 -15.15234375 31.18359375 C-14.94325264 28.1866212 -15.94139985 27.03487188 -17.6875 24.625 C-18.24308594 23.83609375 -18.79867188 23.0471875 -19.37109375 22.234375 C-19.90863281 21.49703125 -20.44617188 20.7596875 -21 20 C-24.05925927 15.75102879 -26.14483557 12.22600484 -27 7 C-25.52500743 2.57502229 -22.22730243 0.17646773 -18.31640625 -2.12109375 C-12.37746595 -4.37448594 -5.68204341 -2.24291187 0 0 Z " fill="#FFFFFF" fill-opacity="1" transform="translate(371,31)"/>
<path d="M0 0 C2 4 2 4 1.5625 6.4375 C-0.60169585 9.98678119 -3.52360239 11.81563252 -7 14 C-7.66 13.67 -8.32 13.34 -9 13 C-6.03 8.71 -3.06 4.42 0 0 Z " fill="#FFFFFF" fill-opacity="1" transform="translate(348,143)"/>
<path d="M0 0 C1.32 0.66 2.64 1.32 4 2 C3.75 3.875 3.75 3.875 3 6 C0.41847698 7.72101535 -0.84918025 8 -4 8 C-2.87548273 5.0280615 -1.77706209 2.66559313 0 0 Z " fill="#FFFFFF" fill-opacity="1" transform="translate(413,45)"/>
<path d="M0 0 C0.66 0.33 1.32 0.66 2 1 C0.35 3.64 -1.3 6.28 -3 9 C-3.33 7.68 -3.66 6.36 -4 5 C-2.0625 2.25 -2.0625 2.25 0 0 Z " fill="#FFFFFF" fill-opacity="1" transform="translate(325,113)"/>
<path d="" fill="#FFFFFF" fill-opacity="1" transform="translate(0,0)"/>
<path d="" fill="#FFFFFF" fill-opacity="1" transform="translate(0,0)"/>
</svg>
