<?xml version="1.0" encoding="UTF-8"?>
<svg version="1.1" xmlns="http://www.w3.org/2000/svg" width="512" height="512">
<path d="M0 0 C179.23263373 0 179.23263373 0 220.6875 40.375 C223.67971934 43.38230616 225.93543851 46.29034348 228 50 C226.83687329 51.19096751 225.66923328 52.37752704 224.5 53.5625 C223.8503125 54.22378906 223.200625 54.88507813 222.53125 55.56640625 C220.50598845 57.51353271 218.45379122 59.34444201 216.32373047 61.171875 C212.12510886 64.8358058 208.19353558 68.71068195 204.2890625 72.68359375 C202.86601296 74.11926706 201.44283223 75.55481034 200.01953125 76.99023438 C197.80556407 79.22918599 195.59324756 81.4697262 193.38330078 83.71264648 C191.23119197 85.89477043 189.07305801 88.07078648 186.9140625 90.24609375 C185.9172496 91.26309608 185.9172496 91.26309608 184.90029907 92.30064392 C184.2856076 92.91871414 183.67091614 93.53678436 183.03759766 94.17358398 C182.49769196 94.72094711 181.95778625 95.26831024 181.40151978 95.83226013 C180 97 180 97 178 97 C177.6596875 96.32195312 177.319375 95.64390625 176.96875 94.9453125 C167.82710567 77.39141037 155.09374208 65.91682345 136.5 59.09765625 C123.75252696 55.09984384 110.68002662 53.92729196 97.3984375 53.68359375 C95.95472275 53.6524221 95.95472275 53.6524221 94.48184204 53.62062073 C91.44629149 53.55591207 88.41066417 53.49661125 85.375 53.4375 C83.30077372 53.3942397 81.22655484 53.35062319 79.15234375 53.30664062 C74.10163858 53.20031297 69.0508572 53.09883079 64 53 C64.02488841 53.79970876 64.04977682 54.59941751 64.07541943 55.42335987 C64.67535875 75.00887066 65.12020733 94.59251771 65.39892864 114.18529987 C65.5373584 123.66150463 65.7255021 133.13152877 66.03686523 142.60375977 C66.30858456 150.87399787 66.48074922 159.13975999 66.54038936 167.41433781 C66.57519907 171.786523 66.6549693 176.14592422 66.85471153 180.51394081 C68.12727497 209.45896667 68.12727497 209.45896667 58.05557251 221.05770874 C52.53678083 227.06049095 46.37779487 232.30302764 40.05295944 237.42899132 C36.80574873 240.16358609 34.05824728 243.02685477 31.38308048 246.3108263 C28.81109164 249.45202883 25.88093794 252.26164792 23.0078125 255.125 C22.3764035 255.75736572 21.74499451 256.38973145 21.0944519 257.04125977 C19.77643434 258.3599513 18.45717946 259.67740725 17.13671875 260.99365234 C15.10558715 263.01936102 13.07993401 265.05044059 11.0546875 267.08203125 C9.76855024 268.36750882 8.48210341 269.65267675 7.1953125 270.9375 C6.2844841 271.85136475 6.2844841 271.85136475 5.35525513 272.78369141 C1.11499023 277 1.11499023 277 0 277 C0 185.59 0 94.18 0 0 Z " fill="#FFFFFF" fill-opacity="1" transform="translate(134,76)"/>
<path d="M0 0 C2.80306204 1.40153102 3.05924385 3.37957898 4.05566406 6.21655273 C6.81238677 14.53385192 9.00537153 22.84774307 10.75 31.4375 C10.94827393 32.39914063 11.14654785 33.36078125 11.35083008 34.3515625 C14.67271689 51.55322689 15.37814632 68.70890437 15.3125 86.1875 C15.31034485 87.22280853 15.3081897 88.25811707 15.30596924 89.32479858 C15.25558853 104.41294594 14.94731738 119.15484167 12 134 C11.80132324 135.03737305 11.60264648 136.07474609 11.39794922 137.14355469 C5.95730296 164.83175745 -3.6866292 190.26007083 -22 212 C-22.77859375 212.94230469 -23.5571875 213.88460937 -24.359375 214.85546875 C-50.98204556 245.69774559 -93.3748088 260.01451572 -133 263 C-136.77586071 263.12664962 -140.54701345 263.12708041 -144.32470703 263.11352539 C-145.95086693 263.11374443 -145.95086693 263.11374443 -147.60987854 263.1139679 C-151.1592109 263.11327654 -154.70848942 263.10552079 -158.2578125 263.09765625 C-160.73216727 263.09578931 -163.20652241 263.09436671 -165.68087769 263.09336853 C-172.16793859 263.08956511 -178.65497682 263.07975353 -185.14202881 263.06866455 C-191.77176628 263.05840353 -198.40150665 263.05386089 -205.03125 263.04882812 C-218.02084296 263.03812919 -231.01042027 263.02127348 -244 263 C-245.96483086 248.26996042 -245.96483086 248.26996042 -241.82855225 242.31585693 C-238.76770057 238.61049742 -235.2648538 235.37477931 -231.7421875 232.1171875 C-230.47482819 230.88417226 -229.21130772 229.64720028 -227.95144653 228.40652466 C-224.6459316 225.17107707 -221.29317059 221.98950073 -217.92669678 218.81768799 C-214.51855339 215.59062282 -211.15506554 212.31777802 -207.7890625 209.046875 C-203.99734876 205.36495239 -200.20226993 201.68767774 -196.37033081 198.0475769 C-190.96309037 192.90455035 -185.76413824 187.75817708 -181 182 C-180.67 182 -180.34 182 -180 182 C-180 191.24 -180 200.48 -180 210 C-174.04436591 209.92526465 -168.0900382 209.84178919 -162.13500977 209.73754883 C-160.11717963 209.70467992 -158.09926592 209.67653533 -156.08129883 209.65356445 C-128.56444258 209.33208987 -101.62157823 205.06921453 -81 185 C-57.79911597 159.65855822 -53.88179609 123.88443674 -53.8125 90.9375 C-53.7981189 89.15339722 -53.7981189 89.15339722 -53.78344727 87.33325195 C-53.78607845 81.85851632 -53.95432555 76.64699123 -54.93359375 71.25390625 C-56.98260787 58.9755228 -56.98260787 58.9755228 -53.19726562 53.29443359 C-48.42878259 47.68240312 -43.01358407 42.89835224 -37.41235352 38.14013672 C-34.69449268 35.72896699 -32.42790314 33.14300328 -30.09521484 30.3684082 C-24.88162073 24.4750178 -19.14280121 19.04320652 -13.5625 13.5 C-12.24520941 12.18773415 -10.92815014 10.87523605 -9.61132812 9.5625 C-6.4102139 6.37231494 -3.20598135 3.18529349 0 0 Z " fill="#FFFFFF" fill-opacity="1" transform="translate(378,156)"/>
<path d="M0 0 C3.22314687 1.53287586 5.37735598 3.14150688 7.890625 5.6953125 C8.95410156 6.76845703 8.95410156 6.76845703 10.0390625 7.86328125 C10.76867187 8.60964844 11.49828125 9.35601562 12.25 10.125 C12.99507813 10.87910156 13.74015625 11.63320313 14.5078125 12.41015625 C16.3431342 14.26900772 18.1736191 16.13237005 20 18 C18.36275821 22.17093438 15.31169692 24.95804658 12.1879425 28.0458374 C11.58680687 28.64797632 10.98567123 29.25011525 10.36631936 29.8705008 C8.34829514 31.88947854 6.32320557 33.90121731 4.2980957 35.91308594 C2.85061229 37.35836831 1.40357619 38.80409879 -0.04304504 40.25024414 C-3.16129167 43.36555522 -6.28267201 46.47768023 -9.40649986 49.58739471 C-14.34935372 54.50798997 -19.28511702 59.43565631 -24.21992493 64.36431885 C-32.03112527 72.16413033 -39.84698055 79.95925813 -47.66486913 87.75236535 C-61.65061329 101.69384451 -75.63087567 115.64081508 -89.60584384 129.59309602 C-94.50861527 134.48747759 -99.41418164 139.37903532 -104.32203805 144.2683177 C-107.38203733 147.31763699 -110.43997661 150.36901603 -113.49741936 153.42089844 C-114.91102027 154.83104285 -116.32549149 156.24031547 -117.74091721 157.64862823 C-126.6686805 166.51659364 -126.6686805 166.51659364 -135.08750629 175.86110306 C-140.1343459 181.50539342 -145.63143925 186.75042261 -150.99414062 192.09179688 C-152.41259196 193.50832656 -153.83081395 194.92508592 -155.24882507 196.34205627 C-158.29097104 199.38105286 -161.3346608 202.41849159 -164.37956238 205.45472717 C-169.19871704 210.26030694 -174.0140083 215.06974551 -178.82873535 219.87976074 C-189.91794466 230.95695023 -201.01216862 242.02911293 -212.10643768 253.10123444 C-222.27845488 263.25304878 -232.44939985 273.40593127 -242.61629438 283.56287622 C-247.39818461 288.33979764 -252.18249938 293.11427313 -256.96871185 297.88686371 C-259.95008497 300.86075398 -262.92936372 303.8367357 -265.90809059 306.81327629 C-267.28461646 308.18793731 -268.66200291 309.56173722 -270.0403347 310.93458748 C-278.80393212 319.65973732 -278.80393212 319.65973732 -287.07378578 328.84696198 C-292.13530954 334.50451191 -297.63992892 339.76843859 -303.01342773 345.12695312 C-304.43337637 346.54661934 -305.85310416 347.96650649 -307.27262878 349.38659668 C-311.10869948 353.2229532 -314.94783617 357.05622795 -318.78754687 360.88894081 C-322.80653682 364.90166138 -326.82267767 368.91723144 -330.83912659 372.93249512 C-338.43715492 380.52742068 -346.03772782 388.11979445 -353.63922697 395.71124601 C-362.29658612 404.35741123 -370.95109144 413.00643063 -379.60536277 421.65568638 C-397.40041017 439.44029327 -415.19902359 457.22132772 -433 475 C-436.42482707 473.38223883 -438.65690522 471.57656756 -441.328125 468.8671875 C-442.12734375 468.06152344 -442.9265625 467.25585938 -443.75 466.42578125 C-444.575 465.58402344 -445.4 464.74226563 -446.25 463.875 C-447.51070313 462.60076172 -447.51070313 462.60076172 -448.796875 461.30078125 C-450.86915683 459.20495077 -452.93662393 457.10459287 -455 455 C-450.3872608 449.46581101 -445.48223681 444.33610746 -440.3828125 439.25 C-439.15883255 438.02458496 -439.15883255 438.02458496 -437.91012573 436.77441406 C-436.1918007 435.05541164 -434.47222464 433.33765893 -432.75146484 431.62109375 C-430.13655299 429.01152936 -427.52700999 426.39668234 -424.91796875 423.78125 C-423.23990378 422.10384603 -421.56152854 420.42675239 -419.8828125 418.75 C-419.1117215 417.97688477 -418.34063049 417.20376953 -417.5461731 416.40722656 C-416.43494583 415.30072754 -416.43494583 415.30072754 -415.30126953 414.171875 C-414.66206573 413.5334668 -414.02286194 412.89505859 -413.36428833 412.23730469 C-411.40294296 410.38130129 -409.40720951 408.6195285 -407.36045837 406.86045837 C-402.32958997 402.48098211 -397.64081754 397.78074962 -392.93139648 393.06079102 C-391.94671862 392.07747132 -390.96182884 391.09436379 -389.97674561 390.1114502 C-387.32367855 387.46290812 -384.67374368 384.81125351 -382.02453113 382.15885663 C-379.23864909 379.37042532 -376.45030804 376.58445459 -373.66236877 373.79808044 C-368.98283058 369.12035649 -364.30539309 364.44053974 -359.62915039 359.75952148 C-354.23919903 354.36412894 -348.84565494 348.97234804 -343.45023102 343.58242851 C-338.80016563 338.93691554 -334.15206984 334.28943862 -329.50558525 329.64034408 C-326.73821239 326.87142013 -323.97018727 324.1031573 -321.20037651 321.33667183 C-318.59529348 318.73449854 -315.99270899 316.12985085 -313.39195251 313.52335358 C-311.99351074 312.12298027 -310.59263652 310.72503734 -309.19166565 309.32719421 C-308.34377472 308.47648346 -307.49588379 307.62577271 -306.62229919 306.74928284 C-305.89433356 306.02094018 -305.16636793 305.29259752 -304.41634274 304.54218388 C-302.43879991 302.46165225 -300.5537502 300.34849239 -298.67795563 298.17795563 C-295.11959421 294.0857848 -291.37032899 290.2303464 -287.53041077 286.40342712 C-286.8113691 285.68282547 -286.09232744 284.96222382 -285.35149664 284.21978575 C-282.96203432 281.82636201 -280.56904634 279.43649616 -278.17602539 277.04663086 C-276.45379792 275.32304719 -274.731783 273.59925111 -273.00996399 271.8752594 C-268.83048729 267.69170594 -264.64868469 263.51048662 -260.46571667 259.33042472 C-257.06403576 255.93100867 -253.66334004 252.53060996 -250.26333427 249.12951851 C-249.77812891 248.64415991 -249.29292354 248.15880131 -248.79301498 247.65873488 C-247.80711735 246.67251749 -246.82122195 245.68629788 -245.83532875 244.70007605 C-236.60574978 235.46765034 -227.37311676 226.23828365 -218.13942444 217.0099721 C-210.22866381 209.10367878 -202.32052859 201.1947674 -194.41430664 193.28393555 C-185.21742443 184.08169334 -176.01891126 174.88108644 -166.81781572 165.68305689 C-165.83536889 164.70092859 -164.85292414 163.71879821 -163.87048149 162.73666573 C-163.38718869 162.25352721 -162.9038959 161.77038868 -162.40595787 161.2726096 C-159.01183844 157.87935106 -155.61887552 154.48493879 -152.22636604 151.09007072 C-147.65443283 146.51502862 -143.07983262 141.94266408 -138.50346184 137.37206078 C-136.8272743 135.69719213 -135.15193092 134.02147815 -133.47750854 132.34484482 C-131.1861751 130.05076563 -128.89176217 127.7598098 -126.59657288 125.46958923 C-125.93984355 124.81062918 -125.28311422 124.15166913 -124.606484 123.47274059 C-120.80861305 119.69072375 -116.88961951 116.11300498 -112.83477205 112.60856813 C-110.40376939 110.477277 -108.10840141 108.23125187 -105.82397461 105.94422913 C-105.3638649 105.48497384 -104.90375519 105.02571855 -104.42970276 104.55254644 C-102.9182086 103.04267408 -101.4102709 101.52930322 -99.90234375 100.01586914 C-98.80779665 98.92103942 -97.71302823 97.82643093 -96.61805725 96.73202515 C-93.66803548 93.78228846 -90.72109143 90.82949468 -87.77471924 87.87611318 C-84.68690323 84.78201523 -81.59622558 81.69077836 -78.50585938 78.59922791 C-72.66402183 72.75429126 -66.82473652 66.90681181 -60.98637962 61.05839866 C-54.33534559 54.39615924 -47.68144728 47.73678361 -41.02731514 41.07763875 C-27.34836959 27.388261 -13.67299821 13.69531785 0 0 Z " fill="#FFFFFF" fill-opacity="1" transform="translate(473,18)"/>
<path d="M0 0 C4.50352686 4.50352686 4.50352686 4.50352686 6 7.5390625 C6.32758301 8.19656494 6.65516602 8.85406738 6.99267578 9.53149414 C7.32509277 10.22235107 7.65750977 10.91320801 8 11.625 C8.35175293 12.34357178 8.70350586 13.06214355 9.06591797 13.80249023 C11.23084604 18.27161369 13.25628342 22.76250588 15.01171875 27.41015625 C15.7677314 29.39132774 16.57092758 31.35455368 17.39453125 33.30859375 C22.00326381 44.26743077 25.12716685 55.47481959 28 67 C28.4640625 68.84271484 28.4640625 68.84271484 28.9375 70.72265625 C30.77732094 78.18171526 32.4181334 85.38973082 32.82421875 93.09375 C32.79603618 95.00909965 32.79603618 95.00909965 34 96 C34.21168488 98.24621176 34.36915709 100.49763282 34.5 102.75 C34.72438969 107.47047238 34.72438969 107.47047238 35.50927734 112.11230469 C36.22343032 116.31479297 36.14239275 120.46359599 36.1328125 124.71875 C36.13376923 125.65424683 36.13472595 126.58974365 36.13571167 127.55358887 C36.13639072 129.5271003 36.13455566 131.50061399 36.13037109 133.47412109 C36.12501898 136.489309 36.13032544 139.50434796 36.13671875 142.51953125 C36.13605792 144.44010449 36.13477666 146.36067765 36.1328125 148.28125 C36.13483673 149.18033081 36.13686096 150.07941162 36.13894653 151.0057373 C36.12345862 155.15451831 35.95916576 158.94235737 35 163 C35 163.99 35 164.98 35 166 C35 168.8809787 34.56691666 171.18523894 34 174 C33.50735406 177.73417343 33.05077263 181.47177541 32.59765625 185.2109375 C32.00972755 188.93832861 31.06918219 192.38574492 30 196 C29.63842298 197.82797272 29.30283117 199.66138218 29 201.5 C28.29497995 205.7804789 27.22031513 209.83683106 26 214 C25.64782163 215.3341306 25.29766032 216.66879482 24.94921875 218.00390625 C16.18428863 250.3191978 0.10229263 280.08963847 -20.625 306.25 C-21.09156006 306.83990723 -21.55812012 307.42981445 -22.03881836 308.03759766 C-28.78897788 316.54197618 -28.78897788 316.54197618 -32 320 C-32.66 320 -33.32 320 -34 320 C-34.37705078 320.88365234 -34.37705078 320.88365234 -34.76171875 321.78515625 C-36.15455401 324.27644202 -37.6208572 325.62300414 -39.8125 327.4375 C-42.11266902 329.35504903 -44.27779775 331.27961342 -46.390625 333.40625 C-49.12517657 336.12442701 -51.9749462 338.59561157 -54.9375 341.0625 C-56.43603516 342.31740234 -56.43603516 342.31740234 -57.96484375 343.59765625 C-65.99150501 349.95080512 -65.99150501 349.95080512 -69.5625 350.125 C-73.04381931 348.51823724 -75.23435262 346.35038826 -77 343 C-77.95051318 338.8783782 -77.36976679 335.84518124 -75.6875 332 C-72.15237264 327.34179969 -66.75382807 324.27874319 -62 321 C-61.2678125 320.42636719 -60.535625 319.85273438 -59.78125 319.26171875 C-58 318 -58 318 -56 318 C-55.7421875 317.41734375 -55.484375 316.8346875 -55.21875 316.234375 C-53.90165983 313.8197097 -52.44911616 312.18259823 -50.5 310.25 C-49.8915625 309.63640625 -49.283125 309.0228125 -48.65625 308.390625 C-47 307 -47 307 -45 307 C-44.7628125 306.44054687 -44.525625 305.88109375 -44.28125 305.3046875 C-42.70587677 302.47093687 -40.74647151 300.46388964 -38.5 298.125 C-29.74704866 288.71339502 -22.92238653 278.05377826 -16.125 267.1875 C-15.57739014 266.31625488 -15.02978027 265.44500977 -14.46557617 264.54736328 C-11.15907704 259.18494898 -8.43779149 253.80191814 -6 248 C-5.32553114 246.48652978 -4.64711119 244.97481444 -3.96484375 243.46484375 C-3.63033203 242.71783203 -3.29582031 241.97082031 -2.95117188 241.20117188 C-2.27328064 239.6873454 -1.59358104 238.17432745 -0.91210938 236.66210938 C3.09189157 227.70151151 6.01339634 218.75186202 8.58935547 209.28100586 C9.12696069 207.30529443 9.67045124 205.33127271 10.21484375 203.35742188 C12.31962251 195.72904578 12.31962251 195.72904578 14 188 C14.66 188 15.32 188 16 188 C15.505 185.525 15.505 185.525 15 183 C15.66 183 16.32 183 17 183 C16.814375 181.906875 16.62875 180.81375 16.4375 179.6875 C16 176 16 176 17 173 C18.99833774 160.43526675 19.19497429 147.63153186 19.1875 134.9375 C19.1882251 133.65520508 19.1889502 132.37291016 19.18969727 131.05175781 C19.12967872 120.62606452 18.58640051 110.31160329 17 100 C16.74811846 97.70551657 16.50971897 95.41021033 16.28125 93.11328125 C16.04588312 90.97480993 16.04588312 90.97480993 15.40625 88.85546875 C15 87 15 87 16 85 C15.34 85 14.68 85 14 85 C13.80365967 84.23969482 13.60731934 83.47938965 13.4050293 82.69604492 C12.49994526 79.193 11.59372914 75.69024885 10.6875 72.1875 C10.2244043 70.3940918 10.2244043 70.3940918 9.75195312 68.56445312 C9.13460471 66.17953873 8.51449694 63.79533688 7.89160156 61.41186523 C7.32500281 59.2436786 6.76382637 57.07406216 6.20996094 54.90258789 C4.84762546 49.68134342 3.26853348 44.92472622 0.875 40.0625 C0.26528735 38.80287572 -0.34268382 37.5424075 -0.94921875 36.28125 C-1.2745459 35.60835937 -1.59987305 34.93546875 -1.93505859 34.2421875 C-4.00633048 29.88121523 -5.964708 25.46866257 -7.9375 21.0625 C-8.54005615 19.71973999 -8.54005615 19.71973999 -9.15478516 18.34985352 C-10.10416541 16.23367296 -11.05222963 14.11690206 -12 12 C-8.04 8.04 -4.08 4.08 0 0 Z " fill="#FFFFFF" fill-opacity="1" transform="translate(426,108)"/>
<path d="M0 0 C8.27969334 7.22271121 12.72765362 21.5120605 17.25 31.25 C17.75716553 32.33804932 18.26433105 33.42609863 18.78686523 34.54711914 C22.43914879 42.49627781 25.89238242 50.49057299 28 59 C28.49305662 60.51399984 29.00210345 62.02284677 29.5234375 63.52734375 C37.91077704 88.00366217 37.91077704 88.00366217 38.69140625 99.90234375 C38.95630756 102.1416611 38.95630756 102.1416611 39.9296875 104.734375 C41.18479059 108.56381363 41.89146345 112.34663851 42.5625 116.3125 C42.75102539 117.37500977 42.75102539 117.37500977 42.94335938 118.45898438 C44.81192955 129.24973258 45.17693828 139.81108901 45.203125 150.73046875 C45.20736607 151.93461143 45.20736607 151.93461143 45.21169281 153.16308022 C45.22662868 157.42244409 45.23589005 161.68177467 45.24023438 165.94116211 C45.24459645 169.41555412 45.25840723 172.88969466 45.28125 176.36401367 C45.42308396 198.37223712 44.98253407 219.44980167 40 241 C39.34 241 38.68 241 38 241 C38.495 243.475 38.495 243.475 39 246 C38.34 246 37.68 246 37 246 C37.185625 246.7425 37.37125 247.485 37.5625 248.25 C38.01685753 251.10596164 37.77676343 252.27858649 37 255 C36.76619629 255.87575684 36.53239258 256.75151367 36.29150391 257.65380859 C35.40918606 260.8960227 34.51784505 264.13566961 33.625 267.375 C33.32078125 268.4990625 33.0165625 269.623125 32.703125 270.78125 C31.2034314 276.20321919 29.53366481 280.97331741 27 286 C26.53089052 287.67546614 26.0901707 289.35897808 25.66796875 291.046875 C23.9166562 297.77027866 21.1791287 303.93634649 18.3125 310.25 C17.7757666 311.44149658 17.2390332 312.63299316 16.68603516 313.8605957 C10.14191113 328.25943566 2.57370912 341.71949955 -6 355 C-6.70382812 356.09699219 -7.40765625 357.19398438 -8.1328125 358.32421875 C-11.80219165 363.94340526 -15.67013424 369.27887492 -19.9453125 374.453125 C-21.62689313 376.53751773 -23.21256232 378.64857359 -24.79296875 380.80859375 C-27.98516987 385.0845052 -31.50916377 388.95301191 -35.1875 392.8125 C-36.16444824 393.84310547 -36.16444824 393.84310547 -37.16113281 394.89453125 C-39.1018054 396.93514039 -41.0501051 398.96820648 -43 401 C-43.56605957 401.59474121 -44.13211914 402.18948242 -44.71533203 402.80224609 C-46.21788551 404.37720074 -47.73106124 405.94086248 -49.25 407.5 C-50.10078125 408.3765625 -50.9515625 409.253125 -51.828125 410.15625 C-54 412 -54 412 -57 412 C-57.3403125 412.86625 -57.3403125 412.86625 -57.6875 413.75 C-59.4390799 416.7527084 -61.01906183 418.18551589 -64 420 C-66.96755227 420.57960005 -68.90523546 420.39932446 -72 420 C-74.82300991 417.79452351 -74.96437339 416.20980116 -75.5625 412.6875 C-74.30670199 404.45504638 -66.6072512 399.81366281 -60.48828125 394.8203125 C-58 393 -58 393 -55 392 C-54.30651635 390.68041573 -53.64326177 389.34478121 -53 388 C-51.30859375 386.1484375 -51.30859375 386.1484375 -49.4375 384.375 C-46.85984611 381.95478041 -46.85984611 381.95478041 -45 379 C-44.34 379 -43.68 379 -43 379 C-42.66355469 378.19755859 -42.66355469 378.19755859 -42.3203125 377.37890625 C-40.56590062 374.21785053 -38.24474521 371.64257896 -35.875 368.9375 C-16.80364069 346.67829583 -0.48156463 319.78458496 9 292 C9.88581525 289.68364403 10.78119366 287.37091557 11.6875 285.0625 C15.3069981 275.82096361 18.0504886 266.4223209 20.58935547 256.83325195 C21.12698606 254.80500746 21.67063316 252.7784408 22.21484375 250.75195312 C22.56285951 249.44540821 22.91052798 248.13877072 23.2578125 246.83203125 C23.72405029 245.07983276 23.72405029 245.07983276 24.19970703 243.29223633 C24.95035204 240.20424121 25.52260339 237.14062602 26 234 C26.66 234 27.32 234 28 234 C27.67 232.02 27.34 230.04 27 228 C27.66 228 28.32 228 29 228 C28.690625 226.824375 28.690625 226.824375 28.375 225.625 C27.95894711 221.60315539 28.59208897 218.65284648 29.45703125 214.74609375 C30.42119857 209.86976551 30.67633293 204.95326209 31 200 C31.0928125 198.80246094 31.185625 197.60492188 31.28125 196.37109375 C32.57473523 178.67798471 32.78078966 160.66153035 31 143 C30.91621094 142.10796875 30.83242188 141.2159375 30.74609375 140.296875 C30.5876271 138.65687092 30.42276411 137.01746587 30.25 135.37890625 C30.07358576 133.70021453 29.90793536 132.02037471 29.75 130.33984375 C29.42218083 126.86188722 29.10262332 123.48232962 28.375 120.0625 C28 118 28 118 29 115 C28.34 115 27.68 115 27 115 C27.0928125 114.0409375 27.0928125 114.0409375 27.1875 113.0625 C27.01594821 110.26048751 26.56395216 108.5325939 25.625 105.9375 C24.3206669 102.28049132 23.57212231 98.77750739 23 94.9375 C22.34927156 90.64811504 21.37525179 86.97821698 19.71484375 82.98828125 C18.89060295 80.69572076 18.47897599 78.461844 18.0625 76.0625 C17.28719047 71.89599921 16.00966169 68.46720606 14.19140625 64.65625 C12.68202132 61.29106393 11.44584712 57.83916046 10.1875 54.375 C6.56514748 44.56331851 2.29975065 35.14449808 -2.73828125 25.9765625 C-3.43872559 24.6913269 -3.43872559 24.6913269 -4.15332031 23.38012695 C-5.07910703 21.69327684 -6.01949277 20.01434176 -6.97558594 18.34448242 C-7.39743164 17.57724854 -7.81927734 16.81001465 -8.25390625 16.01953125 C-8.63877197 15.33995361 -9.0236377 14.66037598 -9.42016602 13.96020508 C-10 12 -10 12 -9.23071289 9.88256836 C-7.69088894 7.52716616 -5.89601316 5.70581919 -3.875 3.75 C-3.15054688 3.04359375 -2.42609375 2.3371875 -1.6796875 1.609375 C-1.12539063 1.07828125 -0.57109375 0.5471875 0 0 Z " fill="#FFFFFF" fill-opacity="1" transform="translate(462,72)"/>
<path d="M0 0 C2.6875 -0.375 2.6875 -0.375 6 0 C9.08037943 2.61162604 10.63889708 4.23844577 11.44921875 8.19140625 C11.71772609 13.66340066 10.58751371 16.88491074 7 21 C6.34 21 5.68 21 5 21 C5 21.66 5 22.32 5 23 C4.195625 23.2475 3.39125 23.495 2.5625 23.75 C-0.171081 24.72238859 -0.171081 24.72238859 -0.8125 27.125 C-0.9053125 28.053125 -0.9053125 28.053125 -1 29 C-1.66 29 -2.32 29 -3 29 C-3.25370361 29.57403564 -3.50740723 30.14807129 -3.76879883 30.73950195 C-5.14257763 33.26177399 -6.74086558 35.06954476 -8.69921875 37.16796875 C-32.04535139 62.95662801 -46.40081292 96.0926637 -55.125 129.375 C-55.66430702 131.42378835 -56.20444394 133.47235306 -56.74557495 135.5206604 C-57.23190243 137.36279414 -57.71587126 139.20555009 -58.19970703 141.04833984 C-58.74209149 143.0487755 -59.34456704 145.03370111 -60 147 C-60 147.99 -60 148.98 -60 150 C-60.66 150 -61.32 150 -62 150 C-61.814375 150.9075 -61.62875 151.815 -61.4375 152.75 C-61.00990985 155.92638399 -61.25465846 157.02384601 -62 160 C-62.19823667 162.31000785 -62.36168128 164.62313141 -62.5 166.9375 C-62.89542127 173.53962297 -62.89542127 173.53962297 -63.50927734 176.24194336 C-64.12182902 179.68472757 -64.14313168 183.05523611 -64.1328125 186.5390625 C-64.13376923 187.26056488 -64.13472595 187.98206726 -64.13571167 188.72543335 C-64.13639021 190.25006192 -64.13455873 191.77469343 -64.13037109 193.29931641 C-64.12506525 195.5967484 -64.13030274 197.89398067 -64.13671875 200.19140625 C-64.14040108 208.1776123 -63.90089724 216.0573958 -63 224 C-62.83064006 225.79141409 -62.66366974 227.58305708 -62.5 229.375 C-62.24539562 231.96621551 -61.91790609 234.38584139 -61.375 236.9375 C-61 239 -61 239 -62 242 C-61.34 242 -60.68 242 -60 242 C-60.495 244.97 -60.495 244.97 -61 248 C-60.34 248 -59.68 248 -59 248 C-58.78907715 248.825 -58.5781543 249.65 -58.36083984 250.5 C-52.79795656 272.61089806 -52.79795656 272.61089806 -45 294 C-44.67950684 294.76393066 -44.35901367 295.52786133 -44.02880859 296.31494141 C-39.70879337 306.55862912 -35.02653968 316.30554064 -28.92285156 325.62084961 C-25.88897097 330.42053423 -25.88897097 330.42053423 -26.41015625 333.140625 C-28.54408681 335.63632757 -30.77237614 337.95769983 -33.125 340.25 C-34.03507812 341.14203125 -34.94515625 342.0340625 -35.8828125 342.953125 C-36.58148438 343.62859375 -37.28015625 344.3040625 -38 345 C-42.43178023 341.24922618 -44.8381653 336.40266806 -47.5625 331.375 C-48.34488037 329.93193481 -48.34488037 329.93193481 -49.14306641 328.4597168 C-57.01162619 313.63525521 -63.57780793 298.0931664 -68.75 282.125 C-69.00249512 281.35260986 -69.25499023 280.58021973 -69.51513672 279.78442383 C-70.64220253 276.09192158 -71.14544363 273.68062463 -70 270 C-70.66 270 -71.32 270 -72 270 C-71.505 268.02 -71.505 268.02 -71 266 C-71.66 266 -72.32 266 -73 266 C-75.84360878 254.79070809 -78.2520937 243.55318415 -79 232 C-79.17647597 230.54029161 -79.36323719 229.0817727 -79.5625 227.625 C-79.91681052 224.68928423 -80 221.94415827 -80 219 C-80.33 218.67 -80.66 218.34 -81 218 C-81.0979215 216.64510159 -81.12798058 215.28518938 -81.12939453 213.92675781 C-81.13254669 213.06205872 -81.13569885 212.19735962 -81.13894653 211.30645752 C-81.1369223 210.36485779 -81.13489807 209.42325806 -81.1328125 208.453125 C-81.13376923 207.48977234 -81.13472595 206.52641968 -81.13571167 205.53387451 C-81.13639384 203.48937922 -81.13453698 201.44488178 -81.13037109 199.40039062 C-81.12504653 196.27729375 -81.13030279 193.15434223 -81.13671875 190.03125 C-81.13605752 188.04687468 -81.13477543 186.06249946 -81.1328125 184.078125 C-81.13483673 183.14462219 -81.13686096 182.21111938 -81.13894653 181.24932861 C-81.12376217 177.02322547 -81.01405549 173.12745317 -80 169 C-79.89916707 167.08417426 -79.81812625 165.16726742 -79.75 163.25 C-78.94920263 150.73086774 -76.11867007 138.13646834 -73 126 C-72.34 126 -71.68 126 -71 126 C-71.2784375 125.13375 -71.2784375 125.13375 -71.5625 124.25 C-75.5224998 103.88428675 -51.17821145 64.68595665 -40.19604492 48.31005859 C-38.48196125 45.85994454 -36.74359919 43.42914312 -35 41 C-33.85146453 39.33519428 -32.705312 37.6687398 -31.5625 36 C-24.76928112 26.32983033 -17.08446759 17.59051824 -9 9 C-8.35160156 8.3090625 -7.70320313 7.618125 -7.03515625 6.90625 C-5.73546178 5.55888947 -4.37559171 4.26977697 -3 3 C-2.34 3 -1.68 3 -1 3 C-0.67 2.01 -0.34 1.02 0 0 Z " fill="#FFFFFF" fill-opacity="1" transform="translate(132,49)"/>
<path d="M0 0 C3.875 0.625 3.875 0.625 5.875 2.1875 C7.2549145 5.5510416 7.25474846 8.01738959 6.875 11.625 C5.5 14.5625 5.5 14.5625 3.875 16.625 C3.215 16.625 2.555 16.625 1.875 16.625 C1.49601562 17.48931641 1.49601562 17.48931641 1.109375 18.37109375 C-0.27655214 20.90172654 -1.87053589 22.61144788 -3.875 24.6875 C-16.24244441 38.24603055 -26.12379937 53.69341732 -35.125 69.625 C-35.5576416 70.38184082 -35.9902832 71.13868164 -36.43603516 71.91845703 C-47.59932375 91.60753038 -55.858879 112.88888198 -62.0625 134.625 C-62.32119873 135.52911621 -62.57989746 136.43323242 -62.84643555 137.36474609 C-64.90369909 144.64724189 -66.70011326 151.970282 -68.36328125 159.3515625 C-69.125 162.625 -69.125 162.625 -70.125 165.625 C-70.30044088 167.14270283 -70.44270518 168.66439443 -70.5625 170.1875 C-70.89134955 173.8207571 -71.42134083 177.30858301 -72.1875 180.875 C-72.96911356 184.54168715 -73.21451074 187.865549 -73.125 191.625 C-73.29 192.24375 -73.455 192.8625 -73.625 193.5 C-74.14461662 195.70837064 -74.15715657 197.54948119 -74.125 199.8125 C-74.125 201.070625 -74.125 202.32875 -74.125 203.625 C-74.455 203.955 -74.785 204.285 -75.125 204.625 C-75.2261692 207.71581465 -75.26468558 210.78382555 -75.2578125 213.875 C-75.25876923 214.80344727 -75.25972595 215.73189453 -75.26071167 216.68847656 C-75.26139355 218.65559965 -75.25953872 220.62272496 -75.25537109 222.58984375 C-75.25002295 225.61203026 -75.25531582 228.63406815 -75.26171875 231.65625 C-75.26105797 233.56250033 -75.25977681 235.46875057 -75.2578125 237.375 C-75.25983673 238.28540039 -75.26186096 239.19580078 -75.26394653 240.13378906 C-75.66391332 244.20163678 -75.66391332 244.20163678 -74.125 247.625 C-74.125 249.477887 -74.12914305 251.33085201 -74.15234375 253.18359375 C-74.10191705 257.68597753 -73.58907444 262.14954237 -73.125 266.625 C-73.04121094 267.470625 -72.95742187 268.31625 -72.87109375 269.1875 C-72.45457369 273.48551424 -72.45457369 273.48551424 -71.53125 277.69140625 C-71.125 279.625 -71.125 279.625 -72.125 282.625 C-71.465 282.625 -70.805 282.625 -70.125 282.625 C-70.455 284.605 -70.785 286.585 -71.125 288.625 C-70.465 288.625 -69.805 288.625 -69.125 288.625 C-68.98964844 289.429375 -68.85429688 290.23375 -68.71484375 291.0625 C-62.05885472 327.4113742 -47.93184581 366.00640251 -26.3125 396.15234375 C-25.125 398.625 -25.125 398.625 -25.6875 400.703125 C-27.32323023 402.8900252 -29.05433853 404.59362212 -31.125 406.375 C-31.82625 406.98859375 -32.5275 407.6021875 -33.25 408.234375 C-35.125 409.625 -35.125 409.625 -37.125 409.625 C-38.69094191 407.30104238 -40.10925342 404.9902115 -41.5 402.5625 C-41.93554199 401.80952637 -42.37108398 401.05655273 -42.81982422 400.28076172 C-64.0956981 363.09867503 -64.0956981 363.09867503 -69.42871094 342.97290039 C-70.139577 340.57584608 -71.03111449 338.34531426 -72.00390625 336.04296875 C-74.19730507 330.62729848 -75.80664293 325.14011919 -77.3125 319.5 C-77.70211914 318.09427734 -77.70211914 318.09427734 -78.09960938 316.66015625 C-79.5499795 311.30090747 -80.51706633 306.13938827 -81.125 300.625 C-81.62 299.14 -81.62 299.14 -82.125 297.625 C-81.795 296.965 -81.465 296.305 -81.125 295.625 C-81.785 295.625 -82.445 295.625 -83.125 295.625 C-84.07812832 291.01667082 -84.89173414 286.38752541 -85.6875 281.75 C-85.82607422 280.97269531 -85.96464844 280.19539063 -86.10742188 279.39453125 C-86.9023397 274.73466814 -87.16498108 270.36561421 -87.125 265.625 C-87.36617805 264.49930855 -87.36617805 264.49930855 -87.61222839 263.35087585 C-88.2209889 260.1147264 -88.27514651 257.06240304 -88.30200195 253.76879883 C-88.30857315 253.09782166 -88.31514435 252.42684448 -88.32191467 251.73553467 C-88.3415859 249.51769865 -88.35331384 247.29993113 -88.36328125 245.08203125 C-88.36735678 244.31369146 -88.3714323 243.54535168 -88.37563133 242.75372887 C-88.39649369 238.66484222 -88.41077908 234.57598886 -88.42016602 230.48706055 C-88.42892012 227.15809215 -88.44953689 223.82955572 -88.48168945 220.50073242 C-88.67116455 200.46425174 -88.11175291 181.35366649 -84.125 161.625 C-83.94016556 160.70004227 -83.75533112 159.77508453 -83.56489563 158.82209778 C-83.41973007 158.09705551 -83.27456451 157.37201324 -83.125 156.625 C-82.465 156.625 -81.805 156.625 -81.125 156.625 C-81.455 154.975 -81.785 153.325 -82.125 151.625 C-81.465 151.625 -80.805 151.625 -80.125 151.625 C-80.3115918 150.90562256 -80.49818359 150.18624512 -80.69042969 149.44506836 C-81.16460806 146.36797036 -80.86297087 144.49965961 -80.078125 141.50390625 C-79.81572021 140.50053223 -79.55331543 139.4971582 -79.28295898 138.46337891 C-78.98333252 137.38233887 -78.68370605 136.30129883 -78.375 135.1875 C-78.06570557 134.05747559 -77.75641113 132.92745117 -77.43774414 131.76318359 C-74.85271301 122.61922065 -71.8220898 113.67231989 -68.5625 104.75 C-68.11616211 103.52224854 -67.66982422 102.29449707 -67.20996094 101.02954102 C-64.31675953 93.2842657 -60.93198847 85.95868294 -57.125 78.625 C-56.47009713 77.2928906 -55.81962279 75.95858442 -55.17578125 74.62109375 C-48.22468598 60.39087399 -40.6312168 46.32561353 -31.125 33.625 C-30.21036371 32.37020971 -29.29635838 31.11495938 -28.3828125 29.859375 C-23.00180027 22.51870796 -17.50077909 15.51940228 -11.23046875 8.91015625 C-9.45851515 6.98697841 -7.9917227 5.07348832 -6.5 2.9375 C-3.94636648 0.45106737 -3.38480273 0.20235234 0 0 Z " fill="#FFFFFF" fill-opacity="1" transform="translate(94.125,18.375)"/>
<path d="M0 0 C3.18212493 3.97765616 5.29545727 7.24975458 7.25 11.8125 C7.68844238 12.82727417 7.68844238 12.82727417 8.13574219 13.86254883 C15.04929823 30.33232947 21.38376509 48.03421306 22.8203125 65.93359375 C23.02940424 68.33814874 23.5152571 70.63687837 24 73 C24.74710311 78.37300182 25 83.57157838 25 89 C25.33 89.33 25.66 89.66 26 90 C26.08767112 92.07262076 26.10695873 94.14820294 26.09765625 96.22265625 C26.09282227 98.11274414 26.09282227 98.11274414 26.08789062 100.04101562 C26.07953403 101.38151109 26.07106907 102.72200588 26.0625 104.0625 C26.0574866 105.40689942 26.05292342 106.7513006 26.04882812 108.09570312 C26.03699488 111.39717941 26.02050971 114.69856803 26 118 C25.34 118 24.68 118 24 118 C24.08378906 118.73605469 24.16757812 119.47210938 24.25390625 120.23046875 C24.35574219 121.20628906 24.45757812 122.18210937 24.5625 123.1875 C24.71912109 124.63189453 24.71912109 124.63189453 24.87890625 126.10546875 C24.99880107 128.97134162 24.63521993 131.21755775 24 134 C23.75273145 136.33531406 23.56382413 138.67073706 23.37890625 141.01171875 C22.36626548 148.99800938 20.36641129 156.71905739 18.125 164.4375 C17.85671387 165.36344971 17.58842773 166.28939941 17.31201172 167.2434082 C15.44971757 173.60130057 13.52797406 179.87029701 11 186 C10.74557129 186.62342285 10.49114258 187.2468457 10.22900391 187.88916016 C0.42111373 211.67038964 -13.11986594 232.52386147 -31 251 C-31.4846875 251.51046875 -31.969375 252.0209375 -32.46875 252.546875 C-50.24501897 271.24899131 -50.24501897 271.24899131 -58 272 C-60.64698845 270.21482174 -62.56010623 268.87978754 -64 266 C-64.36201785 262.16261076 -64.56728234 259.84954661 -62.390625 256.58984375 C-59.65975638 253.63140274 -56.65386795 251.2670969 -53.4375 248.875 C-47.47738184 244.34377392 -42.24910242 239.4557814 -37.109375 234.01953125 C-35 232 -35 232 -33 232 C-32.73960937 231.25878906 -32.47921875 230.51757812 -32.2109375 229.75390625 C-30.97205085 226.93643822 -29.65557015 225.22938825 -27.625 222.9375 C-17.65983449 210.77600475 -10.14177995 196.41683922 -4 182 C-3.59136719 181.04351562 -3.18273437 180.08703125 -2.76171875 179.1015625 C-0.84783165 174.46647592 0.6948301 169.84777392 2 165 C2.29777344 164.14664063 2.59554687 163.29328125 2.90234375 162.4140625 C9.94214404 140.51802884 12.9840035 116.94649581 12 94 C11.93619141 92.50533203 11.93619141 92.50533203 11.87109375 90.98046875 C10.96821233 78.16723667 8.01413296 65.45936325 4.96484375 53.01171875 C4.3445927 50.47685861 3.78314726 47.95206766 3.25390625 45.39453125 C1.97907901 39.25087229 0.3225983 34.0798628 -2.66015625 28.55859375 C-9 16.45189504 -9 16.45189504 -9 12 C-9.66 11.67 -10.32 11.34 -11 11 C-5.555 5.555 -5.555 5.555 0 0 Z " fill="#FFFFFF" fill-opacity="1" transform="translate(393,141)"/>
<path d="M0 0 C0.33 0 0.66 0 1 0 C2.04094874 17.20501426 2.11032584 30.94300995 -6.89746094 46.10888672 C-15.70574366 61.21715908 -17.65570331 79.84882486 -20.58276367 96.79614258 C-20.97913311 98.88978034 -21.47597644 100.9353581 -22 103 C-24.42579004 119.05214149 -23.91469325 136.65506661 -20.52734375 152.50390625 C-20.00528605 154.97497935 -19.55820668 157.44943686 -19.125 159.9375 C-16.0495582 177.90356547 -16.0495582 177.90356547 -10 195 C-9.3555049 196.46110953 -8.7138671 197.92348092 -8.07421875 199.38671875 C-6.69191035 202.53760617 -5.30534855 205.68639151 -3.90234375 208.828125 C-3.58177002 209.54814697 -3.26119629 210.26816895 -2.9309082 211.01000977 C-2.12806397 212.72623933 -1.21767332 214.39139837 -0.2890625 216.04296875 C1.32216525 219.73902756 1.55139034 223.09635009 1.5625 227.0625 C1.59923828 227.75666016 1.63597656 228.45082031 1.67382812 229.16601562 C1.6988319 232.09145692 1.56783072 234.33581746 -0.37548828 236.60888672 C-2.03515625 237.99609375 -2.03515625 237.99609375 -5 240 C-10.19987899 230.98545569 -15.2145828 221.95726594 -19.4375 212.4375 C-19.75460938 211.7254541 -20.07171875 211.0134082 -20.3984375 210.27978516 C-22.57053975 205.2771913 -24.34519807 200.19432343 -26 195 C-26.350625 193.92234375 -26.70125 192.8446875 -27.0625 191.734375 C-30.21928704 181.68526959 -33.04229008 171.66480916 -33.7890625 161.12109375 C-33.94598565 158.98275494 -33.94598565 158.98275494 -34.55078125 156.89453125 C-35.14595591 154.38444682 -34.61828898 152.4731559 -34 150 C-34.66 150 -35.32 150 -36 150 C-35.67 146.04 -35.34 142.08 -35 138 C-35.66 138 -36.32 138 -37 138 C-37 128.76 -37 119.52 -37 110 C-36.34 110 -35.68 110 -35 110 C-35.33 106.04 -35.66 102.08 -36 98 C-35.34 98 -34.68 98 -34 98 C-34.185625 96.741875 -34.37125 95.48375 -34.5625 94.1875 C-35.00732761 91.17255732 -34.99843846 89.99531539 -34 87 C-33.73346173 85.16899796 -33.48648525 83.33512556 -33.25 81.5 C-32.36498936 75.5844026 -31.06761999 69.85039083 -29.5625 64.0625 C-29.3572168 63.258125 -29.15193359 62.45375 -28.94042969 61.625 C-28.0348146 58.22929772 -27.105994 55.21170686 -25.52734375 52.05859375 C-24.20544711 49.41141966 -23.41706086 47.14671167 -22.62890625 44.3203125 C-20.96462402 38.54979409 -18.55187336 33.27086516 -15.9375 27.875 C-15.45941895 26.88105225 -14.98133789 25.88710449 -14.48876953 24.86303711 C-10.25182808 16.21429852 -5.55519181 7.87557028 0 0 Z " fill="#FFFFFF" fill-opacity="1" transform="translate(131,121)"/>
<path d="M0 0 C0.33 0.66 0.66 1.32 1 2 C1.66 2.33 2.32 2.66 3 3 C5 5 5 5 5.125 8.625 C5.08375 9.73875 5.0425 10.8525 5 12 C7.64 12 10.28 12 13 12 C13 12.66 13 13.32 13 14 C13.66 14 14.32 14 15 14 C15 14.66 15 15.32 15 16 C15.56976563 16.25007813 16.13953125 16.50015625 16.7265625 16.7578125 C19.32225508 18.17607752 21.21028727 19.86219694 23.375 21.875 C25.94718846 24.21873751 28.42268823 26.40480514 31.375 28.25 C34.11041718 30.07361146 35.5638716 31.04795829 37 34 C37.6622732 37.84854313 37.79199264 41.3381693 36.0859375 44.91796875 C34.07104626 47.65432104 32.42262372 48.89893781 29.125 49.6875 C24.08057518 48.57772654 20.60016436 45.60016436 17 42 C14.55047861 40.03604745 12.07848243 38.10223209 9.60546875 36.16796875 C6.89562427 33.91315063 4.47233498 31.51262489 2 29 C0.80735553 27.86048227 -0.3881583 26.723963 -1.5859375 25.58984375 C-2.84914771 24.37259233 -4.11216542 23.15514111 -5.375 21.9375 C-6.02855469 21.32583984 -6.68210937 20.71417969 -7.35546875 20.08398438 C-7.96777344 19.48779297 -8.58007812 18.89160156 -9.2109375 18.27734375 C-9.77087402 17.74359131 -10.33081055 17.20983887 -10.90771484 16.65991211 C-12 15 -12 15 -11.83081055 12.9699707 C-10.47636497 9.75838641 -7.92071831 7.61231255 -5.4375 5.25 C-4.91736328 4.74339844 -4.39722656 4.23679687 -3.86132812 3.71484375 C-2.58089916 2.46965595 -1.29132446 1.23388498 0 0 Z " fill="#FFFFFF" fill-opacity="1" transform="translate(127,409)"/>
<path d="M0 0 C3.20063504 3.19403579 6.3894727 6.39949131 9.57421875 9.609375 C11.27858229 11.32297987 12.9830111 13.03651982 14.6875 14.75 C15.55439453 15.62527344 16.42128906 16.50054687 17.31445312 17.40234375 C18.14267578 18.23378906 18.97089844 19.06523437 19.82421875 19.921875 C20.57791748 20.68081055 21.33161621 21.43974609 22.1081543 22.22167969 C23.88449005 24.06172252 23.88449005 24.06172252 26 25 C26 25.66 26 26.32 26 27 C26.556875 27.226875 27.11375 27.45375 27.6875 27.6875 C31.48121657 29.84069048 34.41181345 32.31946699 35.875 36.5 C36.01155833 39.23116656 35.77928781 41.3787592 35 44 C33 46 33 46 29.125 46.8125 C22.6208658 46.77019669 18.79087239 41.83251398 14.50390625 37.50390625 C12.26434665 35.00041175 12.26434665 35.00041175 10 34 C10 33.34 10 32.68 10 32 C9.34 32 8.68 32 8 32 C8 31.34 8 30.68 8 30 C7.34 30 6.68 30 6 30 C6 29.34 6 28.68 6 28 C5.01 27.67 4.02 27.34 3 27 C1.28125 25.2578125 1.28125 25.2578125 -0.5 23.125 C-3.00265321 20.14615469 -3.00265321 20.14615469 -5.71875 17.3671875 C-7 16 -7 16 -7 14 C-7.66 14 -8.32 14 -9 14 C-9.80859375 12.328125 -9.80859375 12.328125 -10 10 C-7.91015625 7.421875 -7.91015625 7.421875 -5.0625 4.75 C-4.12535156 3.85796875 -3.18820313 2.9659375 -2.22265625 2.046875 C-1.48917969 1.37140625 -0.75570312 0.6959375 0 0 Z " fill="#FFFFFF" fill-opacity="1" transform="translate(90,446)"/>
<path d="M0 0 C5.18351217 5.68398921 10.03227926 11.61009708 14.765625 17.671875 C13.17894922 21.57473267 10.63212019 24.00708482 7.640625 26.921875 C6.73054688 27.81390625 5.82046875 28.7059375 4.8828125 29.625 C4.18414062 30.30046875 3.48546875 30.9759375 2.765625 31.671875 C-1.55402946 27.40235192 -5.75046449 23.02354461 -9.921875 18.609375 C-10.59798828 17.90232422 -11.27410156 17.19527344 -11.97070312 16.46679688 C-12.61845703 15.78037109 -13.26621094 15.09394531 -13.93359375 14.38671875 C-14.51971436 13.76917725 -15.10583496 13.15163574 -15.7097168 12.51538086 C-17.234375 10.671875 -17.234375 10.671875 -18.25317383 8.50219727 C-19.15502902 6.31681884 -19.15502902 6.31681884 -22.234375 5.671875 C-23.7171457 2.16714425 -23.55606097 -1.59656775 -23.234375 -5.328125 C-21.60035207 -8.47945493 -20.44594524 -10.66371551 -17.296875 -12.390625 C-10.67570914 -12.18998361 -4.30302496 -4.48357146 0 0 Z " fill="#FFFFFF" fill-opacity="1" transform="translate(393.234375,60.328125)"/>
<path d="M0 0 C3.16325941 2.2416799 5.52136121 5.03772437 8 8 C8.77988281 8.91394531 9.55976563 9.82789063 10.36328125 10.76953125 C14.18760939 15.34495494 17.8503472 19.93316723 21 25 C17.7 28.3 14.4 31.6 11 35 C7.27187986 33.75729329 6.28218936 32.18950306 3.875 29.125 C3.17117188 28.24070312 2.46734375 27.35640625 1.7421875 26.4453125 C0 24 0 24 -1 21 C-1.66 21 -2.32 21 -3 21 C-7.08569769 16.99634443 -11.52040691 12.54443263 -11.6875 6.5625 C-11 3 -11 3 -10 1 C-6.58321604 -0.70839198 -3.62335815 -0.99055834 0 0 Z " fill="#FFFFFF" fill-opacity="1" transform="translate(423,19)"/>
<path d="M0 0 C0.33 0 0.66 0 1 0 C0.24818027 15.97616929 -5.51930635 36.48230633 -16 49 C-20.68292683 53 -20.68292683 53 -24.6875 53 C-27.54373027 51.7648734 -28.49360375 50.71151326 -30 48 C-30.91962182 45.24113453 -31.13982804 43.5762913 -30.453125 40.74609375 C-28.36475926 36.79953161 -25.27988067 34.40011426 -21.9375 31.5 C-11.87674178 22.42852969 -5.057233 12.68120234 0 0 Z " fill="#FFFFFF" fill-opacity="1" transform="translate(319,281)"/>
<path d="M0 0 C2.54257236 1.86429817 4.65002681 4.08957682 6.8125 6.375 C7.7087207 7.27992187 7.7087207 7.27992187 8.62304688 8.203125 C13 12.70513393 13 12.70513393 13 15 C13.66 15 14.32 15 15 15 C16.7143618 16.95927063 18.38405168 18.95880212 20 21 C18.52278578 24.45201639 16.56205999 26.64961936 13.875 29.25 C13.15054687 29.95640625 12.42609375 30.6628125 11.6796875 31.390625 C11.12539063 31.92171875 10.57109375 32.4528125 10 33 C6.06623159 29.90918197 2.76074694 26.75414972 -0.4140625 22.890625 C-1.5354116 21.55384429 -2.70213696 20.25452125 -3.8984375 18.984375 C-6.67680294 16.01322501 -8.73565191 13.73430026 -10.125 9.875 C-9.96758634 6.2544858 -8.91587418 4.05120703 -7 1 C-4.27258242 -0.36370879 -3.04778424 -0.50158792 0 0 Z " fill="#FFFFFF" fill-opacity="1" transform="translate(355,90)"/>
<path d="M0 0 C2.96444142 2.64396127 3.88793718 4.40606708 4.625 8.3125 C3.75996598 13.4162007 1.34128 16.16263476 -2 20 C-2.61101562 20.71929687 -3.22203125 21.43859375 -3.8515625 22.1796875 C-6.47414222 25.22634394 -9.14823599 28.16714491 -12 31 C-12.20406408 26.9590828 -12.32788704 22.9194946 -12.4375 18.875 C-12.49615234 17.73289063 -12.55480469 16.59078125 -12.61523438 15.4140625 C-12.78417616 7.1117807 -12.78417616 7.1117807 -10.50512695 3.88061523 C-7.30060351 1.05793235 -4.3981624 -1.30756179 0 0 Z " fill="#FFFFFF" fill-opacity="1" transform="translate(212,163)"/>
<path d="M0 0 C6 6 6 6 6 10 C4.66423314 13.24400524 3.48216332 15.51783668 1 18 C-1.625 18.125 -1.625 18.125 -4 18 C-4.33 17.01 -4.66 16.02 -5 15 C-6.33076989 14.65657551 -7.66431979 14.32380126 -9 14 C-9.66 13.01 -10.32 12.02 -11 11 C-7.37 7.37 -3.74 3.74 0 0 Z " fill="#FFFFFF" fill-opacity="1" transform="translate(219,316)"/>
<path d="M0 0 C4.69267989 4.0409188 6.7650674 8.26908345 9 14 C7.02 15.98 5.04 17.96 3 20 C1.68 19.34 0.36 18.68 -1 18 C-1 17.34 -1 16.68 -1 16 C-1.99 15.67 -2.98 15.34 -4 15 C-5.53214888 11.93570224 -5.22938548 9.3834358 -5 6 C-2.8 1.4 -2.8 1.4 0 0 Z " fill="#FFFFFF" fill-opacity="1" transform="translate(302,162)"/>
<path d="M0 0 C2.5 2.0625 2.5 2.0625 5 5 C5.3125 8.8125 5.3125 8.8125 5 12 C3.35 12 1.7 12 0 12 C0 8.04 0 4.08 0 0 Z " fill="#FFFFFF" fill-opacity="1" transform="translate(200,352)"/>
</svg>
