<?xml version="1.0" encoding="UTF-8"?>
<svg version="1.1" xmlns="http://www.w3.org/2000/svg" width="512" height="512">
<path d="M0 0 C20.9751239 1.81180472 35.72363971 12.16538573 49.125 27.6875 C77.88510755 62.9486839 90.21627348 108.05878799 85.65625 153.09765625 C81.2134313 187.83048346 65.39802064 222.29387342 40.125 246.6875 C42.88130695 253.20240733 47.96248845 257.4970051 53.21875 261.96875 C55.81040746 264.30549033 57.89296492 267.00905791 60.125 269.6875 C61.44081441 270.87389004 62.77557606 272.03948262 64.125 273.1875 C67.53848918 276.09151318 70.25309668 279.24121602 73.125 282.6875 C74.44081441 283.87389004 75.77557606 285.03948262 77.125 286.1875 C80.53848918 289.09151318 83.25309668 292.24121602 86.125 295.6875 C87.44081441 296.87389004 88.77557606 298.03948262 90.125 299.1875 C93.53848918 302.09151318 96.25309668 305.24121602 99.125 308.6875 C100.39953636 309.83187094 101.69277536 310.9556163 103 312.0625 C114.67952045 322.03552505 114.67952045 322.03552505 115.36328125 329.17578125 C115.5215528 335.19843024 115.41310855 339.05170697 111.125 343.6875 C107.39718586 346.35625606 104.8478977 347.0642361 100.28712463 347.07518005 C99.11935486 347.08508469 97.95158508 347.09498932 96.74842834 347.10519409 C95.47607834 347.10069244 94.20372833 347.0961908 92.89282227 347.09155273 C91.53237345 347.09725821 90.17192942 347.10422315 88.81149292 347.11235046 C85.12341807 347.13027791 81.43558119 347.12911432 77.74747586 347.12340808 C74.66596611 347.12031553 71.58450202 347.12640942 68.50299877 347.13244683 C61.23202232 347.14648914 53.96116336 347.14493331 46.69018555 347.13354492 C39.19481433 347.12206433 31.69980095 347.13613882 24.20447689 347.1629414 C17.76354568 347.18510926 11.32272671 347.19173334 4.88176006 347.18586498 C1.03734864 347.18249672 -2.80683343 347.18490152 -6.65121269 347.20211601 C-10.26699859 347.21760057 -13.88225507 347.21361353 -17.49802017 347.19481087 C-19.45298844 347.18937698 -21.40798057 347.20362771 -23.36289978 347.21850586 C-34.19944434 347.12746792 -34.19944434 347.12746792 -38.875 342.6875 C-43.21221796 337.32245412 -43.4215797 331.34674884 -43.265625 324.71875 C-43.25996521 323.79783569 -43.25430542 322.87692139 -43.24847412 321.92810059 C-43.22625236 319.01401693 -43.17608383 316.10120603 -43.125 313.1875 C-43.1049166 311.20053871 -43.08666906 309.21355796 -43.0703125 307.2265625 C-43.0264343 302.37972501 -42.95750689 297.53382758 -42.875 292.6875 C-43.47814529 292.8248053 -44.08129059 292.9621106 -44.70271301 293.10357666 C-45.50182602 293.283703 -46.30093903 293.46382935 -47.12426758 293.64941406 C-47.91303787 293.82796936 -48.70180817 294.00652466 -49.51448059 294.19049072 C-69.93086599 298.48917724 -95.66299977 297.49152436 -115.875 292.6875 C-117.06391846 292.40543701 -117.06391846 292.40543701 -118.27685547 292.11767578 C-146.10435501 285.20069597 -178.85032239 269.88046293 -195.875 245.6875 C-188.97851562 236.91015625 -188.97851562 236.91015625 -182.08203125 228.1328125 C-181.6339209 227.56248291 -181.18581055 226.99215332 -180.72412109 226.40454102 C-179.8221316 225.25656922 -178.9201132 224.10862013 -178.01806641 222.96069336 C-175.63766443 219.93136163 -173.25785 216.90157081 -170.87890625 213.87109375 C-170.38648438 213.24396484 -169.8940625 212.61683594 -169.38671875 211.97070312 C-168.45033586 210.77814001 -167.51412577 209.58544118 -166.578125 208.39257812 C-164.02707165 205.14403134 -161.46041193 201.9087673 -158.875 198.6875 C-154.30329733 200.13119558 -149.93343286 201.88996389 -145.53515625 203.78515625 C-126.62646199 210.19911862 -104.65496234 201.84218592 -87.63964844 193.59033203 C-83.1554366 191.29611297 -79.02667292 188.52488593 -74.875 185.6875 C-73.90046875 185.07132813 -72.9259375 184.45515625 -71.921875 183.8203125 C-62.52594065 177.8213698 -54.7200829 170.55721424 -46.875 162.6875 C-46.07320312 161.90890625 -45.27140625 161.1303125 -44.4453125 160.328125 C-24.03905701 140.37823944 -6.34348497 111.01179242 -5.58300781 81.77490234 C-5.50036447 73.11112572 -6.55892959 65.80375624 -9.875 57.6875 C-10.14054688 56.99140625 -10.40609375 56.2953125 -10.6796875 55.578125 C-14.57590959 47.19197079 -24.71238777 42.8618492 -32.875 39.6875 C-31.18279834 35.76771085 -28.58692013 32.61532132 -25.9375 29.3125 C-24.9465709 28.06383675 -23.95568681 26.81513778 -22.96484375 25.56640625 C-22.20083252 24.60758545 -22.20083252 24.60758545 -21.42138672 23.62939453 C-18.93781579 20.51061916 -16.46780826 17.38125249 -14 14.25 C-13.56051025 13.69586426 -13.12102051 13.14172852 -12.66821289 12.57080078 C-12.24403076 12.03310059 -11.81984863 11.49540039 -11.3828125 10.94140625 C-10.96821777 10.41603271 -10.55362305 9.89065918 -10.12646484 9.34936523 C-8.77323028 7.55235633 -7.54430457 5.69193135 -6.296875 3.8203125 C-3.875 0.6875 -3.875 0.6875 0 0 Z " fill="#FFFFFF" fill-opacity="1" transform="translate(373.875,146.3125)"/>
<path d="M0 0 C4.38913218 2.46158554 8.21094164 5.42713325 12.125 8.5625 C13.35598216 9.54395875 14.58772563 10.52446357 15.8203125 11.50390625 C16.62879639 12.15081421 16.62879639 12.15081421 17.45361328 12.81079102 C18.9210227 13.93926454 20.45975311 14.97316874 22 16 C20.45198095 20.97645387 17.48702272 24.33902727 14.1875 28.25 C9.49662209 33.90941855 4.9320646 39.63566307 0.5 45.5 C-4.31819847 51.86019672 -9.27598532 58.08464899 -14.33154297 64.25732422 C-18.50428726 69.36156374 -22.54320736 74.55257054 -26.54296875 79.79296875 C-30.5079328 84.98430911 -34.56587334 90.10329566 -38.60888672 95.23388672 C-40.90874237 98.15371048 -43.20415945 101.07701893 -45.5 104 C-46.4166451 105.16668361 -47.33331177 106.33335027 -48.25 107.5 C-48.930625 108.36625 -48.930625 108.36625 -49.625 109.25 C-141.75 226.5 -141.75 226.5 -143.12426758 228.24902344 C-144.04343313 229.41890016 -144.96254095 230.58882223 -145.8815918 231.75878906 C-148.13456094 234.62671157 -150.38843723 237.4939099 -152.64453125 240.359375 C-157.78426392 246.88985886 -162.90120342 253.43749359 -168 260 C-173.53450443 267.12329278 -179.0930816 274.22696692 -184.67333984 281.31445312 C-186.95086206 284.20808827 -189.22524007 287.10419323 -191.5 290 C-192.4166523 291.16667796 -193.33331895 292.33334464 -194.25 293.5 C-194.70375 294.0775 -195.1575 294.655 -195.625 295.25 C-298.75 426.5 -298.75 426.5 -300.12548828 428.25048828 C-301.04069993 429.41539177 -301.95573944 430.58043053 -302.87060547 431.74560547 C-305.18313021 434.69039045 -307.49874234 437.63265185 -309.8203125 440.5703125 C-315.65916022 447.96625373 -321.38603292 455.43154068 -327 463 C-331.38913218 460.53841446 -335.21094164 457.57286675 -339.125 454.4375 C-340.35598216 453.45604125 -341.58772563 452.47553643 -342.8203125 451.49609375 C-343.35930176 451.06482178 -343.89829102 450.6335498 -344.45361328 450.18920898 C-345.9210227 449.06073546 -347.45975311 448.02683126 -349 447 C-347.45198095 442.02354613 -344.48702272 438.66097273 -341.1875 434.75 C-336.49662209 429.09058145 -331.9320646 423.36433693 -327.5 417.5 C-322.68180153 411.13980328 -317.72401468 404.91535101 -312.66845703 398.74267578 C-308.49571274 393.63843626 -304.45679264 388.44742946 -300.45703125 383.20703125 C-296.4920672 378.01569089 -292.43412666 372.89670434 -288.39111328 367.76611328 C-286.09125763 364.84628952 -283.79584055 361.92298107 -281.5 359 C-280.5833549 357.83331639 -279.66668823 356.66664973 -278.75 355.5 C-278.069375 354.63375 -278.069375 354.63375 -277.375 353.75 C-185.25 236.5 -185.25 236.5 -183.87573242 234.75097656 C-182.95656687 233.58109984 -182.03745905 232.41117777 -181.1184082 231.24121094 C-178.86543906 228.37328843 -176.61156277 225.5060901 -174.35546875 222.640625 C-169.21573608 216.11014114 -164.09879658 209.56250641 -159 203 C-153.46549557 195.87670722 -147.9069184 188.77303308 -142.32666016 181.68554688 C-140.04913794 178.79191173 -137.77475993 175.89580677 -135.5 173 C-134.5833477 171.83332204 -133.66668105 170.66665536 -132.75 169.5 C-132.29625 168.9225 -131.8425 168.345 -131.375 167.75 C-28.25 36.5 -28.25 36.5 -26.87451172 34.74951172 C-25.95930007 33.58460823 -25.04426056 32.41956947 -24.12939453 31.25439453 C-21.81686979 28.30960955 -19.50125766 25.36734815 -17.1796875 22.4296875 C-11.34083978 15.03374627 -5.61396708 7.56845932 0 0 Z " fill="#FFFFFF" fill-opacity="1" transform="translate(432,19)"/>
<path d="M0 0 C-0.33 9.9 -0.66 19.8 -1 30 C-7.5896875 30.61875 -7.5896875 30.61875 -14.3125 31.25 C-26.08332263 32.42846559 -37.52759336 34.08124592 -49 37 C-50.05574219 37.25007813 -51.11148438 37.50015625 -52.19921875 37.7578125 C-78.22150079 44.76511982 -100.78281228 59.7586436 -119.62109375 78.625 C-120.95304087 79.95476002 -122.29439669 81.27578145 -123.66796875 82.5625 C-148.6388533 106.18534194 -162.01848204 142.13553499 -166.5703125 175.515625 C-167 178 -167 178 -168 179 C-170.13353174 179.10003289 -172.27037542 179.13081048 -174.40625 179.1328125 C-175.70691406 179.13410156 -177.00757813 179.13539063 -178.34765625 179.13671875 C-179.02844238 179.13462402 -179.70922852 179.1325293 -180.41064453 179.13037109 C-182.49128515 179.1250224 -184.57170989 179.1303168 -186.65234375 179.13671875 C-188.60333984 179.13478516 -188.60333984 179.13478516 -190.59375 179.1328125 C-191.79708984 179.13168457 -193.00042969 179.13055664 -194.24023438 179.12939453 C-197 179 -197 179 -198 178 C-198.2898608 144.78195272 -183.94268724 109.58086758 -165 83 C-164.26265625 81.95070313 -163.5253125 80.90140625 -162.765625 79.8203125 C-146.68899102 57.70027231 -127.28611664 40.20530564 -104 26 C-103.42636719 25.64663574 -102.85273438 25.29327148 -102.26171875 24.92919922 C-93.56491519 19.61148666 -84.59351503 15.44098695 -75 12 C-74.20674316 11.71237793 -73.41348633 11.42475586 -72.59619141 11.12841797 C-48.09035733 2.33301886 -25.96030586 -0.15093201 0 0 Z " fill="#FFFFFF" fill-opacity="1" transform="translate(244,18)"/>
<path d="M0 0 C1.85714057 1.85714057 1.13048681 4.92507049 1.1328125 7.40625 C1.13410156 8.70691406 1.13539063 10.00757812 1.13671875 11.34765625 C1.13462402 12.02844238 1.1325293 12.70922852 1.13037109 13.41064453 C1.1250224 15.49128515 1.1303168 17.57170989 1.13671875 19.65234375 C1.13542969 20.95300781 1.13414062 22.25367188 1.1328125 23.59375 C1.13168457 24.79708984 1.13055664 26.00042969 1.12939453 27.24023438 C1 30 1 30 0 31 C-1.63649619 31.09588845 -3.27369509 31.18479725 -4.91210938 31.23876953 C-30.00196477 32.12477705 -52.44916246 41.59548173 -69.9375 59.8125 C-79.9283886 71.71369235 -87.71327617 86.19709808 -89.54296875 101.69921875 C-89.69378906 102.45847656 -89.84460938 103.21773438 -90 104 C-92.9219769 105.46098845 -95.49893475 105.11134901 -98.7578125 105.09765625 C-99.75238968 105.09553383 -99.75238968 105.09553383 -100.76705933 105.09336853 C-102.88641863 105.08776754 -105.00567259 105.075215 -107.125 105.0625 C-108.56119639 105.05748512 -109.99739444 105.05292219 -111.43359375 105.04882812 C-114.95576345 105.03779782 -118.47787145 105.02053259 -122 105 C-125.80943889 93.57168333 -115.58700194 73.96152536 -110.5625 63.5625 C-106.19958046 55.19144779 -100.99619279 47.83106093 -94.65625 40.8515625 C-93.01922878 39.06717936 -93.01922878 39.06717936 -91.71875 37.3359375 C-84.9138603 28.58086599 -74.63088422 21.36553655 -65 16 C-63.92621094 15.37480469 -62.85242188 14.74960938 -61.74609375 14.10546875 C-42.87957143 3.3670319 -21.67578824 -1.36788955 0 0 Z " fill="#FFFFFF" fill-opacity="1" transform="translate(243,92)"/>
<path d="M0 0 C4.64066947 4.32945469 7.28142833 9.35938442 10.3125 14.875 C10.87517578 15.85597656 11.43785156 16.83695313 12.01757812 17.84765625 C12.54416016 18.80285156 13.07074219 19.75804687 13.61328125 20.7421875 C14.33704956 22.03938721 14.33704956 22.03938721 15.07543945 23.36279297 C16.22754909 26.64905869 15.85563264 28.65989809 15 32 C13.87109375 34.2109375 13.87109375 34.2109375 12.4375 36.375 C4.61167897 48.91517106 -1.91734876 62.02022749 -3.72485352 76.83959961 C-5.08788491 86.92264552 -9.65526889 92.59275904 -16.30761719 100.04638672 C-19.21112009 103.39806448 -21.83932921 106.95484571 -24.5 110.5 C-30.52884275 118.44541086 -36.73261938 126.24199913 -43 134 C-43.66 133.67 -44.32 133.34 -45 133 C-45.60903267 114.90704495 -45.02418432 98.27786726 -40.640625 80.58837891 C-40.08662852 78.35001357 -39.57926071 76.1093848 -39.09375 73.85546875 C-36.48233594 62.69650959 -31.75269217 52.38700028 -27 42 C-26.70222656 41.34112793 -26.40445313 40.68225586 -26.09765625 40.00341797 C-19.59921767 25.76670714 -11.24908034 11.01748163 0 0 Z " fill="#FFFFFF" fill-opacity="1" transform="translate(208,222)"/>
<path d="M0 0 C20.16109683 12.19301628 20.16109683 12.19301628 24.25 23.4375 C26.10446242 32.24619648 24.30401239 39.64363452 19.59765625 47.2734375 C14.42501958 53.87518894 7.16521602 58.09233246 -1.08984375 59.54296875 C-8.34476181 59.88844104 -14.1157998 58.27222603 -20 54 C-24.84703478 49.5080291 -28.18527337 44.98237006 -31 39 C-20.9733149 25.74048845 -10.65936766 12.75597123 0 0 Z " fill="#FFFFFF" fill-opacity="1" transform="translate(301,236)"/>
<path d="M0 0 C3.58346425 0.65002375 6.0869201 2.1498052 9.125 4.125 C9.99382812 4.68445313 10.86265625 5.24390625 11.7578125 5.8203125 C14.28045908 7.51626044 16.76789492 9.24247297 19.25 10.99609375 C27.02495148 16.45729636 34.96345133 21.6773588 42.875 26.9375 C44.46231228 27.99403141 46.04955232 29.05067138 47.63671875 30.10742188 C50.68940034 32.13972936 53.74246616 34.17145728 56.79589844 36.20263672 C62.19991769 39.79778116 67.60037445 43.39826009 73 47 C71.1253803 50.9601475 68.60281507 54.22076799 65.875 57.625 C65.14120117 58.54563232 65.14120117 58.54563232 64.39257812 59.48486328 C63.40039886 60.72962675 62.40724197 61.97361162 61.41308594 63.21679688 C60.12399989 64.8435219 58.86129929 66.49106737 57.6015625 68.140625 C56.90804687 69.04296875 56.21453125 69.9453125 55.5 70.875 C54.8915625 71.67679687 54.283125 72.47859375 53.65625 73.3046875 C53.1096875 73.86414063 52.563125 74.42359375 52 75 C51.01 75 50.02 75 49 75 C47.52734375 73.12109375 47.52734375 73.12109375 45.9375 70.4375 C43.15183894 65.86854965 40.29533213 61.37848788 37.3125 56.9375 C36.44134064 55.63546056 35.57024856 54.3333761 34.69921875 53.03125 C34.25368652 52.36609375 33.8081543 51.7009375 33.34912109 51.015625 C30.62333712 46.94322679 27.90789619 42.86392017 25.19165039 38.78515625 C22.18956166 34.27893606 19.18169483 29.7766467 16.16818237 25.27806091 C14.3229587 22.52276072 12.47959351 19.76621966 10.63641357 17.009552 C9.71247566 15.62868885 8.78771193 14.2483779 7.86212158 12.86862183 C6.55702278 10.92292497 5.25477739 8.97534728 3.953125 7.02734375 C3.55372711 6.4334082 3.15432922 5.83947266 2.74282837 5.22753906 C0 1.11386861 0 1.11386861 0 0 Z " fill="#FFFFFF" fill-opacity="1" transform="translate(200,170)"/>
<path d="M0 0 C-1.23363281 1.50626953 -1.23363281 1.50626953 -2.4921875 3.04296875 C-9.03029558 11.04580204 -15.44564368 19.11618783 -21.72021484 27.32763672 C-24.11459885 30.45650555 -26.52051378 33.57606028 -28.9375 36.6875 C-29.62900146 37.58879639 -29.62900146 37.58879639 -30.33447266 38.50830078 C-32.42682071 41.1929252 -34.14108364 43.09405576 -37 45 C-41.31474779 44.68090764 -44.49922445 43.46204632 -48.2578125 41.3828125 C-49.21300781 40.85816406 -50.16820312 40.33351562 -51.15234375 39.79296875 C-52.13332031 39.24253906 -53.11429687 38.69210938 -54.125 38.125 C-55.60806641 37.31095703 -55.60806641 37.31095703 -57.12109375 36.48046875 C-61.27535637 34.18128958 -65.2529244 31.92980773 -69 29 C-66.81626784 23.63531943 -62.46361663 22.01458679 -57.5625 19.375 C-56.59763672 18.85228516 -55.63277344 18.32957031 -54.63867188 17.79101562 C-13.41215547 -3.83128319 -13.41215547 -3.83128319 0 0 Z " fill="#FFFFFF" fill-opacity="1" transform="translate(327,150)"/>
</svg>
