<?xml version="1.0" encoding="UTF-8"?>
<svg version="1.0" xmlns="http://www.w3.org/2000/svg"
 width="512.000000pt" height="512.000000pt" viewBox="0 0 512.000000 512.000000"
 preserveAspectRatio="xMidYMid meet">

<g transform="translate(0.000000,512.000000) scale(0.100000,-0.100000)"
fill="#FFFFFF" fill-opacity="1" stroke="none">
<path d="M2387 4926 c-306 -85 -646 -792 -832 -1731 -37 -188 -73 -442 -94
-656 -22 -239 -26 -248 -157 -354 -266 -217 -438 -482 -474 -734 -15 -99 -2
-229 32 -316 l21 -56 -59 -62 c-32 -34 -171 -176 -309 -315 l-250 -252 88 -87
87 -88 308 306 307 307 80 -44 c44 -24 123 -57 175 -74 101 -33 319 -73 459
-85 l84 -7 71 -60 c205 -173 430 -237 678 -193 148 26 281 90 402 195 l66 57
99 6 c126 9 311 40 425 73 360 103 530 315 513 641 -7 122 -42 236 -112 363
-84 152 -197 280 -413 468 -88 77 -92 91 -117 352 -17 183 -49 408 -82 568
l-16 83 544 547 c299 301 643 647 764 770 l220 222 -88 88 -88 87 -708 -715
-709 -715 -11 45 c-83 324 -227 706 -352 934 -80 146 -137 226 -223 312 -111
111 -220 151 -329 120z m162 -91 c165 -77 362 -392 521 -835 60 -169 160 -502
160 -535 0 -17 -211 -236 -825 -856 -454 -459 -830 -835 -835 -837 -6 -2 -10
12 -10 31 0 19 -7 157 -16 308 -16 297 -14 359 21 639 111 875 396 1696 693
1997 68 70 145 113 202 113 19 0 59 -11 89 -25z m772 -1787 c28 -154 67 -454
80 -615 11 -148 4 -302 -27 -553 -22 -183 -20 -200 31 -200 26 0 33 33 56 265
12 127 25 234 29 238 4 5 47 -25 96 -65 283 -236 444 -512 444 -761 0 -286
-164 -456 -525 -542 -83 -20 -313 -55 -363 -55 -30 0 122 171 178 200 52 27
119 34 184 19 50 -11 59 -10 72 3 46 45 -53 96 -167 85 -123 -11 -197 -66
-334 -248 -88 -115 -155 -177 -249 -230 -165 -91 -351 -120 -518 -80 -171 40
-312 129 -389 243 -61 90 -152 201 -200 242 -80 68 -215 94 -309 58 -36 -14
-46 -23 -48 -45 -4 -37 14 -42 92 -27 74 15 138 4 197 -35 36 -24 165 -172
157 -181 -7 -7 -245 25 -340 46 -49 11 -120 31 -158 44 -81 29 -196 87 -193
99 2 11 2177 2204 2182 2200 2 -1 12 -48 22 -105z m-1847 -1104 l14 -259 -272
-273 -271 -272 -19 57 c-26 78 -27 234 -3 323 41 153 161 346 306 490 70 70
223 200 229 195 1 -1 8 -119 16 -261z"/>
</g>
</svg>
