<?xml version="1.0" encoding="UTF-8"?>
<svg version="1.0" xmlns="http://www.w3.org/2000/svg"
 width="512.000000pt" height="512.000000pt" viewBox="0 0 512.000000 512.000000"
 preserveAspectRatio="xMidYMid meet">

<g transform="translate(0.000000,512.000000) scale(0.100000,-0.100000)"
fill="#FFFFFF" fill-opacity="1" stroke="none">
<path d="M1753 5090 c-39 -23 -66 -72 -66 -120 0 -19 23 -116 51 -215 28 -99
98 -349 156 -555 57 -206 139 -499 181 -650 232 -832 265 -950 265 -959 0 -6
-13 -31 -30 -57 -30 -47 -55 -135 -49 -168 3 -13 51 43 159 184 85 112 159
211 163 220 6 11 1 45 -12 92 -30 106 -31 102 42 95 34 -4 71 -9 82 -12 17 -5
36 15 108 109 48 63 87 119 87 124 0 5 -19 17 -42 25 -83 32 -174 47 -279 47
l-106 0 -57 203 c-31 111 -56 207 -56 213 0 16 73 24 215 24 194 0 359 -36
534 -116 41 -19 75 -33 76 -32 1 2 41 54 89 117 l87 114 -33 20 c-64 38 -215
99 -328 132 -192 55 -385 74 -570 56 -63 -7 -124 -14 -135 -17 -19 -5 -25 13
-79 205 -33 116 -57 213 -55 215 16 17 246 38 404 38 344 0 617 -65 931 -222
76 -38 139 -68 139 -67 1 1 38 51 84 110 45 59 81 113 79 119 -5 14 -157 98
-271 149 -193 87 -378 142 -602 181 -185 32 -543 31 -719 -1 -66 -12 -123 -18
-127 -14 -4 5 -28 85 -54 178 -26 94 -53 180 -61 193 -39 60 -138 81 -201 42z"/>
<path d="M2445 2538 c-913 -1199 -1661 -2183 -1662 -2186 -1 -4 35 -35 80 -68
l83 -61 1660 2179 c912 1199 1660 2183 1661 2186 1 4 -35 35 -80 68 l-83 61
-1659 -2179z"/>
<path d="M3927 4092 l-88 -116 62 -55 c326 -291 540 -642 643 -1060 152 -610
11 -1261 -379 -1752 -339 -428 -823 -700 -1370 -770 -115 -14 -374 -14 -490 1
-323 41 -640 162 -926 353 l-26 17 -89 -115 c-50 -66 -84 -119 -78 -123 381
-262 753 -397 1200 -433 314 -26 678 27 990 144 465 174 861 488 1132 898 314
474 445 1048 367 1609 -58 413 -216 789 -479 1135 -63 83 -271 298 -341 352
l-40 31 -88 -116z"/>
<path d="M3485 3513 c-44 -59 -81 -109 -83 -113 -1 -4 39 -49 90 -101 194
-198 317 -441 363 -718 31 -184 12 -440 -47 -616 -31 -96 -133 -294 -190 -370
-162 -217 -395 -385 -651 -470 -368 -121 -767 -74 -1108 131 -31 19 -59 34
-62 34 -2 0 -43 -51 -90 -114 l-86 -114 63 -41 c360 -235 833 -314 1251 -210
191 48 375 130 538 241 122 82 323 284 406 406 386 570 382 1276 -11 1850 -53
77 -274 313 -293 312 -5 -1 -46 -49 -90 -107z"/>
<path d="M3037 2923 l-87 -116 39 -42 c159 -172 195 -437 89 -653 -42 -87
-168 -215 -251 -255 -173 -83 -371 -87 -527 -9 l-59 30 -89 -117 -89 -117 48
-28 c81 -45 187 -85 272 -102 98 -20 300 -15 392 11 156 42 290 119 400 230
86 87 138 163 187 276 55 128 72 226 65 378 -9 228 -80 400 -232 569 -31 34
-60 62 -64 62 -3 0 -46 -52 -94 -117z"/>
<path d="M2593 2342 l-172 -227 32 -15 c18 -8 62 -14 103 -14 167 0 289 123
288 290 0 60 -5 82 -29 130 -17 31 -34 59 -40 60 -5 2 -87 -99 -182 -224z"/>
<path d="M1772 2300 c-18 -11 -42 -40 -54 -65 -20 -41 -21 -49 -10 -93 20 -72
73 -191 116 -255 30 -45 41 -55 52 -46 7 6 50 60 95 120 l81 109 -20 43 c-10
23 -25 60 -32 82 -17 53 -45 92 -80 110 -41 21 -109 19 -148 -5z"/>
<path d="M1081 2113 c-18 -9 -44 -34 -58 -55 -44 -65 -21 -170 46 -215 43 -29
113 -31 158 -3 96 58 86 215 -17 268 -52 26 -83 27 -129 5z"/>
<path d="M370 1912 c-23 -12 -43 -35 -59 -67 l-25 -48 19 -71 c53 -207 112
-307 189 -321 49 -10 79 0 121 36 63 55 63 85 5 259 -27 82 -55 158 -62 169
-18 29 -81 61 -120 61 -18 0 -49 -8 -68 -18z"/>
<path d="M1343 1570 c-42 -25 -63 -68 -63 -129 0 -42 5 -56 39 -98 43 -54 99
-109 104 -102 71 91 167 222 167 228 0 15 -72 92 -101 106 -40 21 -108 19
-146 -5z"/>
<path d="M766 1180 c-69 -21 -117 -105 -97 -175 5 -19 30 -61 55 -94 55 -71
242 -268 248 -261 3 3 43 56 91 118 l86 113 -48 48 c-26 26 -84 91 -130 144
-64 75 -90 99 -119 107 -42 11 -47 11 -86 0z"/>
</g>
</svg>
