<?xml version="1.0" encoding="UTF-8"?>
<svg version="1.1" xmlns="http://www.w3.org/2000/svg" width="512" height="512">
<path d="M0 0 C2.05504808 3.08257213 2.42459392 4.55551598 2.95458984 8.13305664 C3.11639236 9.19814453 3.27819489 10.26323242 3.44490051 11.3605957 C3.70033882 13.11762817 3.70033882 13.11762817 3.9609375 14.91015625 C4.24725524 16.81160746 4.5335829 18.71305721 4.82026005 20.61445427 C5.12876965 22.66887418 5.43378382 24.72378932 5.73806763 26.77883911 C6.38026058 31.10934379 7.03685626 35.43758367 7.69702148 39.76538086 C7.80943648 40.50249833 7.92185148 41.2396158 8.037673 41.99907017 C8.26848217 43.51204322 8.49935175 45.02500706 8.73027992 46.53796196 C9.08610419 48.8704488 9.44125439 51.20303732 9.79618835 53.53565979 C10.52985811 58.35724911 11.26471942 63.17865609 12 68 C12.18450336 69.21058075 12.18450336 69.21058075 12.37273407 70.44561768 C13.87027161 80.2667105 15.38391992 90.08501841 16.93534088 99.89775753 C17.55481282 103.81819616 18.16784153 107.73933927 18.76263428 111.66360474 C21.83455543 131.89650823 26.21877721 151.22880542 32.0881958 170.8351593 C35.42809108 182.4278198 37.45942394 194.66877885 32.1484375 205.96875 C30.66659698 208.58969241 29.13262373 210.86737627 27 213 C26.34 213 25.68 213 25 213 C25 213.66 25 214.32 25 215 C22.69 215.33 20.38 215.66 18 216 C18 216.66 18 217.32 18 218 C17.34 218 16.68 218 16 218 C16 217.34 16 216.68 16 216 C14.35 215.67 12.7 215.34 11 215 C11 214.34 11 213.68 11 213 C10.01 212.67 9.02 212.34 8 212 C6.52502602 209.68920743 5.25624073 207.42693101 4 205 C3.63003906 204.35675781 3.26007813 203.71351563 2.87890625 203.05078125 C-9.19674569 180.99786934 -13.94027117 153.5516934 -18 129 C-20.97 128.67 -23.94 128.34 -27 128 C-27 128.66 -27 129.32 -27 130 C-27.72179443 130.05534912 -28.44358887 130.11069824 -29.18725586 130.16772461 C-32.43772168 130.4196154 -35.68759621 130.67846301 -38.9375 130.9375 C-40.64196289 131.06801758 -40.64196289 131.06801758 -42.38085938 131.20117188 C-43.46044922 131.28818359 -44.54003906 131.37519531 -45.65234375 131.46484375 C-46.65257568 131.543396 -47.65280762 131.62194824 -48.68334961 131.70288086 C-50.95853115 131.75472794 -50.95853115 131.75472794 -52 133 C-54.08240195 133.28811211 -56.17317788 133.51608891 -58.265625 133.71875 C-60.18955078 133.91017578 -60.18955078 133.91017578 -62.15234375 134.10546875 C-63.51819723 134.23731042 -64.88408305 134.36881756 -66.25 134.5 C-68.90136637 134.75732168 -71.55227832 135.01855348 -74.203125 135.28125 C-75.38551758 135.39533203 -76.56791016 135.50941406 -77.78613281 135.62695312 C-80.5755214 135.95072901 -83.25358795 136.4305801 -86 137 C-86.10608078 137.60377472 -86.21216156 138.20754944 -86.32145691 138.82962036 C-87.49959779 145.15174004 -89.20006195 151.10775261 -91.30078125 157.1796875 C-91.61903366 158.11370392 -91.93728607 159.04772034 -92.2651825 160.01004028 C-92.93539666 161.97241164 -93.60868234 163.93373644 -94.28491211 165.89404297 C-95.30654291 168.85771891 -96.31710055 171.82499623 -97.32617188 174.79296875 C-108.6069229 207.80562485 -108.6069229 207.80562485 -115 213 C-115.99 213 -116.98 213 -118 213 C-118 213.66 -118 214.32 -118 215 C-126.57142857 216.28571429 -126.57142857 216.28571429 -130 215 C-130 214.34 -130 213.68 -130 213 C-131.11375 212.6596875 -131.11375 212.6596875 -132.25 212.3125 C-135.51139591 210.75592468 -136.92894975 208.91481146 -139 206 C-144.85125573 206.78372984 -149.97242406 208.75139964 -155.46484375 210.84375 C-161.58879964 212.84672342 -167.59802753 213.18147178 -174 213.1875 C-174.65355469 213.19974609 -175.30710938 213.21199219 -175.98046875 213.22460938 C-183.39008055 213.24546194 -190.68460556 212.06321403 -198 211 C-197.99111755 211.69855606 -197.98223511 212.39711212 -197.9730835 213.11683655 C-197.89270751 219.72212577 -197.8319195 226.32727715 -197.79275131 232.93294621 C-197.77193689 236.32847638 -197.74373412 239.72360015 -197.69824219 243.11889648 C-197.64619211 247.02843243 -197.62700382 250.93780773 -197.609375 254.84765625 C-197.58872986 256.05833267 -197.56808472 257.26900909 -197.54681396 258.51637268 C-197.54502996 265.2517968 -197.88701404 269.56686005 -202 275 C-206.14078048 278.74642043 -210.02375599 279.82420902 -215.47265625 280.16015625 C-220.37924972 279.84922838 -224.04619198 277.86632408 -227.5703125 274.5 C-230.81255315 270.79458212 -232.12653569 267.81209189 -232.12025452 262.95674133 C-232.12231651 261.72629593 -232.12231651 261.72629593 -232.12442017 260.47099304 C-232.11902725 259.12663933 -232.11902725 259.12663933 -232.11352539 257.75512695 C-232.11367142 256.80859253 -232.11381744 255.86205811 -232.1139679 254.88684082 C-232.11327047 251.75396443 -232.10548599 248.62114727 -232.09765625 245.48828125 C-232.09579147 243.3178053 -232.09436785 241.14732894 -232.09336853 238.97685242 C-232.08954811 233.26072022 -232.07972184 227.54461338 -232.06866455 221.82849121 C-232.05844024 215.99699242 -232.05386872 210.16548954 -232.04882812 204.33398438 C-232.03809918 192.88931177 -232.02102842 181.44465799 -232 170 C-232.99 170 -233.98 170 -235 170 C-235.2475 170.5775 -235.495 171.155 -235.75 171.75 C-237.18299988 174.32939979 -238.78424676 176.06121592 -241 178 C-241.66 178 -242.32 178 -243 178 C-243 178.66 -243 179.32 -243 180 C-243.804375 180.268125 -244.60875 180.53625 -245.4375 180.8125 C-246.7059375 181.4003125 -246.7059375 181.4003125 -248 182 C-248.33 182.99 -248.66 183.98 -249 185 C-249.66 185 -250.32 185 -251 185 C-251 185.66 -251 186.32 -251 187 C-253.51326159 188.49347477 -256.03434909 189.96961326 -258.5625 191.4375 C-259.26697266 191.85837891 -259.97144531 192.27925781 -260.69726562 192.71289062 C-265.21964348 195.31794699 -268.78339707 196.62297876 -274 197 C-274 197.66 -274 198.32 -274 199 C-278.1196377 200.29243536 -281.66831683 201.26252625 -286 201 C-286 201.66 -286 202.32 -286 203 C-294.75003718 204.6039348 -303.10747704 205.26197285 -312 205 C-308.65191854 201.28744385 -304.92300639 198.92808182 -300.6875 196.375 C-295.37203756 193.11204882 -290.11081066 189.79668401 -284.9375 186.3125 C-278.78385326 182.17638849 -272.58911213 178.1072041 -266.375 174.0625 C-258.08288935 168.66377431 -249.7988177 163.25308857 -241.52362061 157.82849121 C-239.69384971 156.62916194 -237.86381098 155.43024244 -236.03369141 154.23144531 C-230.45043039 150.57390574 -224.86837931 146.91456895 -219.29109192 143.2479248 C-216.85803559 141.64884887 -214.42382884 140.05153012 -211.9894104 138.45452881 C-210.83503546 137.69661139 -209.68120094 136.93787019 -208.52792358 136.17828369 C-206.94184207 135.13372806 -205.35378735 134.09217041 -203.765625 133.05078125 C-202.41645996 132.16386597 -202.41645996 132.16386597 -201.04003906 131.2590332 C-199 130 -199 130 -198 130 C-197.01 152.77 -197.01 152.77 -196 176 C-176.45893136 180.59872725 -176.45893136 180.59872725 -158.10546875 174.78125 C-152.2116037 170.3143207 -149.47496151 164.13437494 -148 157 C-147.74318124 152.33679382 -147.76858522 147.66953744 -147.75 143 C-147.729375 141.73542969 -147.70875 140.47085938 -147.6875 139.16796875 C-147.65086181 130.27404744 -147.6638303 119.84609075 -153.3125 112.4375 C-156.06644109 109.93973948 -158.58065864 108.4313522 -162 107 C-159.21196271 104.04197521 -156.3989259 101.79716546 -152.97265625 99.6171875 C-151.53696289 98.70259766 -151.53696289 98.70259766 -150.07226562 97.76953125 C-148.58243164 96.83173828 -148.58243164 96.83173828 -147.0625 95.875 C-146.07314453 95.24207031 -145.08378906 94.60914063 -144.06445312 93.95703125 C-139.78435065 91.24562807 -135.76810431 88.76311336 -131 87 C-129.86756424 88.38980752 -128.74436881 89.78714677 -127.625 91.1875 C-126.99851562 91.96480469 -126.37203125 92.74210937 -125.7265625 93.54296875 C-124.02192866 95.96879382 -122.98012094 98.21309045 -122 101 C-121.01 101 -120.02 101 -119 101 C-119 100.34 -119 99.68 -119 99 C-116.525 98.505 -116.525 98.505 -114 98 C-114 97.34 -114 96.68 -114 96 C-113.01 96 -112.02 96 -111 96 C-110.84144531 95.40574219 -110.68289063 94.81148438 -110.51953125 94.19921875 C-108.6222155 87.45903074 -105.98247279 81.32000186 -103 75 C-102.75000244 74.19506104 -102.50000488 73.39012207 -102.24243164 72.56079102 C-98.80327337 62.84090956 -91.55076709 58.90266751 -83.1875 53.8125 C-81.75271158 52.91088953 -80.31978229 52.00631413 -78.88867188 51.09887695 C-75.99813905 49.26871026 -73.10036126 47.45098198 -70.19677734 45.64160156 C-64.04270997 41.78959883 -58.02316138 37.73981521 -52 33.6875 C-50.04195527 32.37847445 -48.08365334 31.06983347 -46.125 29.76171875 C-44.74987613 28.84133088 -43.37482247 27.92083803 -42 27 C-41.34 27.33 -40.68 27.66 -40 28 C-40.47832275 29.15298584 -40.95664551 30.30597168 -41.44946289 31.49389648 C-43.25941924 35.85692238 -45.06908057 40.22007059 -46.87866211 44.58325195 C-47.65527694 46.45568009 -48.43196708 48.32807699 -49.20874023 50.20043945 C-54.15637542 62.12657495 -59.09100746 74.05790319 -64 86 C-62.77144287 85.84644043 -61.54288574 85.69288086 -60.27709961 85.53466797 C-50.45038141 84.31787725 -40.90344669 83.73707664 -31 84 C-31 83.34 -31 82.68 -31 82 C-29.35 82 -27.7 82 -26 82 C-26.15033691 80.93884224 -26.15033691 80.93884224 -26.30371094 79.85624695 C-27.24761088 73.19105723 -28.18952664 66.52559048 -29.12921143 59.85980511 C-29.61238832 56.43282916 -30.09633327 53.00596533 -30.58203125 49.5793457 C-31.14030518 45.64045785 -31.69524261 41.70110348 -32.25 37.76171875 C-32.51248535 35.9147364 -32.51248535 35.9147364 -32.78027344 34.03044128 C-32.94043945 32.88948502 -33.10060547 31.74852875 -33.265625 30.57299805 C-33.40774414 29.567061 -33.54986328 28.56112396 -33.69628906 27.52470398 C-34 25 -34 25 -34 22 C-32.38623047 20.60888672 -32.38623047 20.60888672 -30.1171875 19.1796875 C-29.28541992 18.64819092 -28.45365234 18.11669434 -27.59667969 17.5690918 C-26.69852539 17.0100415 -25.80037109 16.45099121 -24.875 15.875 C-23.52003418 15.01418823 -23.52003418 15.01418823 -22.13769531 14.13598633 C-20.30310539 12.971077 -18.465862 11.81033594 -16.62597656 10.65380859 C-12.98271152 8.3593239 -9.36679731 6.0233683 -5.75 3.6875 C-3.83422287 2.4569393 -1.91717218 1.22838681 0 0 Z " fill="#FFFFFF" fill-opacity="1" transform="translate(429,169)"/>
<path d="M0 0 C3.7971506 4.52524502 7.0018061 9.38969895 10.25 14.3125 C10.80429687 15.14845703 11.35859375 15.98441406 11.9296875 16.84570312 C13.28857434 18.89574792 14.6452753 20.94720338 16 23 C14.0605141 27.44601501 11.02248008 29.21988113 7 31.6875 C5.44199481 32.66944172 3.88475197 33.65259367 2.328125 34.63671875 C1.47412109 35.17345215 0.62011719 35.71018555 -0.25976562 36.26318359 C-5.29267096 39.45314159 -10.26736439 42.73230929 -15.25 46 C-16.92353831 47.09509645 -18.59707832 48.19019033 -20.27075195 49.28507996 C-29.24167691 55.154476 -38.20749551 61.03167947 -47.17407227 66.90771484 C-58.37692698 74.24889644 -69.58686372 81.57921785 -80.79833984 88.90722656 C-86.19927745 92.43756339 -91.59961251 95.96882173 -97 99.5 C-103.46455208 103.72700887 -109.92921458 107.95384816 -116.39453125 112.1796875 C-127.76715401 119.61349945 -139.13614081 127.05280158 -150.5 134.5 C-162.92730975 142.64412077 -175.36120877 150.77810924 -187.79833984 158.90722656 C-193.19927746 162.43756339 -198.59960539 165.96883261 -204 169.5 C-206.1666638 170.91667105 -208.33333047 172.33333772 -210.5 173.75 C-211.5725 174.45125 -212.645 175.1525 -213.75 175.875 C-223.49999999 182.25 -223.49999999 182.25 -226.74926758 184.37451172 C-228.91838712 185.79278845 -231.08749517 187.21108276 -233.2565918 188.62939453 C-238.63563599 192.1465705 -244.01487214 195.66345214 -249.39453125 199.1796875 C-260.76715401 206.61349945 -272.13614081 214.05280158 -283.5 221.5 C-295.92730975 229.64412077 -308.36120877 237.77810924 -320.79833984 245.90722656 C-326.19927745 249.43756339 -331.59961251 252.96882173 -337 256.5 C-343.46455208 260.72700887 -349.92921458 264.95384816 -356.39453125 269.1796875 C-366.54244857 275.81296029 -376.6885202 282.44901198 -386.82861328 289.09423828 C-389.262843 290.68948552 -391.69742341 292.28419525 -394.13232422 293.87841797 C-399.61433658 297.4681232 -405.09468122 301.06022947 -410.56637573 304.66564941 C-412.95406278 306.23841686 -415.34337176 307.8087093 -417.73291016 309.37866211 C-419.3911748 310.46952569 -421.04718362 311.56381603 -422.703125 312.65820312 C-424.20939453 313.64723633 -424.20939453 313.64723633 -425.74609375 314.65625 C-426.61935303 315.23181641 -427.4926123 315.80738281 -428.39233398 316.40039062 C-431.18679405 318.11458427 -434.04943989 319.57419703 -437 321 C-437.34780518 320.44538086 -437.69561035 319.89076172 -438.05395508 319.31933594 C-439.63833885 316.79509033 -441.22539108 314.27253298 -442.8125 311.75 C-443.63331055 310.44095703 -443.63331055 310.44095703 -444.47070312 309.10546875 C-445.00244141 308.26113281 -445.53417969 307.41679687 -446.08203125 306.546875 C-446.56905518 305.77182617 -447.0560791 304.99677734 -447.55786133 304.19824219 C-448.95910746 302.06233223 -450.44452527 300.02554686 -452 298 C-450.50964389 294.12337571 -448.45059297 292.69432365 -444.96875 290.53125 C-443.42586304 289.56070679 -443.42586304 289.56070679 -441.85180664 288.57055664 C-440.19266235 287.5456311 -440.19266235 287.5456311 -438.5 286.5 C-436.77173735 285.41662936 -435.04584456 284.329553 -433.32008362 283.24220276 C-432.16599874 282.51525743 -431.01124244 281.78937696 -429.8558197 281.06455994 C-425.20310279 278.14302423 -420.61818246 275.13242341 -416.0625 272.0625 C-405.56501811 265.01298134 -394.96839462 258.1157102 -384.37890625 251.20556641 C-378.91678649 247.64084559 -373.45866897 244.07000166 -368 240.5 C-365.82944717 239.08069845 -363.65887424 237.66142764 -361.48828125 236.2421875 C-360.41529785 235.54061523 -359.34231445 234.83904297 -358.23681641 234.11621094 C-355.02652258 232.0173403 -351.81602308 229.91878462 -348.60546875 227.8203125 C-337.23284599 220.38650055 -325.86385919 212.94719842 -314.5 205.5 C-302.07269025 197.35587923 -289.63879123 189.22189076 -277.20166016 181.09277344 C-271.80072255 177.56243661 -266.40038749 174.03117827 -261 170.5 C-254.53544792 166.27299113 -248.07078542 162.04615184 -241.60546875 157.8203125 C-230.23284599 150.38650055 -218.86385919 142.94719842 -207.5 135.5 C-195.07269025 127.35587923 -182.63879123 119.22189076 -170.20166016 111.09277344 C-164.80072255 107.56243661 -159.40038749 104.03117827 -154 100.5 C-147.53544792 96.27299113 -141.07078542 92.04615184 -134.60546875 87.8203125 C-123.23284599 80.38650055 -111.86385919 72.94719842 -100.5 65.5 C-88.07269025 57.35587923 -75.63879123 49.22189076 -63.20166016 41.09277344 C-58.88488869 38.27110461 -54.56851199 35.44883228 -50.25219727 32.62646484 C-48.09781786 31.21781349 -45.94335925 29.80928327 -43.78881836 28.40087891 C-38.74593552 25.104242 -33.70372312 21.80659423 -28.66400146 18.50512695 C-26.30264296 16.95832043 -23.94088687 15.41212154 -21.57910156 13.8659668 C-19.92734799 12.78428119 -18.27616458 11.7017251 -16.625 10.61914062 C-11.12069016 7.01612865 -5.59453839 3.46136908 0 0 Z " fill="#FFFFFF" fill-opacity="1" transform="translate(471,103)"/>
<path d="M0 0 C5.28 0 10.56 0 16 0 C16 0.66 16 1.32 16 2 C16.75925781 2.06058594 17.51851563 2.12117188 18.30078125 2.18359375 C19.29464844 2.26738281 20.28851563 2.35117188 21.3125 2.4375 C22.29863281 2.51871094 23.28476563 2.59992188 24.30078125 2.68359375 C27 3 27 3 30 4 C30 4.66 30 5.32 30 6 C31.6396875 6.2165625 31.6396875 6.2165625 33.3125 6.4375 C37 7 37 7 40 8 C40 8.66 40 9.32 40 10 C41.175625 10.2165625 41.175625 10.2165625 42.375 10.4375 C45 11 45 11 47 12 C47 12.66 47 13.32 47 14 C48.98 14.66 50.96 15.32 53 16 C53 16.66 53 17.32 53 18 C53.61230469 18.2371875 54.22460938 18.474375 54.85546875 18.71875 C58.27761868 20.76331316 58.9804324 23.58517345 60.30078125 27.22265625 C62.32060006 35.24551198 59.61496107 43.77007787 56 51 C51.55151875 55.44848125 48.61014499 56.15420634 42.4375 56.1875 C34.57686403 56.13112249 28.24042279 54.93530654 21 52 C9.16699982 49.65018436 -3.30988873 50.1204388 -14 56 C-14.66 56 -15.32 56 -16 56 C-16 56.66 -16 57.32 -16 58 C-17.11375 58.2475 -18.2275 58.495 -19.375 58.75 C-23.04615198 59.61005339 -23.04615198 59.61005339 -24.4375 62.125 C-24.7159375 63.053125 -24.7159375 63.053125 -25 64 C-25.66 64 -26.32 64 -27 64 C-27.66 65.32 -28.32 66.64 -29 68 C-29.66 68 -30.32 68 -31 68 C-31.268125 68.680625 -31.53625 69.36125 -31.8125 70.0625 C-33 73 -33 73 -34.625 76.25 C-36.75406449 82.05653953 -36.89279403 86.72743338 -34.625 92.5 C-33.24138268 95.09022556 -33.24138268 95.09022556 -31 96 C-31 96.66 -31 97.32 -31 98 C-29.2984375 98.4640625 -29.2984375 98.4640625 -27.5625 98.9375 C-24 100 -24 100 -23 101 C-21.30252758 101.2167947 -19.59706176 101.37160167 -17.890625 101.5 C-16.83101562 101.58193604 -15.77140625 101.66387207 -14.6796875 101.74829102 C-13.54789063 101.83135498 -12.41609375 101.91441895 -11.25 102 C-10.11304688 102.08757568 -8.97609375 102.17515137 -7.8046875 102.26538086 C-3.03233807 102.63156585 1.74072535 102.98512794 6.515625 103.31640625 C8.24039063 103.43822266 8.24039063 103.43822266 10 103.5625 C10.969375 103.62566406 11.93875 103.68882812 12.9375 103.75390625 C15 104 15 104 16 105 C18.51859228 105.5619518 21.02873303 106.07976773 23.5625 106.5625 C24.27341797 106.70107422 24.98433594 106.83964844 25.71679688 106.98242188 C27.47719932 107.32505054 29.23851797 107.66296553 31 108 C31 108.66 31 109.32 31 110 C32.670625 110.2165625 32.670625 110.2165625 34.375 110.4375 C38 111 38 111 40 112 C40 112.66 40 113.32 40 114 C41.98 114.495 41.98 114.495 44 115 C44 115.66 44 116.32 44 117 C45.65 117.66 47.3 118.32 49 119 C49 119.66 49 120.32 49 121 C49.72703125 121.1959375 50.4540625 121.391875 51.203125 121.59375 C54.87961295 123.44226349 56.5834367 126.13708526 58.75 129.5 C59.14832031 130.09425781 59.54664063 130.68851563 59.95703125 131.30078125 C61.41345578 133.48788656 62.82383714 135.64767428 64 138 C66.76276177 137.47731534 69.3260876 136.89130413 72 136 C77.87546347 135.40249524 81.35660298 136.05193081 86.234375 139.44140625 C89.15662418 142.02100232 90.45879355 144.40385162 92 148 C92.09375 150.71875 92.09375 150.71875 92 153 C93.57201172 152.33291016 93.57201172 152.33291016 95.17578125 151.65234375 C96.55448063 151.0802304 97.93339839 150.50864309 99.3125 149.9375 C100.00279297 149.64294922 100.69308594 149.34839844 101.40429688 149.04492188 C106.66015625 146.88671875 106.66015625 146.88671875 110 148 C107.35897813 149.72682199 104.71795141 151.45363654 102.0769043 153.18041992 C99.74493025 154.70516092 97.41307587 156.2300847 95.08129883 157.75512695 C89.13033652 161.64699103 83.17820164 165.53702693 77.22265625 169.421875 C63.7634883 178.20489095 50.3507152 187.05291258 37 196 C36.34 195.67 35.68 195.34 35 195 C35.350625 193.948125 35.70125 192.89625 36.0625 191.8125 C38.46042396 182.0310404 36.3149668 170.97239129 32 162 C30.6908154 160.64294759 29.36157224 159.30448326 28 158 C28 157.34 28 156.68 28 156 C25.36 155.34 22.72 154.68 20 154 C20 153.34 20 152.68 20 152 C13.55357987 151.49837459 7.11158986 151.03985294 0.65234375 150.74609375 C-0.25225586 150.70476318 -1.15685547 150.66343262 -2.08886719 150.62084961 C-3.89532866 150.54069557 -5.70197709 150.4646432 -7.50878906 150.39282227 C-13.89078042 150.10921958 -13.89078042 150.10921958 -15 149 C-17.60504145 148.62322564 -20.19787084 148.29280187 -22.8125 148 C-30.98351054 147.07032058 -30.98351054 147.07032058 -35 146 C-35 145.34 -35 144.68 -35 144 C-35.59167969 143.89042969 -36.18335938 143.78085938 -36.79296875 143.66796875 C-41.35386882 142.75281262 -45.23931435 141.91149857 -49 139 C-49 138.34 -49 137.68 -49 137 C-50.98 136.34 -52.96 135.68 -55 135 C-55 134.34 -55 133.68 -55 133 C-55.75152344 132.76539063 -56.50304687 132.53078125 -57.27734375 132.2890625 C-63.87843781 129.16372385 -68.4596151 119.71817427 -71 113 C-75.57450847 97.82320113 -73.8715801 80.90004514 -69 66 C-68.77989258 65.31131836 -68.55978516 64.62263672 -68.33300781 63.91308594 C-63.22603928 48.53519884 -53.08897055 32.88007349 -41 22 C-40.34 22 -39.68 22 -39 22 C-39 21.34 -39 20.68 -39 20 C-37.3203125 18.4921875 -37.3203125 18.4921875 -35.125 16.875 C-34.40570313 16.33617188 -33.68640625 15.79734375 -32.9453125 15.2421875 C-31 14 -31 14 -29 14 C-29 13.34 -29 12.68 -29 12 C-27.02 11.34 -25.04 10.68 -23 10 C-23 9.34 -23 8.68 -23 8 C-20.09399739 6.74335022 -18.20395416 6 -15 6 C-15 5.34 -15 4.68 -15 4 C-9.77487721 2.53329887 -5.4185766 1.77422598 0 2 C0 1.34 0 0.68 0 0 Z " fill="#FFFFFF" fill-opacity="1" transform="translate(137,99)"/>
<path d="M0 0 C1.10988281 0.16113281 2.21976562 0.32226562 3.36328125 0.48828125 C6.11095519 4.60979216 6.31209785 7.64931658 5.36328125 12.48828125 C3.41919716 16.43971843 0.94976753 19.93250031 -1.63671875 23.48828125 C-26.37482756 57.55484159 -42.69340739 98.50860104 -51.63671875 139.48828125 C-52.15584018 141.67618814 -52.67657385 143.86371337 -53.19921875 146.05078125 C-57.14560018 163.29475229 -59.35332962 180.61482792 -60.93969727 198.21948242 C-61.05462524 199.48369019 -61.05462524 199.48369019 -61.171875 200.7734375 C-61.23769775 201.514729 -61.30352051 202.25602051 -61.37133789 203.01977539 C-61.57355081 204.90070897 -61.84911467 206.77390886 -62.1574707 208.64038086 C-62.74696958 213.37348927 -62.77994333 218.00525313 -62.76953125 222.76953125 C-62.77048798 223.74184692 -62.7714447 224.7141626 -62.77243042 225.71594238 C-62.77310823 227.76326564 -62.77128187 229.81059108 -62.76708984 231.85791016 C-62.76173598 234.97823956 -62.76704843 238.09842503 -62.7734375 241.21875 C-62.77277665 243.21484407 -62.77149534 245.21093804 -62.76953125 247.20703125 C-62.77155548 248.13326294 -62.77357971 249.05949463 -62.77566528 250.01379395 C-62.75798402 254.93765992 -62.46168505 259.61807858 -61.63671875 264.48828125 C-61.41464807 266.25744435 -61.2046894 268.02820804 -61.01171875 269.80078125 C-60.91632812 270.64253906 -60.8209375 271.48429687 -60.72265625 272.3515625 C-60.63671875 274.48828125 -60.63671875 274.48828125 -61.63671875 276.48828125 C-62.29671875 276.48828125 -62.95671875 276.48828125 -63.63671875 276.48828125 C-63.96671875 277.47828125 -64.29671875 278.46828125 -64.63671875 279.48828125 C-65.09046875 279.90078125 -65.54421875 280.31328125 -66.01171875 280.73828125 C-68.41636112 283.32789611 -69.33834475 286.21143259 -70.63671875 289.48828125 C-76.17066821 281.18735706 -73.78324579 266.31378807 -73.76953125 256.4921875 C-73.77020682 254.76928188 -73.77117895 253.04637636 -73.77243042 251.32347107 C-73.77389586 247.73053063 -73.77179047 244.13761524 -73.76708984 240.54467773 C-73.76139761 235.97483351 -73.76467577 231.4050481 -73.77066231 226.83520603 C-73.77430293 223.2824002 -73.7731133 219.72960796 -73.77053452 216.17680168 C-73.76987467 214.49335663 -73.77066008 212.80991028 -73.77301407 211.12646675 C-73.78765389 197.71739511 -73.09390963 184.58448769 -71.13671875 171.30078125 C-71.00652344 170.37458984 -70.87632813 169.44839844 -70.7421875 168.49414062 C-69.766448 161.74773975 -69.766448 161.74773975 -68.63671875 159.48828125 C-68.41729545 157.38778248 -68.19822982 155.28724574 -67.98095703 153.18652344 C-61.66121715 103.65051981 -40.0819219 53.82690675 -12.63671875 12.48828125 C-11.99573242 11.50118164 -11.99573242 11.50118164 -11.34179688 10.49414062 C-10.19575696 8.74299164 -9.01898319 7.01892638 -7.82421875 5.30078125 C-7.17839844 4.35847656 -6.53257813 3.41617187 -5.8671875 2.4453125 C-3.63671875 0.48828125 -3.63671875 0.48828125 0 0 Z " fill="#FFFFFF" fill-opacity="1" transform="translate(116.63671875,12.51171875)"/>
<path d="M0 0 C1.65 0.33 3.3 0.66 5 1 C11.93020977 23.51123312 8.5843061 39.40646606 1 61 C0.46125244 62.57563721 0.46125244 62.57563721 -0.08837891 64.18310547 C-2.17461786 70.22038369 -4.50269776 76.12221799 -7 82 C-7.33435059 82.8058252 -7.66870117 83.61165039 -8.01318359 84.44189453 C-16.08736115 103.79465297 -26.17284702 122.37796265 -39 139 C-39.66257812 139.87269531 -40.32515625 140.74539063 -41.0078125 141.64453125 C-45.88573866 147.91473998 -51.19831287 153.78159334 -56.64501953 159.55712891 C-57.95089068 160.94770521 -59.2394923 162.35443749 -60.52734375 163.76171875 C-61.68943359 164.99341797 -61.68943359 164.99341797 -62.875 166.25 C-63.55304688 166.97703125 -64.23109375 167.7040625 -64.9296875 168.453125 C-67 170 -67 170 -69.6171875 170.375 C-72 170 -72 170 -74.25 167.75 C-77.03835036 163.36830658 -77.37666377 160.35066605 -76.6484375 155.10546875 C-75.49334016 151.35488161 -72.96335737 148.5153166 -70 146 C-69.34 146 -68.68 146 -68 146 C-67.74863281 145.41605469 -67.49726563 144.83210937 -67.23828125 144.23046875 C-65.84200562 141.71541076 -64.30843297 140.2524257 -62.1875 138.3125 C-51.69717262 128.0421311 -43.31927869 115.6637627 -36 103 C-35.34644531 101.9171875 -34.69289063 100.834375 -34.01953125 99.71875 C-18.34890132 73.28782292 -8.56674725 43.10945055 -3 13 C-2.62880946 11.08259193 -2.25428858 9.16582261 -1.875 7.25 C-1.72804688 6.49203125 -1.58109375 5.7340625 -1.4296875 4.953125 C-1 3 -1 3 0 0 Z " fill="#FFFFFF" fill-opacity="1" transform="translate(405,299)"/>
<path d="M0 0 C0.77601562 0.09023438 1.55203125 0.18046875 2.3515625 0.2734375 C4.375 0.625 4.375 0.625 6.375 1.625 C6.375 2.285 6.375 2.945 6.375 3.625 C6.9834375 3.84929687 7.591875 4.07359375 8.21875 4.3046875 C11.06313322 6.04635694 11.61329538 7.6895138 12.875 10.75 C14.37246578 14.28272113 15.90109309 17.72893315 17.6875 21.125 C19.375 24.625 19.375 24.625 19.375 27.625 C20.365 27.955 21.355 28.285 22.375 28.625 C23.38040529 29.61956534 24.38002503 30.62000009 25.375 31.625 C27.20199707 32.75546906 27.20199707 32.75546906 29.1875 33.6875 C30.15623047 34.16896484 30.15623047 34.16896484 31.14453125 34.66015625 C36.58145895 37.01203216 40.98354199 37.87858833 46.9375 37.8125 C48.85755859 37.80283203 48.85755859 37.80283203 50.81640625 37.79296875 C53.80437609 37.65193395 56.47547953 37.3206623 59.375 36.625 C55.57926392 39.76646869 51.60849533 42.53738966 47.484375 45.22265625 C46.82643448 45.65407928 46.16849396 46.08550232 45.49061584 46.52999878 C41.91827129 48.87051398 38.33873825 51.20000662 34.76049805 53.53149414 C33.31819096 54.47150825 31.87588948 55.41153096 30.43359375 56.3515625 C29.72808884 56.81088669 29.02258392 57.27021088 28.29570007 57.74345398 C24.38638387 60.29362475 20.50724299 62.87976914 16.66015625 65.5234375 C15.88124023 66.05187256 15.10232422 66.58030762 14.29980469 67.12475586 C12.93497187 68.05373187 11.57932753 68.99641995 10.23535156 69.95532227 C8.45703125 71.15234375 8.45703125 71.15234375 5.375 72.625 C2.44921875 71.87890625 2.44921875 71.87890625 0.375 70.625 C0.375 69.965 0.375 69.305 0.375 68.625 C-0.20378906 68.398125 -0.78257813 68.17125 -1.37890625 67.9375 C-10.19415123 62.78633076 -15.73123886 49.33438499 -18.4375 39.875 C-21.03668573 28.31976287 -20.36186003 17.43843461 -15.25 6.75 C-10.98521604 1.17297482 -6.86341863 -0.84931936 0 0 Z " fill="#FFFFFF" fill-opacity="1" transform="translate(65.625,289.375)"/>
<path d="M0 0 C2.23046875 0.25 2.23046875 0.25 5.85546875 1.1875 C5.85546875 1.8475 5.85546875 2.5075 5.85546875 3.1875 C6.768125 3.34992188 6.768125 3.34992188 7.69921875 3.515625 C11.49172386 4.69734761 13.09125952 7.84950412 14.85546875 11.1875 C18.50628887 20.27064008 19.83977015 29.52499887 20.85546875 39.1875 C14.77944425 43.79601011 8.59116474 48.05995286 2.10546875 52.0625 C-4.96736596 56.42906228 -11.89800176 60.96906862 -18.79345703 65.609375 C-23.32689863 68.65238294 -27.87322002 71.67612392 -32.41723633 74.70330811 C-35.08584264 76.48130277 -37.75383105 78.2602241 -40.421875 80.0390625 C-41.99609375 81.08854167 -43.5703125 82.13802083 -45.14453125 83.1875 C-45.80453125 82.8575 -46.46453125 82.5275 -47.14453125 82.1875 C-46.72042969 81.3625 -46.29632813 80.5375 -45.859375 79.6875 C-42.64804003 73.36364036 -39.60026437 67.03027506 -36.83203125 60.5 C-33.47667436 52.63346629 -29.52816754 45.13045718 -25.48828125 37.59765625 C-23.59485348 34.06400911 -21.81516171 30.4905027 -20.08203125 26.875 C-16.64950766 19.95160963 -12.49551 13.56054301 -8.14453125 7.1875 C-7.60699219 6.37023437 -7.06945312 5.55296875 -6.515625 4.7109375 C-4.66348587 2.17749378 -3.25617289 0.28469271 0 0 Z " fill="#FFFFFF" fill-opacity="1" transform="translate(404.14453125,90.8125)"/>
<path d="M0 0 C2.18923835 2.18923835 3.45301477 4.52933537 4.90234375 7.24609375 C6.07355132 9.11752506 7.4216751 10.46690085 9 12 C7.0191673 20.15488298 4.25405397 27.73676207 0.9375 35.4375 C0.2105896 37.13604126 0.2105896 37.13604126 -0.53100586 38.86889648 C-11.74114859 64.77536303 -25.45346485 88.85596845 -43 111 C-43.76570313 111.97324219 -44.53140625 112.94648438 -45.3203125 113.94921875 C-48.96082602 118.49668947 -52.71324667 122.9274726 -56.6875 127.1875 C-57.37199219 127.92355469 -58.05648438 128.65960938 -58.76171875 129.41796875 C-61.68052644 131.48100036 -63.49982154 131.41291543 -67 131 C-69.74665367 128.71112194 -69.97751113 127.17348559 -70.4375 123.625 C-69.66614884 117.23380465 -65.35209741 113.11647937 -61.0625 108.5625 C-58.15136955 105.42413846 -55.40990173 102.35181836 -53 98.8125 C-52.34 97.884375 -51.68 96.95625 -51 96 C-50.34 96 -49.68 96 -49 96 C-48.74863281 95.27683594 -48.49726563 94.55367188 -48.23828125 93.80859375 C-46.89497806 90.76179567 -45.28256487 88.64732029 -43.1875 86.0625 C-24.97006145 62.55758861 -13.02643507 34.52125093 -3.04638672 6.73535156 C-2.15208686 4.3975691 -1.16965115 2.20970838 0 0 Z " fill="#FFFFFF" fill-opacity="1" transform="translate(430,374)"/>
<path d="M0 0 C0.99 0.99 0.99 0.99 2 2 C1.62795283 4.54852309 1.14013706 6.89063197 0.5 9.375 C0.31131348 10.13031006 0.12262695 10.88562012 -0.07177734 11.66381836 C-0.69591166 14.11448551 -1.34450768 16.55754512 -2 19 C-2.20657227 19.78294434 -2.41314453 20.56588867 -2.62597656 21.37255859 C-9.64269731 47.55783255 -20.8387462 72.22118689 -36.70898438 94.19628906 C-37.61183447 95.45768401 -38.4972364 96.73166811 -39.36914062 98.01464844 C-40.53139074 99.71037647 -41.7604564 101.35992361 -43 103 C-43.66 103 -44.32 103 -45 103 C-45.28875 103.598125 -45.5775 104.19625 -45.875 104.8125 C-47 107 -47 107 -49 110 C-49.66 110 -50.32 110 -51 110 C-51.23460937 110.58265625 -51.46921875 111.1653125 -51.7109375 111.765625 C-53.29152924 114.50531734 -55.09401497 115.86983969 -57.625 117.75 C-58.44226563 118.36359375 -59.25953125 118.9771875 -60.1015625 119.609375 C-60.72804688 120.06828125 -61.35453125 120.5271875 -62 121 C-65.16115776 119.63016497 -65.9927092 119.0109362 -68 116 C-68.82811736 110.93540857 -68.71133793 107.12089613 -65.9375 102.75 C-64.57421875 101.375 -64.57421875 101.375 -63 100 C-62.38769531 99.46375 -61.77539062 98.9275 -61.14453125 98.375 C-59.92845887 97.33193585 -58.69887532 96.30430787 -57.453125 95.296875 C-55.86712389 94.04219297 -55.86712389 94.04219297 -55 92 C-54.34 92 -53.68 92 -53 92 C-52.7525 91.44699219 -52.505 90.89398438 -52.25 90.32421875 C-50.7630476 87.55941664 -48.9464116 85.27679611 -47 82.8125 C-28.76454926 58.97903405 -18.53225179 30.74057366 -11 2 C-10.28972656 1.93941406 -9.57945312 1.87882812 -8.84765625 1.81640625 C-7.92855469 1.73261719 -7.00945312 1.64882813 -6.0625 1.5625 C-5.14597656 1.48128906 -4.22945313 1.40007812 -3.28515625 1.31640625 C-1.03840268 1.23955024 -1.03840268 1.23955024 0 0 Z " fill="#FFFFFF" fill-opacity="1" transform="translate(380,302)"/>
<path d="M0 0 C3 1 3 1 4.8046875 4.515625 C5.49996219 6.09147886 6.18964186 7.66980808 6.875 9.25 C17.92513022 33.5570378 33.79274881 54.19569152 52.828125 72.7578125 C55.86078538 75.88865254 56.9203624 78.62024112 57.06640625 82.984375 C56.808355 87.14447401 56.23750612 88.72194405 53.4375 92 C52.633125 92.66 51.82875 93.32 51 94 C48.03 93.01 48.03 93.01 45 92 C45 91.34 45 90.68 45 90 C44.401875 89.731875 43.80375 89.46375 43.1875 89.1875 C41.00152146 88.00082594 39.58667406 86.90400887 38 85 C38 84.34 38 83.68 38 83 C37.11405151 82.61751099 37.11405151 82.61751099 36.21020508 82.22729492 C33.77116092 80.87292897 32.43028212 79.48889801 30.63671875 77.36328125 C29.72865479 76.28941162 29.72865479 76.28941162 28.80224609 75.19384766 C15.48634427 58.98459626 3.79994108 41.88626005 -5.12402344 22.86230469 C-6.00661712 20.98593217 -6.91146433 19.12158852 -7.8203125 17.2578125 C-12 8.52906977 -12 8.52906977 -12 4 C-9.08493545 2.05662363 -8.17028308 1.72325333 -4.875 1.4375 C-1.22536034 1.43313101 -1.22536034 1.43313101 0 0 Z " fill="#FFFFFF" fill-opacity="1" transform="translate(118,376)"/>
<path d="M0 0 C0.25056152 0.59723877 0.50112305 1.19447754 0.75927734 1.80981445 C14.06492784 33.36623135 30.16769204 63.06411002 54.18164062 87.85498047 C58.02100286 91.8410785 60.81991306 94.94700893 61.3125 100.5625 C61.02962563 103.6741181 60.65799999 105.40937502 59 108 C51.9222329 108.70243212 51.9222329 108.70243212 47.90234375 105.640625 C46.88855199 104.53324206 45.90162107 103.40088716 44.9375 102.25 C44.39295166 101.63020264 43.84840332 101.01040527 43.28735352 100.37182617 C19.51685308 72.79939149 2.07293694 41.42112854 -12 8 C-4.23529412 0 -4.23529412 0 0 0 Z " fill="#FFFFFF" fill-opacity="1" transform="translate(82,397)"/>
<path d="M0 0 C2.77612771 10.43508998 4.27151846 20.97344787 5.58396912 31.67588806 C5.87505335 34.0016687 6.18251377 36.32543167 6.5022583 38.64744568 C7.93450711 49.38224207 8.28064367 59.9189575 8.23046875 70.73828125 C8.22927166 72.47885605 8.2288249 74.21943152 8.2290802 75.96000671 C8.22753186 79.57437293 8.21936827 83.18863778 8.20581055 86.80297852 C8.18875925 91.4030517 8.18499914 96.00301493 8.18575573 100.60311604 C8.18548218 104.18504355 8.17997245 107.76694773 8.17275429 111.34886742 C8.16960573 113.04430147 8.1676093 114.73973813 8.16686058 116.43517494 C8.14623887 138.69666321 8.14623887 138.69666321 6 149 C5.79371915 150.60185991 5.60532699 152.206156 5.4375 153.8125 C5.35371094 154.60269531 5.26992188 155.39289063 5.18359375 156.20703125 C5.09271484 157.09455078 5.09271484 157.09455078 5 158 C4.34 157.67 3.68 157.34 3 157 C2.41680934 154.65502395 1.9581391 152.3783562 1.5625 150 C1.22412109 148.081875 1.22412109 148.081875 0.87890625 146.125 C0.75257813 145.35003174 0.62625 144.57506348 0.49609375 143.77661133 C0.12857921 141.71965127 -0.30032793 139.67345539 -0.76171875 137.63549805 C-3.76947022 123.78216891 -3.30015618 109.91994736 -3.125 95.8125 C-3.08980632 92.06533778 -3.0590695 88.31820994 -3.03366089 84.57096863 C-3.01681944 82.25703896 -2.99379197 79.94314344 -2.96365356 77.62934875 C-2.91683893 72.61228423 -2.99481069 67.9365964 -4 63 C-4.16751532 61.18306519 -4.31042724 59.36370774 -4.4296875 57.54296875 C-5.37149418 44.08722396 -6.90924074 31.12030095 -9.63671875 17.91796875 C-9.81847656 17.03753906 -10.00023437 16.15710938 -10.1875 15.25 C-10.34605469 14.53328125 -10.50460937 13.8165625 -10.66796875 13.078125 C-11.06899272 10.56818673 -11.33667263 8.53518544 -11 6 C-9.1015625 4.19921875 -9.1015625 4.19921875 -6.625 2.6875 C-5.40683594 1.91986328 -5.40683594 1.91986328 -4.1640625 1.13671875 C-2 0 -2 0 0 0 Z " fill="#FFFFFF" fill-opacity="1" transform="translate(452,155)"/>
<path d="M0 0 C3.0390625 0.42578125 3.0390625 0.42578125 4.953125 1.9453125 C28.24237863 33.1571661 45.29469876 69.05408127 56.0390625 106.42578125 C52.0790625 108.73578125 48.1190625 111.04578125 44.0390625 113.42578125 C43.25595703 110.93724609 43.25595703 110.93724609 42.45703125 108.3984375 C32.99710174 78.87027072 20.7170632 49.62217459 2.171875 24.53515625 C1.66599854 23.83632324 1.16012207 23.13749023 0.63891602 22.41748047 C-0.35732573 21.04580889 -1.37155942 19.68695592 -2.40649414 18.34423828 C-5.55056291 14.00056771 -6.51186625 10.77473585 -6.43188477 5.41064453 C-5.53529606 1.63186477 -3.72783994 0.53606142 0 0 Z " fill="#FFFFFF" fill-opacity="1" transform="translate(386.9609375,12.57421875)"/>
<path d="M0 0 C6.20282105 0.99688195 10.26750929 8.61269254 13.8203125 13.34765625 C39.07217136 48.96273317 39.07217136 48.96273317 38.484375 57.453125 C37.33963018 60.07563131 36.0245024 62.55064716 34.625 65.046875 C34.08875 66.00851563 33.5525 66.97015625 33 67.9609375 C32.54625 68.77304688 32.0925 69.58515625 31.625 70.421875 C31.295 71.081875 30.965 71.741875 30.625 72.421875 C29.965 72.421875 29.305 72.421875 28.625 72.421875 C28.28879639 71.74833984 27.95259277 71.07480469 27.60620117 70.38085938 C18.69416237 52.62637163 9.03417478 36.66307045 -3.37890625 21.19140625 C-6.15934003 17.33362239 -7.42357239 14.75761568 -7.25 9.984375 C-6.16807634 5.57940008 -4.94835655 0.87898439 0 0 Z " fill="#FFFFFF" fill-opacity="1" transform="translate(352.375,43.578125)"/>
<path d="M0 0 C2.475 0.99 2.475 0.99 5 2 C5 2.66 5 3.32 5 4 C5.7425 4.268125 6.485 4.53625 7.25 4.8125 C12.00636267 6.86638388 12.00636267 6.86638388 14 9 C14.25289526 11.99156589 14.27140554 14.64789523 14.125 17.625 C13.68571225 36.6085065 15.82889657 55.08423695 19.54492188 73.67529297 C20.47583233 78.4307272 21.23291295 83.21579919 22 88 C15.61694124 86.4680659 10.43910304 84.025414 6 79 C2.74712938 72.33094591 2.11310679 64.83795954 1.3125 57.5625 C1.11817383 55.96051758 1.11817383 55.96051758 0.91992188 54.32617188 C0.25875554 48.59956184 -0.07269828 43.02738109 0.01977539 37.26586914 C-0.00391256 34.55169803 -0.38667274 31.92127358 -0.76855469 29.23730469 C-1.28739711 24.22182793 -1.14244771 19.16157117 -1.125 14.125 C-1.12886719 12.98546875 -1.13273437 11.8459375 -1.13671875 10.671875 C-1.13542969 9.58648437 -1.13414063 8.50109375 -1.1328125 7.3828125 C-1.13112061 5.90385498 -1.13112061 5.90385498 -1.12939453 4.39501953 C-1 2 -1 2 0 0 Z " fill="#FFFFFF" fill-opacity="1" transform="translate(81,236)"/>
<path d="M0 0 C3.29863657 1.19950421 4.5949537 2.93179398 6.3125 5.9375 C7.51584361 10.45003855 7.26055112 14.6567846 4.93554688 18.71899414 C3.41929452 20.77220932 1.82840131 22.7325172 0.1875 24.6875 C-4.58096354 30.6273513 -9.01962263 36.64392985 -13.125 43.0625 C-13.58181152 43.7733374 -14.03862305 44.4841748 -14.50927734 45.21655273 C-16.89325452 48.94102339 -16.89325452 48.94102339 -18.8605957 52.89135742 C-19.9375 54.75 -19.9375 54.75 -23.3125 56 C-26.9375 56.75 -26.9375 56.75 -30.9375 56.75 C-30.9375 57.41 -30.9375 58.07 -30.9375 58.75 C-33.5775 59.41 -36.2175 60.07 -38.9375 60.75 C-38.9375 61.41 -38.9375 62.07 -38.9375 62.75 C-40.4225 63.245 -40.4225 63.245 -41.9375 63.75 C-40.96356436 57.64730969 -38.08240407 52.68119936 -35.25 47.25 C-34.67709229 46.14881836 -34.10418457 45.04763672 -33.51391602 43.91308594 C-26.78171026 31.22718543 -19.093119 18.84834628 -9.9375 7.75 C-8.885625 6.3578125 -8.885625 6.3578125 -7.8125 4.9375 C-6.884375 3.8546875 -6.884375 3.8546875 -5.9375 2.75 C-5.2775 2.75 -4.6175 2.75 -3.9375 2.75 C-3.9375 2.09 -3.9375 1.43 -3.9375 0.75 C-1.9375 -0.25 -1.9375 -0.25 0 0 Z " fill="#FFFFFF" fill-opacity="1" transform="translate(150.9375,44.25)"/>
<path d="M0 0 C3.01558488 0.05368994 5.21401116 0.27629318 7.49121094 2.37304688 C9.0425201 4.27927199 10.46992386 6.23348972 11.875 8.25 C12.39674805 8.97437256 12.91849609 9.69874512 13.45605469 10.44506836 C21.26682294 21.41315055 27.92735979 32.99541114 34 45 C34.5671875 46.08925781 35.134375 47.17851562 35.71875 48.30078125 C39.67058716 56.57231276 39.67058716 56.57231276 38.0625 61.75 C37.42101313 63.18808737 36.73191171 64.60575973 36 66 C35.45085937 67.15435547 35.45085937 67.15435547 34.890625 68.33203125 C33.96765761 70.24150364 32.98917825 72.12397228 32 74 C29.08405668 71.08405668 28.06151029 67.39837073 26.5625 63.625 C19.9956796 47.64114484 11.81666316 33.44301123 1 20 C-1.69840127 16.33527935 -3.75028162 13.38732436 -4.5625 8.875 C-3.84830452 5.22466755 -2.23573848 2.93440676 0 0 Z " fill="#FFFFFF" fill-opacity="1" transform="translate(329,87)"/>
<path d="M0 0 C2.93344685 2.74378434 4.98012619 5.41386207 7 8.875 C13.58008666 19.42850087 22.20969374 28.50981662 31.13671875 37.109375 C34.42764687 40.44859767 34.32258864 43.22751517 34.30078125 47.734375 C33.86681887 51.00318255 32.32213491 52.7504318 30 55 C24.85947145 54.65919148 22.30091796 51.80380011 18.9375 48.25 C18.42123047 47.7240625 17.90496094 47.198125 17.37304688 46.65625 C9 38.03787818 9 38.03787818 9 35 C8.34 35 7.68 35 7 35 C5.19534598 32.66063368 3.52150166 30.32287901 1.875 27.875 C1.38797607 27.15884521 0.90095215 26.44269043 0.39916992 25.70483398 C-12 7.2473715 -12 7.2473715 -12 4 C-8.04 3.34 -4.08 2.68 0 2 C0 1.34 0 0.68 0 0 Z " fill="#FFFFFF" fill-opacity="1" transform="translate(157,368)"/>
<path d="M0 0 C1.0209375 0.2165625 1.0209375 0.2165625 2.0625 0.4375 C5.36273082 1.06945909 8.67144426 1.54313941 12 2 C12.0501123 2.78012451 12.10022461 3.56024902 12.15185547 4.36401367 C12.38701893 7.97225304 12.63096915 11.57984991 12.875 15.1875 C12.95363281 16.41404297 13.03226563 17.64058594 13.11328125 18.90429688 C14.01506128 32.04947506 16.22773393 44.58770885 19.3203125 57.375 C19.536875 58.2928125 19.7534375 59.210625 19.9765625 60.15625 C20.17330566 60.96900391 20.37004883 61.78175781 20.57275391 62.61914062 C21.03350452 65.18670635 21.25796374 67.39972552 21 70 C17.43419304 72.98532676 14.51862029 74.23021801 10 75 C3.02722755 50.68378339 -0.48272048 25.31600719 0 0 Z " fill="#FFFFFF" fill-opacity="1" transform="translate(116,249)"/>
<path d="M0 0 C13.26918113 5.1035312 21.87846568 26.8874236 27.3046875 38.98046875 C29.5611675 44.20185851 31.40163833 49.54243615 33 55 C31.56839732 56.00842453 30.12948547 57.00647891 28.6875 58 C27.88699219 58.556875 27.08648437 59.11375 26.26171875 59.6875 C24 61 24 61 21 61 C20.50693359 59.67162109 20.50693359 59.67162109 20.00390625 58.31640625 C14.4938893 43.81990842 7.83314095 30.56509468 -2.03125 18.5390625 C-5.22159682 14.42452791 -5.35166064 11.09907925 -5 6 C-2.8 1.4 -2.8 1.4 0 0 Z " fill="#FFFFFF" fill-opacity="1" transform="translate(309,130)"/>
<path d="M0 0 C2.5625 0.4375 2.5625 0.4375 4.375 2.5 C5.85848034 6.16966188 6.03772703 8.49990463 5.5625 12.4375 C3.9926585 15.69794005 2.2163269 18.48798173 0.171875 21.45703125 C-8.47016731 34.07896147 -12.58752762 46.75561177 -16.4375 61.4375 C-17.90641276 60.21069336 -19.37532552 58.98388672 -20.84423828 57.75708008 C-23.01947629 55.95549236 -25.22571844 54.19391477 -27.4375 52.4375 C-26.28775269 39.64656117 -14.66494214 2.6321691 0 0 Z " fill="#FFFFFF" fill-opacity="1" transform="translate(212.4375,162.5625)"/>
<path d="M0 0 C-0.56847656 0.88558594 -1.13695312 1.77117187 -1.72265625 2.68359375 C-10.68212059 16.93569206 -16.29614823 31.89418496 -21 48 C-25.29 47.34 -29.58 46.68 -34 46 C-31.13597612 35.05081135 -28.03964683 24.31926063 -23.7265625 13.84423828 C-23.01813274 12.04602646 -22.41358903 10.20797438 -21.8125 8.37109375 C-20.52130212 4.95345437 -19.54772334 2.62778119 -17 0 C-11.69301046 -1.44477529 -5.08871387 -2.54435693 0 0 Z " fill="#FFFFFF" fill-opacity="1" transform="translate(190,157)"/>
<path d="M0 0 C-0.36967896 1.06190552 -0.36967896 1.06190552 -0.74682617 2.14526367 C-5.56328716 16.06185726 -9.97840653 29.86455509 -13.125 44.2578125 C-14 48 -14 48 -15 49 C-19.27051305 49.14001682 -22.87965644 49.16665907 -27 48 C-26.00034231 39.985503 -24.14504908 32.24646854 -22.125 24.4375 C-21.75834229 23.00265259 -21.75834229 23.00265259 -21.38427734 21.53881836 C-20.08779397 16.61277124 -18.67026207 11.72954232 -17.078125 6.890625 C-16.78583008 5.9924707 -16.49353516 5.09431641 -16.19238281 4.16894531 C-15 2 -15 2 -12.82080078 0.86694336 C-8.57422783 -0.20532339 -4.35678052 -0.00485331 0 0 Z " fill="#FFFFFF" fill-opacity="1" transform="translate(147,151)"/>
<path d="M0 0 C3.26353256 0.20294236 4.65251458 0.64280441 6.95703125 3.01171875 C15.18937398 14.88362353 21.6465153 26.22791858 26 40 C22.7 42.31 19.4 44.62 16 47 C12.98020672 43.98020672 12.16331966 42.32737517 10.6875 38.4375 C7.27811371 29.97034547 2.90255346 22.91441977 -3 16 C-4.19211438 12.42365687 -4.25926574 9.75935317 -4 6 C-2.84360194 3.68720389 -1.82590172 1.82590172 0 0 Z " fill="#FFFFFF" fill-opacity="1" transform="translate(289,162)"/>
<path d="M0 0 C1.32 0 2.64 0 4 0 C4 0.66 4 1.32 4 2 C5.423125 2.2165625 5.423125 2.2165625 6.875 2.4375 C10 3 10 3 12 4 C12.4921875 6.1328125 12.4921875 6.1328125 12.875 9.125 C13.50288929 13.70910229 14.21178668 18.25393383 15.05078125 22.8046875 C15.23721191 23.8241748 15.42364258 24.84366211 15.61572266 25.89404297 C15.99305344 27.94374501 16.3767132 29.99229334 16.76708984 32.03955078 C16.94062988 32.99587402 17.11416992 33.95219727 17.29296875 34.9375 C17.4530542 35.79214844 17.61313965 36.64679688 17.77807617 37.52734375 C18.0240847 40.2683497 17.75389842 42.35826579 17 45 C15.22265625 46.80078125 15.22265625 46.80078125 13.0625 48.3125 C12.35222656 48.82425781 11.64195312 49.33601563 10.91015625 49.86328125 C9 51 9 51 7 51 C2.91592332 34.03591237 0.86568051 17.41903259 0 0 Z " fill="#FFFFFF" fill-opacity="1" transform="translate(151,253)"/>
<path d="M0 0 C6.72913597 5.92804836 11.26678035 12.49664997 14 21 C12.02 21.99 12.02 21.99 10 23 C9.6596875 22.21496094 9.319375 21.42992187 8.96875 20.62109375 C4.96111075 11.9343225 0.89169274 6.75713591 -7.4375 2.0625 C-13.7828596 0.17002433 -19.92825114 0.15790479 -26 3 C-36.49492549 9.5176819 -39.96244721 17.57458466 -44 29 C-45.32 28.34 -46.64 27.68 -48 27 C-43.91634547 14.65087163 -37.82545752 2.43943457 -25.99609375 -4.109375 C-16.84285552 -8.19340302 -7.54732101 -5.86829145 0 0 Z " fill="#FFFFFF" fill-opacity="1" transform="translate(265,205)"/>
<path d="M0 0 C2.48731896 3.73097844 2.45121247 6.85052544 2.625 11.1875 C2.66294678 11.97817871 2.70089355 12.76885742 2.73999023 13.58349609 C3.08277426 21.38902263 3.09577493 29.18902263 3 37 C-2.94 37.495 -2.94 37.495 -9 38 C-10.54163055 23.47822086 -6.43540728 12.91455403 0 0 Z " fill="#FFFFFF" fill-opacity="1" transform="translate(384,214)"/>
<path d="M0 0 C-0.1675123 8.72586805 -1.892566 15.30045582 -6 23 C-6.99 23 -7.98 23 -9 23 C-9 23.66 -9 24.32 -9 25 C-10.32 25.33 -11.64 25.66 -13 26 C-13.04440657 23.3158693 -13.05831871 20.63762184 -13.02734375 17.953125 C-13.01123414 16.21328686 -13.03007106 14.4714783 -13.12890625 12.734375 C-13.125 10.75 -13.125 10.75 -12 7 C-4.39885496 0 -4.39885496 0 0 0 Z " fill="#FFFFFF" fill-opacity="1" transform="translate(322,240)"/>
<path d="M0 0 C0.99 0.66 1.98 1.32 3 2 C3.34057617 4.33837891 3.34057617 4.33837891 3.29296875 7.2265625 C3.28330078 8.2578125 3.27363281 9.2890625 3.26367188 10.3515625 C3.23853516 11.43179687 3.21339844 12.51203125 3.1875 13.625 C3.17396484 14.71296875 3.16042969 15.8009375 3.14648438 16.921875 C3.11104754 19.61507409 3.06164331 22.30729374 3 25 C-0.80266027 22.1780258 -3.58028758 19.25555507 -6.375 15.4375 C-7.08398438 14.48746094 -7.79296875 13.53742188 -8.5234375 12.55859375 C-9.01070312 11.71425781 -9.49796875 10.86992187 -10 10 C-9.67 9.01 -9.34 8.02 -9 7 C-6.4375 5.8125 -6.4375 5.8125 -4 5 C-4 4.34 -4 3.68 -4 3 C-2 1.375 -2 1.375 0 0 Z " fill="#FFFFFF" fill-opacity="1" transform="translate(192,346)"/>
<path d="M0 0 C4.765625 0.75 4.765625 0.75 6.875 3 C8.38746066 7.03322844 8.4715998 10.90686176 7 15 C4.61924835 16.60494663 3.60790145 17.10131691 0.75 16.625 C-0.11625 16.315625 -0.11625 16.315625 -1 16 C-1 15.34 -1 14.68 -1 14 C-3.64 13.67 -6.28 13.34 -9 13 C-7.47987323 7.59510481 -3.72614782 4.01507372 0 0 Z " fill="#FFFFFF" fill-opacity="1" transform="translate(170,87)"/>
<path d="M0 0 C0.99 0.66 1.98 1.32 3 2 C1.65662612 6.10157768 -0.00139943 8.30733624 -3.25 11.125 C-3.99765625 11.78757812 -4.7453125 12.45015625 -5.515625 13.1328125 C-10.69587133 17.02614229 -14.62960695 18.40368802 -21.125 18.3125 C-22.32382813 18.30863281 -23.52265625 18.30476563 -24.7578125 18.30078125 C-27.76436738 18.02185989 -29.47317301 17.57769546 -32 16 C-31.67 15.01 -31.34 14.02 -31 13 C-28.27157939 11.63578969 -26.39046682 12.12192789 -23.375 12.4375 C-22.37210938 12.53933594 -21.36921875 12.64117187 -20.3359375 12.74609375 C-19.56507813 12.82988281 -18.79421875 12.91367187 -18 13 C-18 12.67 -18 12.34 -18 12 C-17.43152344 11.85304688 -16.86304688 11.70609375 -16.27734375 11.5546875 C-9.09412531 9.46807647 -4.1762726 6.26440891 0 0 Z " fill="#FFFFFF" fill-opacity="1" transform="translate(270,280)"/>
<path d="M0 0 C2.5134136 2.37755341 4.70555922 4.48792908 6.4375 7.5 C7.91124317 9.85798908 9.05581643 10.98912594 11.1875 12.6875 C12.5796875 13.8321875 12.5796875 13.8321875 14 15 C14 15.66 14 16.32 14 17 C9.545 19.475 9.545 19.475 5 22 C4.16381949 18.70903243 3.3309333 15.41729247 2.5 12.125 C2.14228516 10.71927734 2.14228516 10.71927734 1.77734375 9.28515625 C1.55175781 8.38925781 1.32617188 7.49335938 1.09375 6.5703125 C0.88427734 5.74289551 0.67480469 4.91547852 0.45898438 4.06298828 C0 2 0 2 0 0 Z " fill="#FFFFFF" fill-opacity="1" transform="translate(53,348)"/>
<path d="" fill="#FFFFFF" fill-opacity="1" transform="translate(0,0)"/>
<path d="M0 0 C2 1 2 1 2 1 Z " fill="#FFFFFF" fill-opacity="1" transform="translate(247,245)"/>
<path d="M0 0 C2 1 2 1 2 1 Z " fill="#FFFFFF" fill-opacity="1" transform="translate(211,162)"/>
<path d="" fill="#FFFFFF" fill-opacity="1" transform="translate(0,0)"/>
<path d="" fill="#FFFFFF" fill-opacity="1" transform="translate(0,0)"/>
<path d="" fill="#FFFFFF" fill-opacity="1" transform="translate(0,0)"/>
<path d="" fill="#FFFFFF" fill-opacity="1" transform="translate(0,0)"/>
</svg>
