<?xml version="1.0" encoding="UTF-8"?>
<svg version="1.1" xmlns="http://www.w3.org/2000/svg" width="512" height="512">
<path d="M0 0 C3.5995593 1.32777518 6.66099373 2.93175071 9.86328125 5.0390625 C10.74951172 5.61914062 11.63574219 6.19921875 12.54882812 6.796875 C13.46083984 7.40015625 14.37285156 8.0034375 15.3125 8.625 C16.24384766 9.23601563 17.17519531 9.84703125 18.13476562 10.4765625 C20.42581376 11.98043 22.71408719 13.48834286 25 15 C21.05520543 22.61207485 16.62263481 29.70750449 11.828125 36.796875 C8.72375345 41.38994377 5.70289876 46.03569857 2.6875 50.6875 C2.1402124 51.53111084 1.5929248 52.37472168 1.02905273 53.24389648 C-0.0897797 54.96890596 -1.20834924 56.69408598 -2.32666016 58.41943359 C-5.04744636 62.61533529 -7.77395762 66.80751213 -10.5 71 C-11.58336195 72.66664806 -12.66669526 74.33331475 -13.75 76 C-33.25 106 -52.75 136 -72.25 166 C-72.78608887 166.8247583 -73.32217773 167.6495166 -73.87451172 168.49926758 C-74.95944978 170.16839052 -76.04441077 171.83749856 -77.12939453 173.5065918 C-79.81336238 177.63555642 -82.49695031 181.7647669 -85.1796875 185.89453125 C-91.57939717 195.74506476 -97.9904827 205.58809791 -104.40917969 215.42626953 C-110.08505363 224.1272293 -115.74796927 232.83656623 -121.40722656 241.54833984 C-124.10404754 245.69939383 -126.80209214 249.84965238 -129.5 254 C-130.58333905 255.66666295 -131.66667239 257.33332961 -132.75 259 C-160.91666667 302.33333333 -189.08333333 345.66666667 -217.25 389 C-218.0541333 390.23713745 -218.0541333 390.23713745 -218.87451172 391.49926758 C-219.95944978 393.16839052 -221.04441077 394.83749856 -222.12939453 396.5065918 C-224.81336238 400.63555642 -227.49695031 404.7647669 -230.1796875 408.89453125 C-245.04114093 431.77020486 -245.04114093 431.77020486 -251.6015625 441.78515625 C-253.6264706 444.87935401 -255.62813805 447.9840396 -257.5859375 451.12109375 C-258.62621094 452.76271484 -258.62621094 452.76271484 -259.6875 454.4375 C-260.24824219 455.34371094 -260.80898438 456.24992187 -261.38671875 457.18359375 C-262.18529297 458.08271484 -262.18529297 458.08271484 -263 459 C-267.45901981 459 -268.56649756 458.30553647 -272.203125 455.9375 C-273.1828125 455.30585938 -274.1625 454.67421875 -275.171875 454.0234375 C-276.69554687 453.02183594 -276.69554687 453.02183594 -278.25 452 C-279.796875 450.99839844 -279.796875 450.99839844 -281.375 449.9765625 C-283.92202687 448.32571175 -286.46329561 446.66665151 -289 445 C-285.7147263 438.83393321 -282.38141322 432.83090177 -278.4375 427.0625 C-277.56657118 425.77681124 -276.69684331 424.49030839 -275.828125 423.203125 C-275.37115234 422.52701172 -274.91417969 421.85089844 -274.44335938 421.15429688 C-271.81679201 417.23399402 -269.2542228 413.2721371 -266.6875 409.3125 C-266.1402124 408.46888916 -265.5929248 407.62527832 -265.02905273 406.75610352 C-263.9102203 405.03109404 -262.79165076 403.30591402 -261.67333984 401.58056641 C-258.95255364 397.38466471 -256.22604238 393.19248787 -253.5 389 C-252.41663805 387.33335194 -251.33330474 385.66668525 -250.25 384 C-243.75 374 -237.25 364 -230.75 354 C-229.9458667 352.76286255 -229.9458667 352.76286255 -229.12548828 351.50073242 C-228.04055022 349.83160948 -226.95558923 348.16250144 -225.87060547 346.4934082 C-223.18663762 342.36444358 -220.50304969 338.2352331 -217.8203125 334.10546875 C-211.42060283 324.25493524 -205.0095173 314.41190209 -198.59082031 304.57373047 C-192.91494637 295.8727707 -187.25203073 287.16343377 -181.59277344 278.45166016 C-178.89595246 274.30060617 -176.19790786 270.15034762 -173.5 266 C-172.41666095 264.33333705 -171.33332761 262.66667039 -170.25 261 C-142.08333333 217.66666667 -113.91666667 174.33333333 -85.75 131 C-85.21391113 130.1752417 -84.67782227 129.3504834 -84.12548828 128.50073242 C-83.04055022 126.83160948 -81.95558923 125.16250144 -80.87060547 123.4934082 C-78.18663762 119.36444358 -75.50304969 115.2352331 -72.8203125 111.10546875 C-66.42060283 101.25493524 -60.0095173 91.41190209 -53.59082031 81.57373047 C-47.91494637 72.8727707 -42.25203073 64.16343377 -36.59277344 55.45166016 C-33.35808233 50.47269509 -30.12197591 45.49464948 -26.88549805 40.5168457 C-24.11291769 36.25220744 -21.34209229 31.98644488 -18.57421875 27.71875 C-1.68233813 1.68233813 -1.68233813 1.68233813 0 0 Z " fill="#FFFFFF" fill-opacity="1" transform="translate(373,21)"/>
<path d="M0 0 C13.83744248 6.91872124 21.94107916 24.87378169 26.99609375 38.73046875 C31.34892597 52.83031283 30.99725238 67.00536922 24.625 80.375 C23.01228427 83.40867562 21.22585019 86.09890184 19.125 88.8125 C16.758213 91.69985828 16.758213 91.69985828 17.0625 94.4375 C17.371875 95.283125 17.68125 96.12875 18 97 C21.90586624 110.41259726 21.46259207 125.10470068 16 138 C15.63777344 138.86625 15.27554688 139.7325 14.90234375 140.625 C10.18738693 150.85405886 3.16975585 159.34804558 -5 167 C-5.66 167.66 -6.32 168.32 -7 169 C-4.61255632 171.44583835 -2.21362856 173.88010093 0.1875 176.3125 C0.86103516 177.00279297 1.53457031 177.69308594 2.22851562 178.40429688 C5.65061821 181.85978582 8.76847387 184.56581106 13 187 C14.77113054 188.68615876 16.4996712 190.41796088 18.1875 192.1875 C19.75365768 193.82879568 21.34978233 195.44324599 23 197 C23.66 197 24.32 197 25 197 C24.195625 196.401875 23.39125 195.80375 22.5625 195.1875 C20 193 20 193 19 190 C20.4375 187.8125 20.4375 187.8125 22 186 C27.93623335 186.80247175 30.84662258 189.92838198 35 194 C35.55171875 194.53882813 36.1034375 195.07765625 36.671875 195.6328125 C41.94977272 201.26438378 45.04821046 208.25629448 46.9375 215.6875 C47.96692319 218.8968782 48.93415763 220.36888635 51 222.9375 C55.37411657 228.52011333 56.25364553 233.35064154 55.9375 240.375 C54.49505855 251.88282957 47.82242487 259.89521537 39 267 C25.38542165 275.36920706 8.18437379 277.34996842 -7.33984375 273.7734375 C-22.68944099 269.31055901 -22.68944099 269.31055901 -25 267 C-25.7425 267.845625 -26.485 268.69125 -27.25 269.5625 C-28.61125 270.7690625 -28.61125 270.7690625 -30 272 C-37.35894241 271.27468329 -43.92345513 264.61548056 -48.375 259.1953125 C-52.33055224 253.85151356 -55.56187831 248.52056508 -57.625 242.1875 C-60.48787195 234.40445417 -67.25413648 228.74586352 -73 223 C-74.00855571 236.47542486 -70.08457434 248.05512828 -63.390625 259.48828125 C-62 262 -62 262 -62 264 C-61.34 264 -60.68 264 -60 264 C-58.37890625 265.6796875 -58.37890625 265.6796875 -56.5625 267.875 C-54.41599116 270.46193722 -52.83223438 272.11184374 -50 274 C-50 274.66 -50 275.32 -50 276 C-48.948125 276.37125 -48.948125 276.37125 -47.875 276.75 C-44.541266 278.19944956 -41.82515381 279.7004562 -39 282 C-38.3125 284.5625 -38.3125 284.5625 -39 287 C-41.54296875 288.65234375 -41.54296875 288.65234375 -44 290 C-45.60471728 289.04258894 -47.20875329 288.08403595 -48.8125 287.125 C-49.70582031 286.59132813 -50.59914063 286.05765625 -51.51953125 285.5078125 C-53.37294724 284.38116908 -55.19529917 283.20313389 -57 282 C-57 281.34 -57 280.68 -57 280 C-57.87205078 279.62681641 -57.87205078 279.62681641 -58.76171875 279.24609375 C-70.23136441 272.86072383 -77.33644826 256.92085391 -81 245 C-83.37578582 235.38549175 -84.27027649 225.04226698 -81.875 215.375 C-81.36836409 211.91191906 -81.97877571 211.02935696 -84.08984375 208.109375 C-86.58704712 205.26639079 -89.3057078 202.65511833 -92 200 C-92.66 199.01 -93.32 198.02 -94 197 C-102.41905479 216.64446118 -101.96292957 237.52502515 -94.421875 257.27734375 C-91.48424211 264.51296728 -88.0778326 270.96500827 -83.28515625 277.1796875 C-82 279 -82 279 -82 281 C-81.34 281 -80.68 281 -80 281 C-78.625 282.46875 -78.625 282.46875 -77 284.5 C-70.7683411 291.81542566 -63.02545316 297.17432508 -54.93359375 302.26171875 C-52.54908578 304.40536733 -52.30440762 305.86513552 -52 309 C-55.27735886 311.1849059 -56.2018262 311.46554597 -60 311 C-62.39453125 309.6796875 -62.39453125 309.6796875 -64.8125 307.875 C-66.10220703 306.92173828 -66.10220703 306.92173828 -67.41796875 305.94921875 C-68.69607422 304.98435547 -68.69607422 304.98435547 -70 304 C-71.20076172 303.14341797 -71.20076172 303.14341797 -72.42578125 302.26953125 C-76.58012629 299.28105924 -76.58012629 299.28105924 -78 298 C-78 297.34 -78 296.68 -78 296 C-78.57492187 295.75507813 -79.14984375 295.51015625 -79.7421875 295.2578125 C-93.77179556 287.44201009 -102.68048655 266.6685791 -107 252 C-112.46670305 232.64828691 -111.53843082 211.82434226 -103.671875 193.26953125 C-102.87637214 190.5823966 -102.86481686 189.55541227 -104 187 C-105.99589689 184.56622399 -105.99589689 184.56622399 -108.4375 182.25 C-109.24058594 181.45078125 -110.04367188 180.6515625 -110.87109375 179.828125 C-112.78520303 177.78284035 -112.78520303 177.78284035 -115 178 C-113.44298069 173.32894208 -110.91552627 169.91294315 -108 166 C-104.54798361 167.47721422 -102.35038064 169.43794001 -99.75 172.125 C-99.04359375 172.84945312 -98.3371875 173.57390625 -97.609375 174.3203125 C-96.81273437 175.15175781 -96.81273437 175.15175781 -96 176 C-93.02526884 173.1384018 -90.47422733 170.12770084 -87.9375 166.875 C-82.45344852 160.09951351 -76.27962967 153.85308645 -69 149 C-66.14033435 149.1787291 -65.1910407 149.80237169 -63.1875 151.875 C-62.795625 152.57625 -62.40375 153.2775 -62 154 C-63.23789629 157.71368887 -64.85224877 158.77354181 -68 161 C-68.66 161 -69.32 161 -70 161 C-70 161.66 -70 162.32 -70 163 C-71.10475231 164.00541491 -72.26173243 164.95363828 -73.4375 165.875 C-78.94734672 170.51746477 -82.85215771 176.15269455 -87 182 C-86.69449219 182.61101562 -86.38898438 183.22203125 -86.07421875 183.8515625 C-85.3203125 185.359375 -84.56640625 186.8671875 -83.8125 188.375 C-81.38139929 191.89590448 -78.32736708 194.34722241 -75 197 C-74.7421875 196.28457031 -74.484375 195.56914062 -74.21875 194.83203125 C-72.92615235 191.82839889 -71.3722291 189.36494628 -69.5 186.6875 C-68.8915625 185.80449219 -68.283125 184.92148437 -67.65625 184.01171875 C-67.1096875 183.34785156 -66.563125 182.68398438 -66 182 C-65.34 182 -64.68 182 -64 182 C-63.731875 181.360625 -63.46375 180.72125 -63.1875 180.0625 C-62 178 -62 178 -59 177 C-58.67 176.01 -58.34 175.02 -58 174 C-52.88372093 169.90697674 -52.88372093 169.90697674 -49.625 170.25 C-49.08875 170.4975 -48.5525 170.745 -48 171 C-48 171.66 -48 172.32 -48 173 C-47.34 173 -46.68 173 -46 173 C-46.25 175.375 -46.25 175.375 -47 178 C-49.0625 179.3125 -49.0625 179.3125 -51 180 C-51 180.66 -51 181.32 -51 182 C-52.3203125 183.2265625 -52.3203125 183.2265625 -54.125 184.625 C-60.0556121 189.56118624 -65.7150052 196.49891363 -68 204 C-67.49110213 207.8633233 -65.75009934 209.33584126 -63 212 C-62.67 212.99 -62.34 213.98 -62 215 C-61.01 215 -60.02 215 -59 215 C-58.72027344 214.24976563 -58.44054687 213.49953125 -58.15234375 212.7265625 C-54.30059326 202.89283296 -49.28527574 192.77135258 -40 187 C-36.6875 186 -36.6875 186 -34 186 C-32 188 -32 188 -31.875 190.625 C-31.91625 191.40875 -31.9575 192.1925 -32 193 C-33.98 193.99 -33.98 193.99 -36 195 C-36 195.66 -36 196.32 -36 197 C-37.66666667 198.66666667 -39.33333333 200.33333333 -41 202 C-46.94362689 208.95839246 -49.00477952 216.94096257 -50.75 225.8125 C-49.72033763 230.18856506 -47.35046178 232.11724584 -44.08203125 235.09375 C-42 237 -42 237 -39.5 240.0625 C-35.35150486 244.93698179 -30.83264348 249.27085419 -25 252 C-24.29875 252.45375 -23.5975 252.9075 -22.875 253.375 C-10.35665798 260.45058462 4.46426765 263.1555821 18.67578125 260.5 C20.88369958 259.80978041 22.90553962 258.98030195 25 258 C26.24523437 257.47212891 26.24523437 257.47212891 27.515625 256.93359375 C34.64031539 253.70188539 40.85233984 249.40283038 44 242 C44.91351126 236.17636573 43.28164757 232.85841863 39.96484375 228.26171875 C36.45952909 224.22677404 32.28927177 221.15502665 28 218 C21.92251256 213.41559771 16.22717323 208.57239687 10.62890625 203.41015625 C8.40982257 201.37572143 6.16068466 199.39600912 3.875 197.4375 C0.22147083 194.26862266 -3.16460973 190.8764792 -6.53125 187.40625 C-8.57444068 185.41478566 -10.65245431 183.56218423 -12.81640625 181.70703125 C-16.96599975 178.10453068 -20.71722624 174.22651469 -24.4375 170.1875 C-25.08928223 169.48318848 -25.74106445 168.77887695 -26.41259766 168.05322266 C-27.70007873 166.66023655 -28.98594992 165.26576036 -30.27001953 163.86962891 C-31.71476693 162.30825781 -33.18100876 160.76681118 -34.65234375 159.23046875 C-41.77253431 151.68481864 -48.37146552 142.79248844 -52 133 C-52.73283203 131.35451172 -52.73283203 131.35451172 -53.48046875 129.67578125 C-55.04856667 125.88251609 -56.245968 122.14272016 -57.3125 118.1875 C-57.50650391 117.52041016 -57.70050781 116.85332031 -57.90039062 116.16601562 C-58.42578125 114.23046875 -58.42578125 114.23046875 -59 111 C-58.34 110.34 -57.68 109.68 -57 109 C-56.5875 109.73863281 -56.175 110.47726563 -55.75 111.23828125 C-49.75985545 121.76114679 -43.11427662 131.10566998 -34.78515625 139.90625 C-33 142 -33 142 -32 145 C-30.27482476 146.74853922 -30.27482476 146.74853922 -28.1875 148.4375 C-27.10855469 149.35595703 -27.10855469 149.35595703 -26.0078125 150.29296875 C-25.34523438 150.85628906 -24.68265625 151.41960937 -24 152 C-20.14814815 155.55555556 -20.14814815 155.55555556 -19 159 C-11.26064264 156.50885061 -5.245651 149.64184046 -1.05859375 142.8515625 C0.40587213 139.93731211 1.73174235 137.00399593 3 134 C3.32613281 133.35289062 3.65226562 132.70578125 3.98828125 132.0390625 C8.46658773 122.99755273 7.99825801 110.49650114 5.09765625 101.06640625 C3.32243408 96.66122531 1.23372708 92.44083114 -0.93359375 88.21875 C-1.62284041 86.87522798 -2.31163492 85.53147392 -3 84.1875 C-3.34369629 83.518396 -3.68739258 82.84929199 -4.04150391 82.15991211 C-7.47044592 75.33878425 -9.85663637 68.32239249 -12 61 C-12.24878906 60.24203125 -12.49757813 59.4840625 -12.75390625 58.703125 C-12.83511719 58.14109375 -12.91632813 57.5790625 -13 57 C-12.01 56.01 -12.01 56.01 -11 55 C-7.34063014 58.65936986 -4.51145426 62.96072495 -2.0625 67.5 C-0.20730407 70.87584833 2.12452218 73.59821644 4.73046875 76.421875 C6 78 6 78 7 81 C7.66 81.33 8.32 81.66 9 82 C9.103125 81.443125 9.20625 80.88625 9.3125 80.3125 C10 78 10 78 11.43359375 75.765625 C16.2927048 67.18644638 16.82834867 56.51572375 15 47 C14.21558902 44.21151464 13.1967904 41.63408412 12 39 C11.525625 37.824375 11.05125 36.64875 10.5625 35.4375 C6.81462738 27.19218023 1.76367121 19.91152999 -3.73046875 12.734375 C-5 11 -5 11 -6 9 C-4.02 6.03 -2.04 3.06 0 0 Z " fill="#FFFFFF" fill-opacity="1" transform="translate(354,109)"/>
<path d="M0 0 C2.80999826 2.80999826 5.25498717 5.80329699 7.25 9.25 C7.25 9.91 7.25 10.57 7.25 11.25 C8.29655762 11.01095947 8.29655762 11.01095947 9.36425781 10.76708984 C35.39679379 6.10237654 64.68448019 12.15228428 88.25 23.25 C89.62473848 23.8807786 90.99976672 24.51092589 92.375 25.140625 C93.89610887 25.84315371 95.41693935 26.5462855 96.9375 27.25 C97.66283936 27.58225586 98.38817871 27.91451172 99.13549805 28.25683594 C104.82629982 30.9150265 109.76743545 33.76743545 114.25 38.25 C112.27 41.55 110.29 44.85 108.25 48.25 C104.46970263 47.30492566 102.49372538 46.2732209 99.25 44.25 C91.11213898 39.72069907 83.04505531 35.37421368 74.25 32.25 C72.64511719 31.63511719 72.64511719 31.63511719 71.0078125 31.0078125 C53.38471047 24.60285714 32.86619782 21.74347126 14.25 24.25 C13.17621094 24.37375 12.10242188 24.4975 10.99609375 24.625 C4.10303614 25.5195799 -1.60014663 27.0319203 -7.75 30.25 C-8.71164063 30.69859375 -9.67328125 31.1471875 -10.6640625 31.609375 C-13.86860927 33.31305809 -16.41229506 35.23036116 -19.1875 37.5625 C-20.14011719 38.35914063 -21.09273438 39.15578125 -22.07421875 39.9765625 C-23.39873047 41.10191406 -23.39873047 41.10191406 -24.75 42.25 C-25.41644531 42.81460938 -26.08289063 43.37921875 -26.76953125 43.9609375 C-27.89255854 44.91918652 -29.01132946 45.88245496 -30.125 46.8515625 C-31.27693978 47.84289529 -32.44548393 48.81508069 -33.625 49.7734375 C-37.20313411 52.71048925 -39.39730394 55.2308109 -41.75 59.25 C-42.89307672 60.43978899 -44.06249412 61.60455162 -45.25 62.75 C-47.99726405 65.41123282 -49.8379615 67.92471565 -51.75 71.25 C-52.71289051 72.38896191 -53.69388297 73.51274213 -54.6875 74.625 C-57.13796777 77.41949895 -59.01754313 80.18664782 -60.75390625 83.46484375 C-61.75 85.25 -61.75 85.25 -62.96484375 86.94140625 C-70.24653727 97.18889591 -71.62243489 111.02335255 -72.3125 123.25 C-72.3751001 124.35541138 -72.3751001 124.35541138 -72.43896484 125.4831543 C-72.91671212 134.58277745 -73.10252667 143.63913328 -72.25390625 152.72265625 C-71.66985734 159.43346198 -71.56388122 166.11659695 -71.56469727 172.85058594 C-71.56249483 174.87976603 -71.54420561 176.90841414 -71.52539062 178.9375 C-71.5110588 188.66403375 -71.76216674 197.6709268 -76.75 206.25 C-77.430625 207.4565625 -77.430625 207.4565625 -78.125 208.6875 C-79.34434673 210.61031599 -80.65193313 212.47763121 -82 214.3125 C-92.17152632 228.44300363 -102.71908274 246.37982248 -102.75 264.25 C-102.03818684 268.09379109 -101.2784981 269.70640195 -98.5625 272.5 C-95.34934849 274.49929427 -92.41198864 275.49744454 -88.75 276.25 C-87.87214844 276.435625 -86.99429688 276.62125 -86.08984375 276.8125 C-72.34849194 279.41955489 -59.4886356 279.60823007 -47.5703125 271.57421875 C-41.59756254 267.3439909 -41.59756254 267.3439909 -37.75 261.25 C-37.30011719 260.53199219 -36.85023438 259.81398438 -36.38671875 259.07421875 C-34.51741536 255.8486666 -33.10864177 252.52349815 -31.75 249.0625 C-31.48872314 248.39976074 -31.22744629 247.73702148 -30.95825195 247.05419922 C-28.05104128 239.58162464 -25.59444042 232.39492243 -24.9609375 224.35546875 C-24.75 222.25 -24.75 222.25 -24.2734375 220.05078125 C-23.82806347 217.66769785 -23.57459082 215.41173425 -23.390625 213 C-23.32617188 212.2265625 -23.26171875 211.453125 -23.1953125 210.65625 C-23.06520034 209.05326814 -22.95058472 207.44895237 -22.8515625 205.84375 C-22.48592484 201.78110937 -22.1231867 199.14297434 -19.171875 196.1875 C-18.37265625 195.548125 -17.5734375 194.90875 -16.75 194.25 C-10.13757278 196.07221376 -3.94479329 198.30223604 2.25 201.25 C2.80429688 200.528125 3.35859375 199.80625 3.9296875 199.0625 C5.01636719 197.6703125 5.01636719 197.6703125 6.125 196.25 C7.20394531 194.8578125 7.20394531 194.8578125 8.3046875 193.4375 C8.94664062 192.715625 9.58859375 191.99375 10.25 191.25 C10.91 191.25 11.57 191.25 12.25 191.25 C12.4975 190.651875 12.745 190.05375 13 189.4375 C14.41370012 186.96352479 15.90055383 185.81629745 18.25 184.25 C16.64173826 188.91306057 14.13874707 192.73020352 11.4375 196.8125 C10.43878349 198.3385295 9.44008637 199.86457169 8.44140625 201.390625 C7.91820801 202.18662109 7.39500977 202.98261719 6.85595703 203.80273438 C4.72361047 207.05214786 2.6074276 210.31193063 0.49145508 213.57202148 C-1.14747957 216.09713436 -2.78831771 218.62100069 -4.4296875 221.14453125 C-7.16352458 225.34802649 -9.896616 229.55200548 -12.62915039 233.75634766 C-13.71148684 235.42150574 -14.79400698 237.08654443 -15.87670898 238.75146484 C-19.11517534 243.73185196 -22.34761922 248.71607619 -25.57543945 253.70336914 C-27.18190783 256.17888265 -28.79755542 258.64822075 -30.4140625 261.1171875 C-32.78456904 264.74275104 -35.10077933 268.39819497 -37.3984375 272.0703125 C-38.61938897 273.9846319 -39.84073325 275.89870083 -41.0625 277.8125 C-41.61284912 278.71154053 -42.16319824 279.61058105 -42.73022461 280.53686523 C-46.46372119 286.31990576 -49.05047518 288.53077367 -55.75 290.25 C-56.4527002 290.45665283 -57.15540039 290.66330566 -57.87939453 290.8762207 C-73.11898745 295.30105325 -91.68727005 291.96525258 -105.75 285.25 C-111.59072448 281.24620566 -114.540961 276.72344432 -116.375 269.9375 C-117.27622602 263.47871355 -116.72172128 257.77638797 -115.0625 251.5 C-114.88243408 250.80608154 -114.70236816 250.11216309 -114.5168457 249.3972168 C-110.72582004 235.33592851 -103.88602661 221.48613872 -95.25 209.75 C-93.25986149 206.99121518 -91.42338529 204.21645573 -89.75 201.25 C-88.945625 199.8578125 -88.945625 199.8578125 -88.125 198.4375 C-85.36665164 192.04314699 -85.5980058 185.04923556 -85.65234375 178.1875 C-85.65849953 176.89863892 -85.65849953 176.89863892 -85.66477966 175.58374023 C-85.68352071 172.80563342 -85.71424566 170.02793825 -85.75 167.25 C-85.76202454 166.31575195 -85.77404907 165.38150391 -85.78643799 164.41894531 C-85.87164094 158.66410894 -86.01892549 152.91404713 -86.2199707 147.16210938 C-86.28255499 145.19243821 -86.33133024 143.22228761 -86.36743164 141.25195312 C-86.4221691 138.35347437 -86.52072685 135.45941463 -86.62890625 132.5625 C-86.63652481 131.68343994 -86.64414337 130.80437988 -86.6519928 129.89868164 C-86.7688584 127.48505779 -86.92788554 125.52372326 -87.75 123.25 C-89.96599958 121.26595584 -91.96262195 120.46108476 -94.75 119.25 C-97.11328125 117.06640625 -97.11328125 117.06640625 -99.0625 114.8125 C-99.71863281 114.07128906 -100.37476562 113.33007812 -101.05078125 112.56640625 C-107.64932794 103.57114604 -107.73994944 90.96162447 -106.75 80.25 C-104.17843581 65.40741472 -94.83062287 51.92747996 -85.75 40.25 C-85.27933105 39.6108667 -84.80866211 38.9717334 -84.32373047 38.31323242 C-79.44774944 31.80784065 -73.90505323 26.14064776 -68.125 20.4375 C-67.196875 19.51001953 -66.26875 18.58253906 -65.3125 17.62695312 C-49.13175511 1.55052535 -22.29854228 -14.18998145 0 0 Z M-69.75 39.25 C-70.76206162 40.90937007 -71.76245367 42.57592413 -72.75 44.25 C-73.86450764 45.56879094 -75.01058655 46.86158734 -76.1875 48.125 C-79.31781285 51.63593789 -81.57922579 55.10258585 -83.75 59.25 C-84.14960938 59.93835938 -84.54921875 60.62671875 -84.9609375 61.3359375 C-91.18018479 72.07827373 -96.60791387 84.56571073 -94.0625 97.25 C-92.49406909 102.62462312 -90.78449995 107.32674196 -85.75 110.25 C-85.09 110.25 -84.43 110.25 -83.75 110.25 C-83.67523438 109.53457031 -83.60046875 108.81914062 -83.5234375 108.08203125 C-81.898607 95.76836484 -76.35189409 85.60814417 -69.75 75.25 C-69.13125 74.239375 -68.5125 73.22875 -67.875 72.1875 C-65.36678504 68.72026168 -62.56238806 65.62955797 -59.65234375 62.49609375 C-57.70507677 60.33860567 -57.70507677 60.33860567 -56.43969727 57.93481445 C-54.52360575 54.89027488 -52.35258369 52.59348607 -49.8125 50.046875 C-49.33232422 49.56478577 -48.85214844 49.08269653 -48.35742188 48.58599854 C-47.34116118 47.56838206 -46.32239124 46.55326599 -45.30126953 45.54052734 C-43.77537348 44.02519777 -42.26027013 42.49968558 -40.74609375 40.97265625 C-24.6658998 24.86757036 -24.6658998 24.86757036 -16.75 21.25 C-14.82982203 20.21482025 -12.9133329 19.17277754 -11 18.125 C-10.01515625 17.58617187 -9.0303125 17.04734375 -8.015625 16.4921875 C-7.26796875 16.08226562 -6.5203125 15.67234375 -5.75 15.25 C-7.16839673 10.9785599 -7.16839673 10.9785599 -10.9375 8.4375 C-33.1497801 1.51892095 -56.41906906 24.31063363 -69.75 39.25 Z M-9.75 211.25 C-10.08 214.88 -10.41 218.51 -10.75 222.25 C-7.83772731 218.96195019 -6.25298788 216.65114397 -5.75 212.25 C-7.07 211.92 -8.39 211.59 -9.75 211.25 Z " fill="#FFFFFF" fill-opacity="1" transform="translate(212.75,48.75)"/>
<path d="M0 0 C4.75970809 1.52265543 7.53457274 4.46570618 11.046875 7.9296875 C11.75062256 8.6093457 12.45437012 9.28900391 13.17944336 9.98925781 C15.23737609 11.99315241 17.27226172 14.01717859 19.296875 16.0546875 C19.82490723 16.58545898 20.35293945 17.11623047 20.89697266 17.66308594 C39.93650371 37.06284203 52.29779372 65.81886317 53.296875 93.0546875 C53.35681641 94.18970703 53.35681641 94.18970703 53.41796875 95.34765625 C54.22663344 123.74605743 43.78188147 150.16953764 26.859375 172.4921875 C26.43430664 173.05437988 26.00923828 173.61657227 25.57128906 174.19580078 C24.53114244 175.52394273 23.41987475 176.79582389 22.296875 178.0546875 C21.636875 178.0546875 20.976875 178.0546875 20.296875 178.0546875 C20.090625 178.6115625 19.884375 179.1684375 19.671875 179.7421875 C18.12877858 182.33739511 16.24267825 183.89518592 13.88671875 185.75 C12.02972861 187.2254897 12.02972861 187.2254897 9.546875 189.8671875 C7.296875 192.0546875 7.296875 192.0546875 5.296875 192.0546875 C5.296875 192.7146875 5.296875 193.3746875 5.296875 194.0546875 C2.97753908 195.84866548 0.66933411 197.49464641 -1.765625 199.1171875 C-2.42240234 199.57673828 -3.07917969 200.03628906 -3.75585938 200.50976562 C-8.03731669 203.3823493 -11.4147511 204.84976301 -16.703125 205.0546875 C-18.640625 203.9296875 -18.640625 203.9296875 -19.703125 202.0546875 C-20.078125 199.68359375 -20.078125 199.68359375 -19.703125 197.0546875 C-17.61328125 195.02734375 -17.61328125 195.02734375 -14.765625 193.1171875 C-13.76660156 192.43398438 -12.76757812 191.75078125 -11.73828125 191.046875 C-10.73667969 190.38945312 -9.73507812 189.73203125 -8.703125 189.0546875 C-7.40181641 188.19230469 -7.40181641 188.19230469 -6.07421875 187.3125 C-4.58224549 186.32440568 -3.08431384 185.34519284 -1.578125 184.37890625 C0.34692505 183.10482171 0.34692505 183.10482171 1.921875 181.38671875 C3.296875 180.0546875 3.296875 180.0546875 5.296875 180.0546875 C5.626875 179.0646875 5.956875 178.0746875 6.296875 177.0546875 C7.40187914 175.91515198 8.51365341 174.78165631 9.65234375 173.67578125 C23.6451782 159.88236962 33.80653578 142.28689512 38.296875 123.0546875 C38.57402344 121.87777344 38.85117187 120.70085937 39.13671875 119.48828125 C42.16459658 105.671117 42.44573974 91.90969236 39.296875 78.0546875 C39.04035156 76.89710938 38.78382813 75.73953125 38.51953125 74.546875 C32.3738699 49.27844765 18.93860931 29.87692679 -0.546875 12.95703125 C-2.70287167 11.054911 -4.78567335 9.19926326 -6.703125 7.0546875 C-6.640625 4.4296875 -6.640625 4.4296875 -5.703125 2.0546875 C-2.703125 0.0546875 -2.703125 0.0546875 0 0 Z " fill="#FFFFFF" fill-opacity="1" transform="translate(426.703125,237.9453125)"/>
<path d="M0 0 C4.5004288 0.60582695 6.06259432 2.25009432 9.25 5.4375 C9.25 6.0975 9.25 6.7575 9.25 7.4375 C9.8275 7.664375 10.405 7.89125 11 8.125 C13.84591381 9.78511639 15.24841921 11.82937957 17.25 14.4375 C18.41789062 15.60345703 18.41789062 15.60345703 19.609375 16.79296875 C34.67379987 31.87967827 45.65312321 52.07762658 51.75 72.4375 C51.96269531 73.11683594 52.17539062 73.79617188 52.39453125 74.49609375 C56.04259147 86.6935957 56.62297921 98.88267779 56.62060547 111.51928711 C56.62496464 114.10403104 56.66137487 116.68704196 56.69921875 119.27148438 C56.90138277 149.24475356 45.49548959 179.45781094 26.25 202.4375 C25.34948961 203.5618831 24.44979052 204.68691631 23.55078125 205.8125 C16.29876929 214.73304031 8.17953116 222.22338526 -0.75 229.4375 C-1.5541333 230.10048096 -1.5541333 230.10048096 -2.37451172 230.77685547 C-11.06387738 237.88886105 -11.06387738 237.88886105 -15.9375 237.9375 C-16.865625 237.7725 -17.79375 237.6075 -18.75 237.4375 C-19.8125 235.625 -19.8125 235.625 -20.75 233.4375 C-19.42956745 229.47620235 -17.69351974 228.88150484 -14.1875 226.6875 C-9.4962657 223.66811201 -5.3242987 220.51616206 -1.2734375 216.6875 C0.25 215.4375 0.25 215.4375 2.25 215.4375 C2.476875 214.880625 2.70375 214.32375 2.9375 213.75 C4.99805294 210.11950197 7.65647953 207.21149565 11.4375 205.375 C13.82309248 204.14107285 14.0693632 202.82434695 15.25 200.4375 C16.26368543 199.1032708 17.3084013 197.79232075 18.375 196.5 C22.86550076 190.79157875 26.64603655 184.73495193 30.25 178.4375 C30.58676758 177.85677734 30.92353516 177.27605469 31.27050781 176.67773438 C47.13823466 148.83694806 51.95430649 113.56671854 44.25 82.4375 C37.23212229 57.29744574 23.40842983 29.62617437 2.48046875 13.2734375 C1.74441406 12.66757813 1.00835937 12.06171875 0.25 11.4375 C0.25 10.7775 0.25 10.1175 0.25 9.4375 C-0.389375 9.210625 -1.02875 8.98375 -1.6875 8.75 C-3.75 7.4375 -3.75 7.4375 -4.625 4.9375 C-4.66625 4.1125 -4.7075 3.2875 -4.75 2.4375 C-2.75 0.4375 -2.75 0.4375 0 0 Z " fill="#FFFFFF" fill-opacity="1" transform="translate(451.75,222.5625)"/>
<path d="M0 0 C2.5 0.375 2.5 0.375 5.5 2.375 C5.5 3.035 5.5 3.695 5.5 4.375 C6.09683594 4.65859375 6.69367188 4.9421875 7.30859375 5.234375 C22.00695056 12.88485662 32.35508789 32.11779552 37.875 47.109375 C38.90446897 50.51570614 39.7581645 53.89534065 40.5 57.375 C40.72300781 58.41785156 40.94601562 59.46070313 41.17578125 60.53515625 C45.92004211 86.58018016 39.30517019 111.23760279 24.72265625 133.03125 C21.93273353 136.90576371 21.93273353 136.90576371 20.5 138.375 C19.84 138.375 19.18 138.375 18.5 138.375 C18.29375 138.91125 18.0875 139.4475 17.875 140 C15.96749574 143.29478009 13.45180616 145.96863628 10.5 148.375 C9.84 148.375 9.18 148.375 8.5 148.375 C8.5 149.035 8.5 149.695 8.5 150.375 C6.46739707 151.94334809 4.44337434 153.38961843 2.3125 154.8125 C1.73435547 155.20759766 1.15621094 155.60269531 0.56054688 156.00976562 C-1.11532557 157.14784398 -2.80746382 158.26185487 -4.5 159.375 C-5.40878906 159.97441406 -6.31757813 160.57382812 -7.25390625 161.19140625 C-9.5 162.375 -9.5 162.375 -12.25 161.875 C-14.5 160.375 -14.5 160.375 -15.140625 157.78125 C-15.25921875 156.9871875 -15.3778125 156.193125 -15.5 155.375 C-14.82453125 154.90449219 -14.1490625 154.43398438 -13.453125 153.94921875 C-12.11507813 153.01529297 -12.11507813 153.01529297 -10.75 152.0625 C-9.86828125 151.44761719 -8.9865625 150.83273437 -8.078125 150.19921875 C-6.45695803 149.0521203 -4.85865998 147.87125243 -3.296875 146.64453125 C-1.5 145.375 -1.5 145.375 0.5 145.375 C0.5 144.715 0.5 144.055 0.5 143.375 C1.96875 141.96484375 1.96875 141.96484375 4 140.3125 C19.3950084 127.05493565 30.39839608 107.46052166 32.375 87 C32.43910284 85.12563292 32.48148434 83.2503715 32.5 81.375 C32.59087891 79.98861328 32.59087891 79.98861328 32.68359375 78.57421875 C33.54895522 59.19536652 25.10416476 37.8327184 12.5 23.375 C12.5 22.715 12.5 22.055 12.5 21.375 C11.51 21.045 10.52 20.715 9.5 20.375 C6.8125 17.9375 6.8125 17.9375 4.5 15.375 C4.5 14.715 4.5 14.055 4.5 13.375 C3.943125 13.1275 3.38625 12.88 2.8125 12.625 C-1.12640804 10.49586052 -4.05694029 8.70417913 -5.5 4.375 C-4.00649848 1.47096927 -3.28282754 0.49242413 0 0 Z " fill="#FFFFFF" fill-opacity="1" transform="translate(409.5,258.625)"/>
<path d="M0 0 C0.33 0.66 0.66 1.32 1 2 C0.14926165 4.48331723 -0.76337183 6.88376861 -1.75 9.3125 C-12.4795709 36.79716084 -10.87710185 65.14822555 0.89501953 92.04492188 C5.38480956 101.6478856 11.30081921 109.81970782 18 118 C18.68964844 118.88171875 19.37929688 119.7634375 20.08984375 120.671875 C27.5926137 129.81635535 38.58759232 136.7786948 48.3984375 143.26953125 C51 145 51 145 52 146 C52.29431219 148.7959658 52.33772308 150.43712819 50.875 152.875 C47.99690532 154.60185681 46.20792564 153.79723596 43 153 C40.64814672 151.73816734 38.5144736 150.47931101 36.3125 149 C35.70672119 148.60135742 35.10094238 148.20271484 34.47680664 147.79199219 C25.31695625 141.65896908 16.93145375 134.6421109 9.6875 126.3125 C9.17574219 125.73113281 8.66398437 125.14976562 8.13671875 124.55078125 C7 123 7 123 7 121 C6.34 121 5.68 121 5 121 C3.35142011 118.86726467 1.85078339 116.74930127 0.375 114.5 C-0.0686792 113.82509521 -0.5123584 113.15019043 -0.96948242 112.45483398 C-11.52415685 96.07154344 -17.85955592 79.41332999 -20 60 C-20.20722336 58.58317055 -20.41536182 57.16647416 -20.625 55.75 C-21.00009377 51.99906226 -21.15545311 48.37158872 -21.05859375 44.60546875 C-20.9624605 42.0244574 -20.9624605 42.0244574 -21.16015625 39.55078125 C-21.26990886 29.31243108 -14.50329048 21.14580787 -9 13 C-8.30704834 11.97036133 -8.30704834 11.97036133 -7.60009766 10.91992188 C-5.11426317 7.24544801 -2.58172046 3.60803403 0 0 Z " fill="#FFFFFF" fill-opacity="1" transform="translate(237,289)"/>
<path d="M0 0 C4.5076467 0.53031138 7.41954788 2.25221116 11 5 C11 5.66 11 6.32 11 7 C11.56976563 7.21914063 12.13953125 7.43828125 12.7265625 7.6640625 C23.03948287 13.7242322 29.49038241 29.95935434 32.375 40.8125 C36.96045539 59.84826288 32.84884338 77.48175162 23 94 C19.13302924 99.83755927 14.43383609 105.5411002 9 110 C8.34 110 7.68 110 7 110 C7 110.66 7 111.32 7 112 C4.515625 113.796875 4.515625 113.796875 1.25 115.75 C-0.35101563 116.73226562 -0.35101563 116.73226562 -1.984375 117.734375 C-5 119 -5 119 -7.34375 118.3671875 C-9.61736768 116.49038046 -9.69888118 114.8606288 -10 112 C-6.80009492 109.25722422 -3.99500618 107.3697164 0 106 C0 105.34 0 104.68 0 104 C1.50390625 102.58984375 1.50390625 102.58984375 3.5625 100.9375 C16.23321737 90.1024696 22.66909938 75.27614443 24.31640625 58.84375 C24.59589489 45.57735611 19.9698665 32.34195981 12.13671875 21.70703125 C11 20 11 20 11 18 C10.34 18 9.68 18 9 18 C4.23255814 13.69767442 4.23255814 13.69767442 3 10 C2.360625 9.690625 1.72125 9.38125 1.0625 9.0625 C-1.45468915 7.7657662 -1.96886948 6.5778263 -3 4 C-2.01 2.68 -1.02 1.36 0 0 Z " fill="#FFFFFF" fill-opacity="1" transform="translate(391,280)"/>
<path d="M0 0 C0.66 0.33 1.32 0.66 2 1 C2.52734375 3.08203125 2.52734375 3.08203125 2.9375 5.8125 C7.20725167 30.88525228 18.2106163 54.72479668 35.5612793 73.41723633 C37.10206807 75.112287 38.56708748 76.85893823 40.03515625 78.6171875 C46.38957285 86.06630706 54.73518956 91.65596239 62.6875 97.2734375 C67.57577955 100.9231327 67.57577955 100.9231327 68.8125 104.0625 C68.874375 104.701875 68.93625 105.34125 69 106 C67 108 67 108 64.28515625 108.390625 C60.16455507 107.90066053 57.65474312 106.19323838 54.4375 103.75 C53.83542725 103.30615967 53.23335449 102.86231934 52.61303711 102.4050293 C45.97570431 97.40645856 39.96094981 91.77416255 34 86 C32.82824219 84.88818359 32.82824219 84.88818359 31.6328125 83.75390625 C30.04130067 82.21672314 28.51098637 80.61640403 27 79 C27 78.34 27 77.68 27 77 C26.34 77 25.68 77 25 77 C23.22835874 74.9146306 21.60444206 72.83520924 20 70.625 C19.27067261 69.62146484 19.27067261 69.62146484 18.52661133 68.59765625 C9.85274251 56.38988494 2.83740532 43.17930465 -2 29 C-2.2784375 28.22946289 -2.556875 27.45892578 -2.84375 26.66503906 C-7.88637742 12.43199805 -7.88637742 12.43199805 -5.75 6.5703125 C-3.99912165 4.07813485 -2.27105609 2.02160371 0 0 Z " fill="#FFFFFF" fill-opacity="1" transform="translate(196,352)"/>
<path d="M0 0 C2.3125 1.25 2.3125 1.25 5 3 C6.29154892 3.79185875 7.58322603 4.58350843 8.875 5.375 C11.50829405 7.02019122 14.05530173 8.73140014 16.5625 10.5625 C18.84848988 12.2288252 21.14948396 13.69374815 23.625 15.0625 C26.72817618 16.84395299 29.2537986 18.72266225 32 21 C33.26606649 21.96462209 34.53737837 22.92237995 35.8125 23.875 C36.83923828 24.64263672 36.83923828 24.64263672 37.88671875 25.42578125 C39.28388433 26.46655339 40.68230252 27.50564633 42.08203125 28.54296875 C45.18689606 30.85232326 48.24470145 33.17370277 51.1875 35.6875 C53.8628078 38.0755041 53.8628078 38.0755041 56.875 39.375 C59 41 59 41 59.5625 44.5 C59 48 59 48 57.3125 50 C54.32485331 51.29195532 53.0637776 51.04616796 50 50 C46.05076614 48.02538307 42.97587777 45.29496372 39.68359375 42.40625 C37.5944663 40.66127116 35.34756936 39.37418694 33 38 C29.57512368 35.53142032 26.23761531 32.94533716 22.8828125 30.3828125 C19.34866416 27.70219433 15.84425135 25.2256192 12 23 C10 21.66666667 8 20.33333333 6 19 C4.66921993 18.16259531 3.33575761 17.32944187 2 16.5 C1.32582031 16.0771875 0.65164062 15.654375 -0.04296875 15.21875 C-1.79013996 14.13069128 -3.55048748 13.06385662 -5.3125 12 C-8.12706644 9.90543893 -9.44372664 8.11254671 -11 5 C-5.88954345 -1.64359352 -5.88954345 -1.64359352 0 0 Z " fill="#FFFFFF" fill-opacity="1" transform="translate(203,106)"/>
<path d="M0 0 C32.45375113 11.11429833 32.45375113 11.11429833 38.859375 19.359375 C38.859375 22.359375 38.859375 22.359375 37.859375 25.359375 C35.546875 27.296875 35.546875 27.296875 32.859375 28.359375 C30.00806763 27.88703721 27.66277124 26.87105363 25.109375 25.546875 C24.41457031 25.19109375 23.71976563 24.8353125 23.00390625 24.46875 C22.29621094 24.10265625 21.58851563 23.7365625 20.859375 23.359375 C14.6423078 20.18571022 8.44021289 17.1783925 1.796875 14.984375 C1.04921875 14.73558594 0.3015625 14.48679687 -0.46875 14.23046875 C-2.53522935 13.55674814 -4.60983762 12.90793192 -6.6875 12.26953125 C-7.93015625 11.86605469 -9.1728125 11.46257812 -10.453125 11.046875 C-11.62488281 10.67949219 -12.79664063 10.31210938 -14.00390625 9.93359375 C-17.7799987 8.0384938 -19.10604598 6.00152263 -21.140625 2.359375 C-16.01270962 -6.73102044 -8.6510761 -2.750803 0 0 Z " fill="#FFFFFF" fill-opacity="1" transform="translate(231.140625,89.640625)"/>
<path d="M0 0 C2.90124793 1.19025556 4.2986957 2.72752044 6.4375 5 C7.21480469 5.45117188 7.99210938 5.90234375 8.79296875 6.3671875 C11.55981091 8.0755184 13.50728361 9.90478286 15.75 12.25 C18.51073742 15.0835081 21.27752393 17.77608263 24.3125 20.3125 C27.91581364 23.40625414 31.15449367 26.76745635 34.375 30.25 C34.8601709 30.76989502 35.3453418 31.28979004 35.84521484 31.82543945 C38.02192557 34.21361316 39.40323611 35.89720834 40.4375 39 C38.28406811 42.23014784 37.16690389 43.75686537 33.4375 45 C27.19789048 42.92013016 22.62556587 37.90469047 18.4375 33 C18.4375 32.34 18.4375 31.68 18.4375 31 C17.84130859 30.73123047 17.24511719 30.46246094 16.63085938 30.18554688 C14.43016857 28.99603724 13.06229201 27.82982761 11.34375 26.03125 C10.51037109 25.17466797 10.51037109 25.17466797 9.66015625 24.30078125 C8.51171875 23.10026042 7.36328125 21.89973958 6.21484375 20.69921875 C5.65925781 20.12816406 5.10367188 19.55710938 4.53125 18.96875 C4.03302734 18.44732422 3.53480469 17.92589844 3.02148438 17.38867188 C1.2717725 15.85470745 -0.4755365 15.01154894 -2.5625 14 C-7.31842748 10.00069735 -7.31842748 10.00069735 -8.1875 6.4375 C-7.5625 4 -7.5625 4 -5.375 1.625 C-2.5625 0 -2.5625 0 0 0 Z " fill="#FFFFFF" fill-opacity="1" transform="translate(179.5625,128)"/>
<path d="M0 0 C2.4375 0.6875 2.4375 0.6875 5 2 C6.1953125 4.25 6.1953125 4.25 6 7 C4.00790209 9.27668333 2.16867372 11.0772182 -0.125 13 C-1.29506453 14.01992351 -2.46434567 15.04074649 -3.6328125 16.0625 C-4.20459229 16.55468018 -4.77637207 17.04686035 -5.36547852 17.55395508 C-7.67942207 19.60107796 -9.82728407 21.80492336 -12 24 C-13.96064897 25.72247903 -15.97510993 27.35183366 -18 29 C-16.42251696 24.4077716 -13.96807976 20.72269396 -11.25 16.75 C-10.80479004 16.0912085 -10.35958008 15.43241699 -9.90087891 14.75366211 C-9.01345739 13.44055509 -8.12433541 12.12859544 -7.23339844 10.81787109 C-5.5991543 8.40920486 -3.98602242 5.98674187 -2.375 3.5625 C-1.58333333 2.375 -0.79166667 1.1875 0 0 Z " fill="#FFFFFF" fill-opacity="1" transform="translate(270,238)"/>
<path d="M0 0 C3.28465896 2.79196011 5.01321958 6.23196817 7 10 C7 10.66 7 11.32 7 12 C6.34 12 5.68 12 5 12 C5 15.37465686 5.81493079 17.53965992 7 20.6875 C7.37125 21.68136719 7.7425 22.67523438 8.125 23.69921875 C8.41375 24.45847656 8.7025 25.21773437 9 26 C8.34 26 7.68 26 7 26 C4.70265954 21.70725525 3.1619397 17.56675655 1.875 12.875 C1.54242188 11.67617187 1.20984375 10.47734375 0.8671875 9.2421875 C0.58101563 8.17226562 0.29484375 7.10234375 0 6 C-0.22429687 5.23945313 -0.44859375 4.47890625 -0.6796875 3.6953125 C-1 2 -1 2 0 0 Z " fill="#FFFFFF" fill-opacity="1" transform="translate(296,218)"/>
<path d="M0 0 C0.66 0.33 1.32 0.66 2 1 C1.79503906 1.88300781 1.59007812 2.76601562 1.37890625 3.67578125 C-0.2928237 11.12257829 -1.54895375 18.37887379 -2 26 C-2.66 25.67 -3.32 25.34 -4 25 C-3.66015674 16.21095009 -3.10928299 8.31097656 0 0 Z " fill="#FFFFFF" fill-opacity="1" transform="translate(142,147)"/>
<path d="M0 0 C0.66 0.66 1.32 1.32 2 2 C-0.97 2 -3.94 2 -7 2 C-7.66 4.31 -8.32 6.62 -9 9 C-9.99 7.68 -10.98 6.36 -12 5 C-8.53221256 -1.14744136 -6.97266172 -1.36962998 0 0 Z " fill="#FFFFFF" fill-opacity="1" transform="translate(222,87)"/>
<path d="M0 0 C3.0109362 2.0072908 3.63016497 2.83884224 5 6 C4.01 7.485 4.01 7.485 3 9 C2.34 9 1.68 9 1 9 C-1.125 2.25 -1.125 2.25 0 0 Z " fill="#FFFFFF" fill-opacity="1" transform="translate(342,164)"/>
<path d="M0 0 C0.33 0 0.66 0 1 0 C0.85930804 2.12534659 0.71229079 4.25027529 0.5625 6.375 C0.48128906 7.55835938 0.40007812 8.74171875 0.31640625 9.9609375 C0 13 0 13 -1 15 C-1.66 15 -2.32 15 -3 15 C-2.69163768 12.87439563 -2.37818386 10.74952935 -2.0625 8.625 C-1.88847656 7.44164062 -1.71445313 6.25828125 -1.53515625 5.0390625 C-1 2 -1 2 0 0 Z " fill="#FFFFFF" fill-opacity="1" transform="translate(140,234)"/>
<path d="M0 0 C1.65 1.32 3.3 2.64 5 4 C4.6875 6.875 4.6875 6.875 4 10 C3.01 10.66 2.02 11.32 1 12 C1.33 9.03 1.66 6.06 2 3 C1.34 3 0.68 3 0 3 C0 2.01 0 1.02 0 0 Z " fill="#FFFFFF" fill-opacity="1" transform="translate(265,105)"/>
<path d="M0 0 C0 3 0 3 -1.3125 4.38671875 C-2.875 5.59114583 -4.4375 6.79557292 -6 8 C-5.65120368 4.74456771 -4.97866739 3.98126893 -2.4375 1.75 C-1.633125 1.1725 -0.82875 0.595 0 0 Z " fill="#FFFFFF" fill-opacity="1" transform="translate(172,104)"/>
<path d="" fill="#FFFFFF" fill-opacity="1" transform="translate(0,0)"/>
<path d="" fill="#FFFFFF" fill-opacity="1" transform="translate(0,0)"/>
<path d="" fill="#FFFFFF" fill-opacity="1" transform="translate(0,0)"/>
<path d="" fill="#FFFFFF" fill-opacity="1" transform="translate(0,0)"/>
<path d="" fill="#FFFFFF" fill-opacity="1" transform="translate(0,0)"/>
<path d="" fill="#FFFFFF" fill-opacity="1" transform="translate(0,0)"/>
<path d="" fill="#FFFFFF" fill-opacity="1" transform="translate(0,0)"/>
<path d="" fill="#FFFFFF" fill-opacity="1" transform="translate(0,0)"/>
</svg>
