<?xml version="1.0" encoding="UTF-8" standalone="no"?>
<svg
   viewBox="0 0 85.494466 71.767314"
   width="512.9668"
   height="430.60388"
   xmlns="http://www.w3.org/2000/svg">
  <path
     d="m 63.070407,21.049306 c -0.594,-3.044 -2.495,-5.877 -5.544,-5.877 h -0.912 c -2.39,0 -3.766,1.869 -4.541,4 h -1.016 c -0.138,-3.139 -2.742,-6 -5.913,-6 h -0.148 c -3.171,0 -5.775,2.861 -5.913,6 h -1.01 c -0.89,-2.146 -2.461,-4 -4.919,-4 h -0.168 c -3.17,0 -5.77,2.862 -5.903,6 h -1.01 c -0.844,-1.576 -2.099,-3 -4.003,-3 -2.75,0 -4.219,2.708 -5,5.333 -1.188,5.334 -1.313,10.75 -0.383,16.086 l 0.383,1.914 c 0.781,2.688 2.25,3.667 5,3.667 2.75,0 5,-1.917 5,-4.667 v 1.084 c 0,3.254 2.662,5.583 5.916,5.583 h 0.168 c 3.267,0 5.916,-2.315 5.916,-5.583 v 1.916 c 0,3.26 2.667,5.667 5.926,5.667 h 0.148 c 3.273,0 5.926,-2.394 5.926,-5.667 v -1.543 c 0,3.049 2.495,5.21 5.544,5.21 h 0.912 c 3.062,0 4.888,-2.167 5.544,-5.21 l 0.436,-2.932 c 0.845,-7.025 0.845,-10.962 -0.436,-17.981 z"
     style="display:inline;fill:#ffffff;fill-opacity:1;stroke:#000000;stroke-width:2;image-rendering:auto" />
  <path
     d="m 67.034407,31.163506 c -0.651,-1.938 -1.57,-3.763 -3.033,-4.744 l -0.13,0.13 c 0.405,4.072 0.234,7.503 -0.365,12.481 l -0.436,2.932 c -0.656,3.043 -2.482,5.21 -5.544,5.21 h -0.912 c -3.049,0 -5.544,-2.162 -5.544,-5.21 v 1.543 c 0,3.273 -2.653,5.667 -5.926,5.667 h -0.148 c -1.136,0 -2.196,-0.298 -3.1,-0.817 l -0.823,0.817 c -0.335,1.078 -0.311,2.53 0.083,3.673 0.987,2.859 4.024,4.276 6.993,3.405 0,0 12.86,-3.576 12.885,-3.583 3.979,-1.171 5.125,-4.301 6,-7.004 1.417,-4.937 1.354,-9.625 0,-14.5 z"
     style="display:inline;fill:#ffffff;fill-opacity:1;stroke:#000000;stroke-width:2;image-rendering:auto" />
  <path
     style="fill:none;fill-opacity:1;stroke:#ffffff;stroke-width:4.16666667;stroke-dasharray:none;stroke-opacity:1"
     d="M 78.907615,33.864814 A 37.188736,31.973396 0 0 1 42.100678,66.163005 37.188736,31.973396 0 0 1 4.5340232,34.517993 37.188736,31.973396 0 0 1 41.340661,2.2195508 37.188736,31.973396 0 0 1 78.907609,33.864306" />
  <path
     style="fill:none;fill-opacity:1;stroke:#ffffff;stroke-width:4.16666667;stroke-dasharray:none;stroke-opacity:1"
     d="M 68.49767,12.491693 14.266834,55.526044" />
</svg>
