<svg
   viewBox="0 0 53.996505 45.326724"
   width="512.9668"
   height="430.60388"
   xmlns="http://www.w3.org/2000/svg">
  <path
     d="M 47.9968,8.877 C 47.4028,5.833 45.5018,3 42.4528,3 h -0.912 c -2.39,0 -3.766,1.869 -4.541,4 h -1.016 c -0.138,-3.139 -2.742,-6 -5.913,-6 h -0.148 c -3.171,0 -5.775,2.861 -5.913,6 h -1.01 c -0.89,-2.146 -2.461,-4 -4.919,-4 h -0.168 c -3.17,0 -5.77,2.862 -5.903,6 h -1.01 c -0.844,-1.576 -2.099,-3 -4.003,-3 -2.75,0 -4.219,2.708 -5,5.333 -1.188,5.334 -1.313,10.75 -0.383,16.086 l 0.383,1.914 c 0.781,2.688 2.25,3.667 5,3.667 2.75,0 5,-1.917 5,-4.667 v 1.084 c 0,3.254 2.662,5.583 5.916,5.583 h 0.168 c 3.267,0 5.916,-2.315 5.916,-5.583 v 1.916 c 0,3.26 2.667,5.667 5.926,5.667 h 0.148 c 3.273,0 5.926,-2.394 5.926,-5.667 V 29.79 c 0,3.049 2.495,5.21 5.544,5.21 h 0.912 c 3.062,0 4.888,-2.167 5.544,-5.21 l 0.436,-2.932 c 0.845,-7.025 0.845,-10.962 -0.436,-17.981 z"
     style="fill:#ffffff;fill-opacity:1;stroke:#000000;stroke-width:2;image-rendering:auto" />
  <path
     d="m 51.9608,18.9912 c -0.651,-1.938 -1.57,-3.763 -3.033,-4.744 l -0.13,0.13 c 0.405,4.072 0.234,7.503 -0.365,12.481 l -0.436,2.932 c -0.656,3.043 -2.482,5.21 -5.544,5.21 h -0.912 c -3.049,0 -5.544,-2.162 -5.544,-5.21 v 1.543 c 0,3.273 -2.653,5.667 -5.926,5.667 h -0.148 c -1.136,0 -2.196,-0.298 -3.1,-0.817 l -0.823,0.817 c -0.335,1.078 -0.311,2.53 0.083,3.673 0.987,2.859 4.024,4.276 6.993,3.405 0,0 12.86,-3.576 12.885,-3.583 3.979,-1.171 5.125,-4.301 6,-7.004 1.417,-4.937 1.354,-9.625 0,-14.5 z"
     style="display:inline;fill:#ffffff;fill-opacity:1;stroke:#000000;stroke-width:2;image-rendering:auto" />
</svg>
