<?xml version="1.0" encoding="UTF-8" standalone="no"?>
<svg
   viewBox="0 0 512 512"
   version="1.1"
   id="svg1"
   sodipodi:docname="holdingBreath.svg"
   inkscape:version="1.3 (0e150ed6c4, 2023-07-21)"
   xmlns:inkscape="http://www.inkscape.org/namespaces/inkscape"
   xmlns:sodipodi="http://sodipodi.sourceforge.net/DTD/sodipodi-0.dtd"
   xmlns="http://www.w3.org/2000/svg"
   xmlns:svg="http://www.w3.org/2000/svg">
  <defs
     id="defs1" />
  <sodipodi:namedview
     id="namedview1"
     pagecolor="#ffffff"
     bordercolor="#000000"
     borderopacity="0.25"
     inkscape:showpageshadow="2"
     inkscape:pageopacity="0.0"
     inkscape:pagecheckerboard="true"
     inkscape:deskcolor="#d1d1d1"
     showgrid="true"
     inkscape:zoom="1.5878906"
     inkscape:cx="256"
     inkscape:cy="256"
     inkscape:window-width="1920"
     inkscape:window-height="1009"
     inkscape:window-x="-8"
     inkscape:window-y="-8"
     inkscape:window-maximized="1"
     inkscape:current-layer="svg1">
    <inkscape:grid
       id="grid1"
       units="px"
       originx="0"
       originy="0"
       spacingx="1"
       spacingy="1"
       empcolor="#0099e5"
       empopacity="0.30196078"
       color="#0099e5"
       opacity="0.14901961"
       empspacing="32"
       dotted="false"
       gridanglex="30"
       gridanglez="30"
       visible="true" />
  </sodipodi:namedview>
  <path
     style="fill:#f9f9f9;stroke:#000000;stroke-width:3.14883;stroke-linecap:round;stroke-linejoin:round;paint-order:fill markers stroke"
     d="m 86.016471,423.17992 c -24.618085,-3.88208 -44.267543,-20.98175 -51.065099,-44.4387 -3.3608,-11.59741 -3.272593,-22.629 0.324285,-40.55672 9.151205,-45.61184 34.680644,-101.88615 73.815753,-162.7114 18.7429,-29.13092 24.06001,-34.71068 37.6643,-39.52486 26.07535,-9.22732 53.48083,4.77818 62.39043,31.88448 1.36869,4.16408 1.46196,5.55126 1.68303,25.03321 0.12874,11.34366 0.35226,20.62484 0.49674,20.62484 0.8553,0 9.85077,-6.2203 12.1628,-8.4105 3.75389,-3.55607 7.3717,-9.23914 9.04959,-14.21566 1.38489,-4.10748 1.39796,-4.53571 1.72256,-56.40951 l 0.32709,-52.270598 1.70322,-3.467949 c 2.11342,-4.30318 6.12956,-8.437408 10.26234,-10.564101 4.53386,-2.333087 12.41237,-2.69167 17.44555,-0.794018 4.9643,1.871683 9.42979,6.05933 11.97677,11.231582 l 2.06599,4.195495 0.31488,52.599869 0.31489,52.59986 1.51093,3.7786 c 1.89446,4.73774 4.93288,9.55066 7.90683,12.52461 2.83872,2.83872 12.33625,9.25992 13.04676,8.82081 0.28707,-0.17742 0.52195,-8.90407 0.52195,-19.39255 0,-16.96615 0.13855,-19.61952 1.25585,-24.0514 4.29252,-17.02659 17.20697,-30.14741 34.45725,-35.00786 6.9159,-1.94862 17.42149,-1.93732 24.39394,0.0262 9.30005,2.61907 18.12732,8.20955 24.00163,15.20068 3.42122,4.07166 22.86349,33.64632 30.63643,46.6027 34.03535,56.73198 55.45261,108.39272 62.26888,150.19927 3.82932,23.48657 -1.91619,43.46129 -16.82986,58.51032 -12.64094,12.75566 -30.90219,19.72645 -48.06356,18.34709 -6.33032,-0.5088 -62.91472,-14.43565 -70.43539,-17.33593 -10.26368,-3.9581 -21.31158,-12.4734 -28.60854,-22.05039 -3.91813,-5.1424 -9.43163,-16.38529 -11.27253,-22.98647 -1.34936,-4.83857 -1.41423,-6.27041 -1.63767,-36.14824 l -0.23266,-31.11013 1.45009,0.9369 c 30.54325,19.73382 63.06528,39.91712 65.05648,40.37431 4.68964,1.07678 10.38805,-1.58763 12.61795,-5.89978 1.09121,-2.11016 1.21994,-8.27736 0.21356,-10.23136 -0.38965,-0.75656 -1.31068,-2.0367 -2.04674,-2.84475 -0.73605,-0.80805 -18.72505,-12.56894 -39.97556,-26.13531 -70.8556,-45.23436 -73.42815,-46.92369 -78.41514,-51.49337 l -4.2104,-3.85807 -2.97499,2.77336 c -5.22873,4.87438 -8.91982,7.31624 -64.06231,42.38066 -29.78794,18.94179 -54.82447,35.05443 -55.63671,35.80588 -0.81224,0.75145 -1.91174,2.20262 -2.44332,3.22483 -1.23194,2.36897 -1.19653,7.83435 0.0666,10.27692 2.28127,4.41149 7.93188,7.08817 12.67029,6.0019 1.57351,-0.36072 14.64826,-8.30008 34.83254,-21.15129 l 32.31348,-20.5738 -0.23678,30.68684 c -0.26392,34.20371 -0.31202,34.64039 -5.05331,45.87759 -4.60236,10.90792 -14.3082,22.86838 -23.67785,29.1781 -9.43775,6.35556 -13.78189,7.84656 -47.2664,16.22278 -28.52455,7.13549 -31.76774,7.82035 -38.124158,8.05068 -3.821082,0.13846 -8.623776,-0.0126 -10.672651,-0.3357 z"
     id="path2" />
</svg>
