<svg xmlns="http://www.w3.org/2000/svg" xmlns:xlink="http://www.w3.org/1999/xlink" version="1.1" x="0px" y="0px" viewBox="0 0 68 68" height="512" width="512" xml:space="preserve">
    <g>
        <g>
            <path d="M61.4,41.1l-7.2-12c1-0.3,1.7-0.8,2-1.3c1.5-2,0.8-5,0.7-5.3C53.4,8.2,44.8,1,31.7,1l-1.3,0    c-3.6,0-14.6,0-22,14.4c-7.2,13.8,7.1,35.5,9,38.3V66c0,0.6,0.4,1,1,1h23.9c0.6,0,1-0.4,1-1v-9.7c2.2,2.1,4.4,2.5,5.7,2.5h0    c3.4,0,6.2-2.5,6.1-5.6l-0.9-10.5l6.4-0.1c0.4,0,0.7-0.2,0.9-0.5C61.6,41.8,61.6,41.4,61.4,41.1z M53.1,40.7    c-0.3,0-0.5,0.1-0.7,0.3c-0.2,0.2-0.3,0.5-0.3,0.8l1,11.6c0.1,1.7-1.7,3.5-4.1,3.5c-2.1,0-4.2-1.4-5.8-3.8    c-0.2-0.4-0.7-0.5-1.1-0.4c-0.4,0.1-0.7,0.5-0.7,1V65H19.4V53.4c0-0.2-0.1-0.4-0.2-0.6c-0.2-0.2-16-23.1-9.1-36.5    C17.1,3,27.1,3,30.4,3l1.3,0c4.5,0,18.2,0,23.4,19.9c0.2,0.7,0.4,2.6-0.4,3.6c-0.4,0.5-1,0.7-1.9,0.7l-0.2,0    c-0.4,0-0.7,0.2-0.9,0.5c-0.2,0.3-0.2,0.7,0,1l7.1,11.8L53.1,40.7z" style="fill:#ffffff;fill-opacity:1"/>
        </g>
        <g>
            <path d="M47.1,33.4h-1.6V19.3c1.3-0.4,2.3-1.7,2.3-3.1c0-1.5-1-2.7-2.3-3.1V12c0-0.6-0.4-1-1-1c-0.6,0-1,0.4-1,1v1.1    c-1.3,0.4-2.3,1.7-2.3,3.1c0,1.5,1,2.7,2.3,3.1v14.1h-6.5v-9.1c1.3-0.4,2.3-1.7,2.3-3.1c0-1.5-1-2.7-2.3-3.1V12c0-0.6-0.4-1-1-1    c-0.6,0-1,0.4-1,1v6.1c-1.3,0.4-2.3,1.7-2.3,3.1c0,1.5,1,2.7,2.3,3.1v9.1h-6.5v-3.7c1.3-0.4,2.3-1.7,2.3-3.1c0-1.5-1-2.7-2.3-3.1    V12c0-0.6-0.4-1-1-1s-1,0.4-1,1v11.5c-1.3,0.4-2.3,1.7-2.3,3.1c0,1.5,1,2.7,2.3,3.1v3.7h-6.5V19.5c1.3-0.4,2.3-1.7,2.3-3.1    c0-1.5-1-2.7-2.3-3.1V12c0-0.6-0.4-1-1-1c-0.6,0-1,0.4-1,1v1.3c-1.3,0.4-2.3,1.7-2.3,3.1c0,1.5,1,2.7,2.3,3.1v13.9h-1.3    c-0.6,0-1,0.4-1,1c0,0.6,0.4,1,1,1c18.8,0,4.1,0,30.5,0c0.6,0,1-0.4,1-1C48.1,33.8,47.6,33.4,47.1,33.4z M44.4,14.9    c0.7,0,1.3,0.6,1.3,1.3c0,0.7-0.6,1.3-1.3,1.3c-0.7,0-1.3-0.6-1.3-1.3C43.2,15.5,43.7,14.9,44.4,14.9z M35.9,19.9    c0.7,0,1.3,0.6,1.3,1.3c0,0.7-0.6,1.3-1.3,1.3c-0.7,0-1.3-0.6-1.3-1.3C34.6,20.5,35.2,19.9,35.9,19.9z M27.4,25.3    C27.4,25.3,27.4,25.3,27.4,25.3C27.4,25.3,27.4,25.3,27.4,25.3c0.7,0,1.3,0.6,1.3,1.3c0,0.7-0.6,1.3-1.3,1.3    c-0.7,0-1.3-0.6-1.3-1.3C26.1,25.9,26.7,25.3,27.4,25.3z M18.9,15.1c0.7,0,1.3,0.6,1.3,1.3c0,0.7-0.6,1.3-1.3,1.3    c-0.7,0-1.3-0.6-1.3-1.3C17.6,15.7,18.2,15.1,18.9,15.1z" style="fill:#ffffff;fill-opacity:1"/>
        </g>
        <g>
            <path d="M47.1,38.6H16.6c-0.6,0-1,0.4-1,1c0,0.6,0.4,1,1,1h30.5c0.6,0,1-0.4,1-1C48.1,39,47.6,38.6,47.1,38.6z" style="fill:#ffffff;fill-opacity:1"/>
        </g>
    </g>
    <!-- <text x="0" y="83" fill="#000000" font-size="5px" font-weight="bold" font-family="'Helvetica Neue', Helvetica, Arial-Unicode, Arial, Sans-serif">Created by Vectors Market</text><text x="0" y="88" fill="#000000" font-size="5px" font-weight="bold" font-family="'Helvetica Neue', Helvetica, Arial-Unicode, Arial, Sans-serif">from the Noun Project</text> -->
</svg>