<?xml version="1.0" encoding="UTF-8" standalone="no"?>
<svg
   viewBox="0 0 512 512"
   width="512" height="512"
   version="1.1"
   id="svg1"
   sodipodi:docname="standingInWater.svg"
   inkscape:version="1.3 (0e150ed6c4, 2023-07-21)"
   xmlns:inkscape="http://www.inkscape.org/namespaces/inkscape"
   xmlns:sodipodi="http://sodipodi.sourceforge.net/DTD/sodipodi-0.dtd"
   xmlns="http://www.w3.org/2000/svg"
   xmlns:svg="http://www.w3.org/2000/svg">
  <defs
     id="defs1" />
  <sodipodi:namedview
     id="namedview1"
     pagecolor="#ffffff"
     bordercolor="#000000"
     borderopacity="0.25"
     inkscape:showpageshadow="2"
     inkscape:pageopacity="0.0"
     inkscape:pagecheckerboard="0"
     inkscape:deskcolor="#d1d1d1"
     inkscape:zoom="1.5878906"
     inkscape:cx="256"
     inkscape:cy="118.08118"
     inkscape:window-width="1920"
     inkscape:window-height="1009"
     inkscape:window-x="-8"
     inkscape:window-y="-8"
     inkscape:window-maximized="1"
     inkscape:current-layer="svg1"
     showgrid="true">
    <inkscape:grid
       id="grid1"
       units="px"
       originx="0"
       originy="0"
       spacingx="1"
       spacingy="1"
       empcolor="#0099e5"
       empopacity="0.30196078"
       color="#0099e5"
       opacity="0.14901961"
       empspacing="32"
       dotted="false"
       gridanglex="30"
       gridanglez="30"
       visible="true"
       enabled="true"
       snapvisiblegridlinesonly="true" />
  </sodipodi:namedview>
  <path
     style="fill:#f9f9f9;stroke:#000000;stroke-width:3.14231;stroke-linecap:round;stroke-linejoin:round;paint-order:fill markers stroke"
     d="m 50.797759,476.77542 c -11.680765,-4.58608 -19.244668,-19.31333 -16.810048,-32.72989 2.346977,-12.93358 8.346764,-19.83673 21.080305,-24.25429 13.891075,-4.81913 23.656853,-10.70589 35.344095,-21.30523 6.148882,-5.57652 10.066109,-7.51601 15.913489,-7.87911 5.96169,-0.37018 10.13523,1.2202 16.99327,6.47553 14.68826,11.25566 30.047,18.53379 45.24019,21.43825 7.95353,1.52047 20.09178,1.38957 28.29764,-0.30517 14.7717,-3.05075 27.43113,-9.08389 42.08288,-20.05557 8.63102,-6.46315 12.33212,-7.9651 18.62914,-7.5599 5.31316,0.34188 7.97751,1.59899 15.67789,7.39722 27.39968,20.63141 54.79694,26.52191 81.93341,17.61596 11.28491,-3.70359 21.62563,-9.27689 33.13674,-17.85957 8.39156,-6.25673 11.83283,-7.61672 18.10215,-7.1539 5.75952,0.42517 9.18308,2.2402 16.63598,8.81967 11.06702,9.77005 22.38996,16.43672 34.96311,20.5854 8.68038,2.86421 12.96558,6.2088 17.00753,13.27432 5.52823,9.6636 5.0834,23.49386 -1.06119,32.99377 -4.64537,7.18204 -10.82438,11.10837 -18.23308,11.58588 -3.9496,0.25456 -5.27748,10e-4 -12.24588,-2.33741 -10.12956,-3.39935 -22.14748,-9.42564 -31.91144,-16.00173 l -7.79054,-5.24697 -5.69244,3.40301 c -12.12733,7.24984 -26.22094,13.25667 -38.94266,16.59774 -31.70386,8.32627 -63.89106,2.55694 -97.28591,-17.43783 -2.70643,-1.62043 -5.20298,-2.9515 -5.54789,-2.95793 -0.34492,-0.006 -2.53981,1.16808 -4.87754,2.60999 -10.32224,6.36671 -26.00435,13.40169 -37.34426,16.75258 -18.52315,5.47351 -37.71799,6.21159 -56.23531,2.16238 -12.90187,-2.82127 -29.81915,-9.6495 -42.54993,-17.1742 -3.28998,-1.94459 -6.21806,-3.53562 -6.50684,-3.53562 -0.28879,0 -4.15888,2.41422 -8.60023,5.36492 -15.044126,9.99495 -33.853815,17.94161 -42.367887,17.89945 -2.428855,-0.012 -5.271909,-0.48963 -7.034744,-1.18175 z"
     id="path2" />
  <path
     style="fill:#f9f9f9;stroke:#000000;stroke-width:3.13798;stroke-linecap:round;stroke-linejoin:round;paint-order:fill markers stroke"
     d="M 54.152933,381.62282 C 48.725558,380.5087 42.84972,376.2494 39.033596,370.66306 c -1.02546,-1.50115 -2.60898,-4.95891 -3.518932,-7.68391 -1.484663,-4.44604 -1.624732,-5.63327 -1.364797,-11.56789 0.337315,-7.70133 1.967409,-12.50284 6.129702,-18.05532 3.339343,-4.45466 7.722957,-7.28463 14.958047,-9.65661 12.142045,-3.98067 24.012487,-11.01484 34.108845,-20.21216 7.509265,-6.8406 12.059359,-9.07833 18.448049,-9.0727 5.63169,0.005 9.59361,1.63403 15.71696,6.4625 13.33206,10.51282 29.10307,18.11086 44.31732,21.35089 7.27915,1.55016 21.47857,1.55122 28.76643,0.002 15.6799,-3.33286 28.30626,-9.42656 44.16749,-21.316 12.37404,-9.27545 19.46284,-9.13278 32.3934,0.65196 14.34912,10.85818 27.97057,17.40768 42.88234,20.61876 7.33548,1.57962 22.05629,1.57962 29.39178,0 15.16158,-3.26488 28.48851,-9.6133 42.83697,-20.40583 7.38421,-5.55422 10.17399,-6.92608 15.14988,-7.4499 6.9949,-0.73636 11.48725,1.39621 21.25074,10.088 9.59382,8.54074 21.15243,15.28489 32.6539,19.05267 9.96932,3.26587 14.67779,7.07923 18.73555,15.17381 3.50736,6.99663 4.04211,17.55909 1.26958,25.07709 -4.24105,11.50008 -12.44105,18.00195 -22.7036,18.00195 -8.30507,0 -27.96656,-8.41291 -42.7198,-18.27926 -4.19739,-2.80704 -7.76213,-5.10372 -7.92163,-5.10372 -0.15952,0 -2.49422,1.32075 -5.18821,2.93499 -24.78446,14.85079 -53.05807,22.47359 -75.6695,20.40114 -21.1702,-1.94036 -43.78113,-9.93811 -63.44773,-22.44217 -1.31815,-0.83809 -2.66041,-1.5238 -2.98277,-1.5238 -0.32235,0 -2.74716,1.28682 -5.38844,2.85958 -26.35834,15.69531 -53.96696,23.22738 -77.24437,21.07351 -19.59273,-1.81293 -38.86704,-8.20613 -57.86808,-19.19457 l -7.21828,-4.17438 -7.31111,4.91414 c -13.465764,9.05101 -32.929958,17.76027 -41.708656,18.66258 -1.719732,0.17675 -4.330516,0.0743 -5.801741,-0.22773 z"
     id="path3" />
  <path
     style="fill:#f9f9f9;stroke:#000000;stroke-width:3.14883;stroke-linecap:round;stroke-linejoin:round;paint-order:fill markers stroke"
     d="m 261.88629,34.713967 c 1.27874,0.47493 3.12403,1.54022 4.10063,2.36729 5.12722,4.3422 83.30096,83.691623 84.22433,85.490993 3.64161,7.09643 0.74072,16.47656 -6.39216,20.66932 -3.95395,2.32415 -10.42401,2.49579 -14.35374,0.38077 -1.41583,-0.76201 -14.37768,-13.23421 -29.59627,-28.47821 -14.89246,-14.91734 -27.29099,-27.122443 -27.55228,-27.122443 -0.26129,0 -0.48129,35.495203 -0.4889,78.878223 -0.0131,75.03022 -0.07,79.0018 -1.16451,81.41127 -1.46903,3.23384 -4.70545,6.47026 -7.93929,7.9393 -3.04198,1.38187 -8.95661,1.53733 -11.88813,0.31247 -3.26353,-1.36359 -6.77228,-4.82589 -8.37201,-8.26116 l -1.46847,-3.15342 -0.006,-78.56334 c -0.004,-45.01504 -0.24363,-78.563343 -0.56228,-78.563343 -0.30586,0 -12.84608,12.425723 -27.86715,27.612713 -24.58388,24.85541 -27.62095,27.71671 -30.41462,28.65436 -7.73672,2.59669 -15.0866,-0.22941 -18.98521,-7.30002 -2.40691,-4.36523 -2.5381,-10.06055 -0.33009,-14.32991 1.85846,-3.59347 83.62921,-85.735763 86.93801,-87.333033 2.9069,-1.40325 9.14009,-1.71796 12.11829,-0.61183 z"
     id="path4" />
</svg>
