<?xml version="1.0" encoding="UTF-8" standalone="no"?>
<svg
   viewBox="0 0 512 512"
   width="512" height="512"
   version="1.1"
   id="svg1"
   sodipodi:docname="underwater.svg"
   inkscape:version="1.3 (0e150ed6c4, 2023-07-21)"
   xmlns:inkscape="http://www.inkscape.org/namespaces/inkscape"
   xmlns:sodipodi="http://sodipodi.sourceforge.net/DTD/sodipodi-0.dtd"
   xmlns="http://www.w3.org/2000/svg"
   xmlns:svg="http://www.w3.org/2000/svg">
  <defs
     id="defs1" />
  <sodipodi:namedview
     id="namedview1"
     pagecolor="#ffffff"
     bordercolor="#000000"
     borderopacity="0.25"
     inkscape:showpageshadow="2"
     inkscape:pageopacity="0.0"
     inkscape:pagecheckerboard="0"
     inkscape:deskcolor="#d1d1d1"
     inkscape:zoom="1.5878906"
     inkscape:cx="256"
     inkscape:cy="67.070112"
     inkscape:window-width="1920"
     inkscape:window-height="1009"
     inkscape:window-x="-8"
     inkscape:window-y="-8"
     inkscape:window-maximized="1"
     inkscape:current-layer="svg1"
     showgrid="true">
    <inkscape:grid
       id="grid1"
       units="px"
       originx="0"
       originy="0"
       spacingx="1"
       spacingy="1"
       empcolor="#0099e5"
       empopacity="0.30196078"
       color="#0099e5"
       opacity="0.14901961"
       empspacing="32"
       dotted="false"
       gridanglex="30"
       gridanglez="30"
       visible="true"
       enabled="true"
       snapvisiblegridlinesonly="true" />
  </sodipodi:namedview>
  <path
     style="fill:#f9f9f9;stroke:#000000;stroke-width:3.14014;stroke-linecap:round;stroke-linejoin:round;paint-order:fill markers stroke"
     d="m 51.402104,216.05323 c -11.664306,-4.58619 -19.21755,-19.31381 -16.786361,-32.7307 2.34367,-12.9339 8.335003,-19.83723 21.050601,-24.25491 13.871501,-4.81925 23.623519,-10.70615 35.294292,-21.30576 6.140218,-5.57665 10.051924,-7.5162 15.891074,-7.8793 5.95329,-0.37019 10.12094,1.22023 16.96933,6.47569 14.66756,11.25594 30.00465,18.53426 45.17644,21.43879 7.94232,1.5205 20.06347,1.3896 28.25776,-0.30518 14.75089,-3.05083 27.39248,-9.08412 42.02359,-20.05607 8.61885,-6.46331 12.31474,-7.9653 18.60289,-7.56009 5.30567,0.34189 7.96627,1.59903 15.65579,7.39741 27.36108,20.63192 54.71973,26.52257 81.81797,17.6164 11.269,-3.70369 21.59515,-9.27713 33.09004,-17.86002 8.37974,-6.25689 11.81615,-7.61691 18.07665,-7.15408 5.75139,0.42518 9.17014,2.24025 16.61253,8.81989 11.05142,9.77029 22.35841,16.43713 34.91385,20.58592 8.66814,2.86427 12.94731,6.20895 16.98357,13.27464 5.52043,9.66385 5.07622,23.49445 -1.0597,32.9946 -4.63883,7.18222 -10.80913,11.10865 -18.20739,11.58617 -3.94403,0.25457 -5.27005,0.001 -12.22862,-2.33746 -10.11529,-3.39944 -22.11628,-9.42589 -31.86648,-16.00213 l -7.77956,-5.24711 -5.68442,3.40309 c -12.11024,7.25003 -26.18399,13.25701 -38.88779,16.59816 -31.65918,8.32648 -63.80103,2.55701 -97.14882,-17.43826 -2.70262,-1.62047 -5.19565,-2.95158 -5.54008,-2.95801 -0.34443,-0.006 -2.53623,1.16811 -4.87066,2.61005 -10.3077,6.36688 -25.96771,13.40203 -37.29164,16.75301 -18.49705,5.47365 -37.66484,6.21174 -56.15607,2.16243 -12.88369,-2.82134 -29.77713,-9.64974 -42.48997,-17.17463 -3.28535,-1.94464 -6.20931,-3.53571 -6.49768,-3.53571 -0.28838,0 -4.15302,2.41429 -8.58811,5.36506 -15.022935,9.9952 -33.80612,17.94205 -42.308194,17.89989 -2.425434,-0.012 -5.264481,-0.48964 -7.024832,-1.18178 z"
     id="path2" />
  <path
     style="fill:#f9f9f9;stroke:#000000;stroke-width:3.13798;stroke-linecap:round;stroke-linejoin:round;paint-order:fill markers stroke"
     d="m 53.523167,121.52934 c -5.427375,-1.11412 -11.303213,-5.37342 -15.119337,-10.95976 -1.02546,-1.50115 -2.608981,-4.95891 -3.518933,-7.68391 -1.484662,-4.446049 -1.624732,-5.633266 -1.364796,-11.567901 0.337314,-7.701325 1.967408,-12.502836 6.129702,-18.055311 3.339343,-4.454665 7.722957,-7.284635 14.958046,-9.656605 12.142046,-3.98068 24.012488,-11.014849 34.108846,-20.212172 7.509264,-6.840599 12.059355,-9.078321 18.448045,-9.072694 5.63169,0.005 9.59362,1.634026 15.71696,6.462503 13.33206,10.512814 29.10307,18.110858 44.31732,21.350884 7.27915,1.550167 21.47858,1.551225 28.76643,0.0021 15.6799,-3.332865 28.30626,-9.42656 44.1675,-21.315995 12.37403,-9.275457 19.46283,-9.132786 32.39339,0.65196 14.34913,10.858183 27.97058,17.407678 42.88234,20.618759 7.33548,1.579618 22.05629,1.579618 29.39178,0 15.16158,-3.264879 28.48851,-9.6133 42.83697,-20.405837 7.38421,-5.554214 10.17399,-6.926078 15.14988,-7.449893 6.9949,-0.736358 11.48725,1.396215 21.25074,10.088005 9.59382,8.540737 21.15244,15.284877 32.6539,19.052664 9.96932,3.265868 14.67779,7.079227 18.73555,15.173809 3.50736,6.996627 4.04211,17.559096 1.26959,25.077094 -4.24106,11.50008 -12.44106,18.00195 -22.70361,18.00195 -8.30507,0 -27.96656,-8.41291 -42.7198,-18.27926 -4.19739,-2.80705 -7.76212,-5.103723 -7.92163,-5.103723 -0.15952,0 -2.49421,1.320754 -5.18821,2.934993 -24.78446,14.85079 -53.05807,22.47359 -75.6695,20.40114 -21.1702,-1.94036 -43.78113,-9.93811 -63.44773,-22.442172 -1.31815,-0.838094 -2.66041,-1.523799 -2.98277,-1.523799 -0.32235,0 -2.74716,1.28681 -5.38843,2.859571 -26.35835,15.69532 -53.96697,23.22739 -77.24438,21.07352 -19.59273,-1.81293 -38.86703,-8.20613 -57.86808,-19.19457 l -7.21828,-4.174381 -7.3111,4.914141 c -13.465771,9.05101 -32.929964,17.76027 -41.708663,18.66258 -1.719732,0.17675 -4.330515,0.0743 -5.80174,-0.22773 z"
     id="path3" />
  <path
     style="fill:#f9f9f9;stroke:#000000;stroke-width:3.12546;stroke-linecap:round;stroke-linejoin:round;paint-order:fill markers stroke"
     d="m 250.56098,478.41726 c -1.27045,-0.47096 -3.10377,-1.52735 -4.07403,-2.34751 -5.09396,-4.30592 -82.76059,-82.99243 -83.67797,-84.77678 -3.61798,-7.03714 -0.73591,-16.33891 6.3507,-20.49664 3.9283,-2.30473 10.35639,-2.47494 14.26062,-0.37759 1.40665,0.75565 14.28442,13.12365 29.40428,28.2403 14.79585,14.79272 27.11396,26.89585 27.37355,26.89585 0.2596,0 0.47817,-35.19867 0.48573,-78.21925 0.013,-74.40339 0.0695,-78.34179 1.15695,-80.73113 1.45951,-3.20682 4.67493,-6.4162 7.88779,-7.87297 3.02225,-1.37033 8.89851,-1.52449 11.81101,-0.30986 3.24236,1.3522 6.72835,4.78557 8.3177,8.19214 l 1.45895,3.12708 0.006,77.90699 c 0.004,44.63897 0.24205,77.907 0.55863,77.907 0.30388,0 12.76275,-12.32191 27.68638,-27.38202 24.4244,-24.64777 27.44177,-27.48516 30.21732,-28.41498 7.68653,-2.575 14.98873,0.22749 18.86205,7.23903 2.3913,4.32876 2.52164,9.9765 0.32795,14.2102 -1.8464,3.56345 -83.08671,85.0195 -86.37404,86.60342 -2.88805,1.39153 -9.0808,1.70361 -12.03968,0.60672 z"
     id="path4" />
</svg>
