<svg xmlns="http://www.w3.org/2000/svg" version="1.1" viewBox="-5.0 -10.0 110.0 135.0">
 <path d="m92.902 30.008c0.16016-0.17578 0.21484-0.42578 0.13672-0.65234-0.078124-0.22656-0.27734-0.39062-0.51172-0.42969l-2.1562-0.34766c-0.82422-0.13672-1.4883-0.75391-1.6797-1.5664-0.22656-0.97656-0.33984-1.9727-0.34375-2.9727v-0.25781c0-0.35156-0.14844-0.69141-0.41406-0.92578-0.26172-0.23438-0.61328-0.34766-0.96484-0.30859l-11.781 0.70703c-0.59766 0.035156-1.0664 0.53125-1.0625 1.1289l0.003906 0.41016c0 0.33984-0.13281 0.66016-0.37109 0.89844-0.23828 0.23828-0.5625 0.36719-0.89844 0.36719l-53.512-0.50391 0.003906-0.003907c-0.51562-0.003906-0.92578-0.41797-0.92578-0.93359v-1.4648c0-0.20312-0.082031-0.39453-0.22266-0.53906-0.14453-0.14062-0.33594-0.21875-0.53906-0.21875h-4.0156c-0.20313 0-0.39453 0.078125-0.53906 0.21875-0.14062 0.14453-0.22266 0.33594-0.22266 0.53906v1.4414c0 0.52344-0.42578 0.94922-0.94922 0.94922h-3.8086c-0.66406 0-1.2031 0.53906-1.2031 1.2031v5.6016c0 0.32031 0.125 0.625 0.35156 0.85156 0.22656 0.22266 0.53125 0.35156 0.85156 0.35156h3.5781c0.3125 0 0.61328 0.125 0.83594 0.34375 0.22266 0.22266 0.34375 0.52344 0.34375 0.83594v4.1016c0 0.72266 0.28906 1.4141 0.80078 1.9258 0.51172 0.51172 1.2031 0.79688 1.9258 0.79688h16.125c1.5547 0 2.9297 1.0117 3.3906 2.4961l1.9492 6.2422h0.003906c0.80859 2.5859 3.2031 4.3477 5.9102 4.3516l16.297 0.019531v0.003907c2.625 0.003906 5.0859 1.2852 6.5938 3.4375l2.1016 3.0039c0.94922 1.3516 1.457 2.9688 1.457 4.6211v9.4258c0 2.0469 1.6602 3.7031 3.7031 3.7031h16.098c1.5781 0 2.8555-1.2773 2.8555-2.8516 0-3.4102-0.60547-6.7891-1.7852-9.9883l-5.168-13.992c-0.73828-1.9961-0.16406-4.2422 1.4375-5.6445l4.3008-3.7617c0.74609-0.65625 1.0742-1.668 0.84766-2.6367l-1.2031-5.1445h-0.003906c-0.25781-1.1133 0.046874-2.2812 0.81641-3.1211zm-31.531 19.637c0 1.9766-1.6016 3.5781-3.582 3.5781h-14.207c-1.4102 0-2.7617-0.55859-3.7578-1.5547-0.99609-0.99609-1.5547-2.3477-1.5547-3.7578v-1.4102c0-0.94922 0.375-1.8594 1.0469-2.5312s1.5859-1.0508 2.5352-1.0508h13.441c0.36719 2.5859-0.96484 5.1133-3.3047 6.2734-0.37891 0.1875-0.67188 0.51953-0.80859 0.92188-0.13672 0.39844-0.10547 0.83984 0.082031 1.2188 0.38672 0.79297 1.3477 1.1211 2.1367 0.73047 3.4102-1.6836 5.4453-5.2734 5.1367-9.0625 1.6523 0.35156 2.8359 1.8125 2.8359 3.5z"/>
<text x="0.0" y="117.5" font-size="5.0" font-weight="bold" font-family="Arbeit Regular, Helvetica, Arial-Unicode, Arial, Sans-serif" fill="#000000">Created by Leonardo Henrique Martini</text><text x="0.0" y="122.5" font-size="5.0" font-weight="bold" font-family="Arbeit Regular, Helvetica, Arial-Unicode, Arial, Sans-serif" fill="#000000">from Noun Project</text></svg>